<mxfile host="" modified="2020-12-02T11:39:01.239Z" agent="5.0 (Macintosh; Intel Mac OS X 10_15_7) AppleWebKit/537.36 (KHTML, like Gecko) Code/1.45.1 Chrome/78.0.3904.130 Electron/7.2.4 Safari/537.36" etag="JbRojP5lEfdnFI2Jetwq" version="13.1.3">
    <diagram id="6hGFLwfOUW9BJ-s0fimq" name="Page-1">
        <mxGraphModel dx="1334" dy="1019" grid="0" gridSize="10" guides="1" tooltips="1" connect="0" arrows="1" fold="1" page="1" pageScale="1" pageWidth="1169" pageHeight="827" background="#ffffff" math="0" shadow="0">
            <root>
                <mxCell id="0"/>
                <mxCell id="1" parent="0"/>
                <mxCell id="98" value="" style="rounded=0;whiteSpace=wrap;html=1;labelBackgroundColor=none;fillColor=none;strokeColor=#000000;" vertex="1" parent="1">
                    <mxGeometry x="121.75" y="167" width="1024.25" height="621" as="geometry"/>
                </mxCell>
                <mxCell id="99" value="" style="rounded=0;whiteSpace=wrap;html=1;labelBackgroundColor=none;fillColor=none;strokeColor=#000000;" vertex="1" parent="1">
                    <mxGeometry x="426.93" y="310" width="545.07" height="466" as="geometry"/>
                </mxCell>
                <mxCell id="7" value="" style="dashed=0;html=1;shape=mxgraph.aws3.cloud;fillColor=#F58536;gradientColor=none;dashed=0;" vertex="1" parent="1">
                    <mxGeometry x="100" y="141" width="70" height="50" as="geometry"/>
                </mxCell>
                <mxCell id="73" value="" style="outlineConnect=0;fontColor=#232F3E;gradientColor=#F78E04;gradientDirection=north;fillColor=#D05C17;strokeColor=#ffffff;dashed=0;verticalLabelPosition=bottom;verticalAlign=top;align=center;html=1;fontSize=12;fontStyle=0;aspect=fixed;shape=mxgraph.aws4.resourceIcon;resIcon=mxgraph.aws4.ecs;labelBackgroundColor=none;" vertex="1" parent="1">
                    <mxGeometry x="425" y="307" width="60" height="60" as="geometry"/>
                </mxCell>
                <mxCell id="74" value="&lt;font style=&quot;font-size: 18px&quot;&gt;ECS&lt;/font&gt;" style="text;html=1;strokeColor=none;fillColor=none;align=center;verticalAlign=middle;whiteSpace=wrap;rounded=0;labelBackgroundColor=none;fontColor=#000000;" vertex="1" parent="1">
                    <mxGeometry x="486.93" y="340" width="40" height="20" as="geometry"/>
                </mxCell>
                <mxCell id="105" value="" style="group" vertex="1" connectable="0" parent="1">
                    <mxGeometry x="698" y="558" width="195.96000000000004" height="201.5" as="geometry"/>
                </mxCell>
                <mxCell id="103" value="" style="group" vertex="1" connectable="0" parent="105">
                    <mxGeometry width="195.96000000000004" height="201.5" as="geometry"/>
                </mxCell>
                <mxCell id="102" value="" style="rounded=0;whiteSpace=wrap;html=1;labelBackgroundColor=none;fillColor=none;strokeColor=#000000;" vertex="1" parent="103">
                    <mxGeometry x="1.9600000000000364" y="2.5" width="194" height="199" as="geometry"/>
                </mxCell>
                <mxCell id="17" value="" style="outlineConnect=0;fontColor=#232F3E;gradientColor=#F78E04;gradientDirection=north;fillColor=#D05C17;strokeColor=#ffffff;dashed=0;verticalLabelPosition=bottom;verticalAlign=top;align=center;html=1;fontSize=12;fontStyle=0;aspect=fixed;shape=mxgraph.aws4.resourceIcon;resIcon=mxgraph.aws4.fargate;" vertex="1" parent="103">
                    <mxGeometry width="49.96" height="49.96" as="geometry"/>
                </mxCell>
                <mxCell id="21" value="" style="shape=image;verticalLabelPosition=bottom;labelBackgroundColor=#ffffff;verticalAlign=top;aspect=fixed;imageAspect=0;image=data:image/png,iVBORw0KGgoAAAANSUhEUgAAAgAAAAIACAYAAAD0eNT6AABJAElEQVR42u2dB3Rcxb2Hf7KNO4RmQg0ltASSECAQigktARIgoZgW0wwBgiFAKIY8SmjB8FIJPfRqTB4GQm8OzTbau5IsWZZtWbYluUm2JMuyitXmnbkRxMYqu6u9e8t+3znfOe+8YO/13Jn5z53yHwkAAs80adgMaftcaZ+YdHRcOj0ujY9LtzjSvY70fFx6NSa95UgfOtKncSnXkWY6UokjLXCkxY5U7Uj1jtTsSB1dNnf9/6q7/psFXX9mZtff8an9O+3fbX/D/pb9TfvbXc9wun0m+2z2Ge2z8sYAAAB6Yao0KF/ayZGOiEvnO9JtcelpR3rXkfIcqdyRGh3JhMzGrme3/4Z3u/5Nt3X9G4+w/2b7b6cGAABAJDHSAPtVHJdGx6SzHenmmPS4I011pIWO1B7C4J4u27vKYGpXmdiyOduWlS0zW3bUIAAACDyF0mZ50mEx6TJHesSRZjjSmiwO8P3Vlt10W5a2TG3Z2jKmpgEAgC840kYxaW9HOsuRJjrSG45UScDOmJVdZW7L/qyud7ERNRMAANKGkXI+l3aOS2Md6UFHKnCkVoJw4GztejcP2ndl35l9d9RgAABI+Os+V/pBXLrSkV5ypKUE19Bq391L9l3ad8osAQAAfEm+tGlMOi4u3dG1Ma+RwBlZ7budat+1fef23dMCAACyhMnSwFzpYEe6PSbFHKmTwJi1dnbVgdtsnbB1gxYCABAhcqWtHencmDTJkWoJfNiDtV115NwZ0tdpOQAAIcMmmHGkQ2PSnV2JaAhumIrxrjp0KEmLAAACygxpk66d+pMdqY7ghWnW1qnJto7ZukaLAwDwkU+ljWPSmY70iiO1EKQwQ9q6NsXWvWJpJC0RACADzJRGxKXT4tI/uy6xISChnzZ31cUxtm7SQgEA0oi9XS4unexIL3JMDwN+zPBFW1e5EREAIEXskay4dKwjPedIDQQXDJm2zj5n6zDHCwEAEsDeAmdvheu6SpZAglFwkSPdZOs2LRwAYB3sEauYdKIj/cuROggYGFFt3f6XrescKwSArKbrkh2bgncJwQGzzCW27ts2QE8AAFlBsTTY7ph2pHdJw4votoF3YtKptm3QQwBA5HCkLe06qCNV0ekjdmtVVxvZkh4DAEJPvrSbIz3gSE108IgJadvKA7bt0IMAQKgwUk5MOsRmS2OaH7FfywM24+Ahtk3RswBAYLHnne1apiPNoPNGTKvTY9Ip5BQAgEBh86E70uWOVEZHjeipZTHpMtIOA4Cv2FvRujYt1dIxI2bU2q7kQtxMCAAZ/+K/3pFq6IgRfdW2weu5lRAAPMWRhjvS1Y5UTceLGChtm/wtlxABQFqZKg3tWuNfRkeLGGhtG73ctll6LgDoz1S/zdp3iSNV0rEihkrbZi8huyAAJPvFby/nGedIC+lIEUPtQtuWuXwIAPokJv3YkWbRcSJGylkx6Wh6OADYgLi0a1x6lY4SMbraNm7bOj0eALhn+WPSPY7USgeJmBW22jZPDgGALMWmFHWkC7mdDzF7bx+MSReQXhggu6b7RztSHh0gItq+wPYJ9IwAESZP2tGRXqTDQ8RufNH2EfSUABGi61jfdY7UTCeHiL3YFJeu5dggQARwpH2Z7kfEZJcFYtL36UEBwhn4h8elux2pnc4MEVOw3fYh3C8AECLi0pGONJ8ODBHToO1LjqBnBQgwhdJmcekxOixE9MBHbR9DTwsQIIyUE5NOdaTldFKI6OVtgzHpFNvn0PMC+L/Wv40jvULHhIgZdIrte+iBAfwL/r9wpJV0Rojogytj0s/piQEyyExpREx6mA4IEQNwwdBDtk+iZwbwmLi0nyPNpeNBxAA5x+YcoYcG8ICuy3smOFIbnQ0iBvSWweu4XAggjeRKOzjSVDoYRAyBU22fRc8N0E8caYwj1dGpIGKIrLV9Fz04QAp8Km3sSE/QkSBiiH3C9mX06ACJf/Xv6Uiz6TwQMQLOjkl70LMD9EFcOtmRVtNpIGKEXB2XTqKHB+gGe/+2I02ko0DECHuX7evo8QG6yJNGOdIHdA6IGHVj0vu2z6Pnh6wnV/qBI1XQMSBiFllh+z4iAGTzev+vHGktnQEiZqG277uQSADZtt4/1N6tTQeAiKh/2D6RyADZsN6/bVzKpdEjIn55oVCu7RuJEBBZHOk7rPcjIna/LyAm7U2kgMgRk37sSPU0ckTEHq2PSUcTMSBKwX8ct/ghIiZkm+0ziRwQaoyUE5fuoEEjIibt7bYPJZJA6CiVhjjSczRiRMSUfdb2pUQUCA3TpM1j0kc0XkTEfmcO/Mj2qUQWCMN6/y6ONIeGi4iYNufYvpUIA4ElT9rfkapprIiIabfa9rFEGggcjnQo1/giInqq7WMPJeJAkKb97Rn/JhonIqLnNpIrAAJBXDqBC30QETNqi+17iUDgZ/A/nQQ/iIj+JAyyfTCRCPyY9rfZ/TpphIiIvtkRl84nIkEmg/9lNDxExGAYl8YTmSATu/0n0OAQEQOXMOg6IhR4gs1JbXNT09AQEQPrbdwfAF58+RP8ERFDMAggYkE6g//1NCpExNA4gcgFbPhDRGRjIEDSwX8cDQkRMbSDAI4IQkrB/wzO+SMihj5PAMmCIKngfyIZ/hARI5MxkLTBkFDwP5rc/oiIkbKFC4Sgr93+9krfRhoLImLkbOQqYeiWPGn/rrumaSiIiNG03vb1RDxYd9p/F0eqpnEgIkbeatvnE/lA06TNHWkOjQIRMWucY/t+ImAWUyoNiUkf0RgQEbMuR8C/bQwgEmYhXZf7PEdDQETMWp/l8qDs3PHP5T6IQf9KGzyYckCv5fKgLNv0R4pfxBBY88ILxnR0mI6GBtO6fLlpKSszTYWFZs20aab+vfdM3SuvmJrnnjMrHnnEVP3lL2bpHXeYxTfcYCouv9wsGjfOlJ1+uik9/ngz94gjTMkBB5jivfYyhTvtZApGjTJ5w4ZRxvjFcgApg7Mk+P+YLH+I4bDy6quNp3R0mMW/+x1ljW0kCor+tP937DlQKjtiOJxz2GHGa2qef56yRjdHQEzam0gZQfKkbR2pgkqOGB7zRo50v9K9pDEvj7LGL6ywsYKIGSGmSkPjUi6VGzF8Ns2a5e0qQGOjcXJyKGv8Yj9Aro0ZRM7oTP3/g4qNGE5XPvmk58sAhTvuSFnjuj5C5IxG8L+QyowYXsvHj/d8ADDvmGMoa1zPmHQBETTE5Eo/4GpfxHBrj+95TcUVV1DW+FVbuDgovJv+RrHpDzECa7JDhpjO1lZPBwDVDz1EWWN3ljvSlkTUcG36GxST3qfyYjZasPnmZtkf/mBmf//7kfk3Ncbjng4AVv/739Qd7GlT4HuTpYFE1vCs+0+k4mK2mb/xxmbJTTeZ9lWr3KDWumyZm/UuCv82+4XuJTbLIHUIe/EuImsIiEsnU1kxq87KDx3qZsxrW7Fig8DWPGeOKdhii9D/GxddeKHn+wDyN92U+oS9zQScRIQN9pf/no7UQGXFrOiQNtrIlP/616Z1yZJeA1vDZ5+FPu998fe+5/kAoOSgg6hX2JurbYwh0gaQT6WNHWk2lRQj74ABZuE555iWBQsSDm51U6a4fy60g51Bg0xHU5OnA4CF559P3cK+nG1jDRE3eF//T1A5MdLm5JiyU04xzcXFqe10v+++UP/77UyGlyy7+27qGCaSH+BxIm6w1v1Po2JilC097ri07IRffP31oS2Dqr/9zdMBQN2rr1LXMFHHEHmDkexnB0eqo0JiFLW34TV88kn6olxnp1kwdmwoy2LBGWeY9tpad8f+2vJy01Ja6t4TYC/zWTN9umn46CNT/957ZtXrr5u6l182NS+8YFY+9ZRZ8cgj7uzH8j/9ySy76y6z9Pe/d68AthsnKy6/3Cy66CKz8LzzzLxjj6XOYaLW2dhDBPYRezYzLv2byohRc/b++5v6d97x5EvXJtWZd/TRlDNi/5xKfgB/1/0nUAkxShbvtZe7Yc9r2levNrP32Sd6RyJHjjTF3/mOmX/iie6X/eLrrnOTIlU/8ICpef55s+pf/zL1b71l6t9916z+4AM3AZCdYbH/96rXXnNnDVY89pipuvdes/S229x7CMpOPdXMGT3azNp9d/fvD1uZzNpzT3fTKO3Lk/0A1xGJ/Vn338+R2qiEGJmv/n32MZ3t7SZTtC5dGrpb8OKDB5ui3XYz837yE1N+8cVm2cSJpvbFF82a3Nxu8yB4gf2dNTNmuAOKpbff7gZXm3XRPlsQy2zu4Ye7z13zzDOhHMAE3FZH2peInEFmSiMcaQ6VD6OmDSiZpHn2bJO/2WbB/JofNsw9m1/xm9+YlU8/bZpLSozp6DBBxS6tNBUWuoG28qqr3GWc+MCBvpejnQ35ArtvYvZ++9HW0quNRcOJzJn7+n+ISodRPepX93//l9HAZafAbTZBv5Ma2cBUfsklZsWjj5qmmTNNZ1ubCTvt9fVm1ZtvuksRJQce6OYzyPjmybFj1x+orF3rDlBsXaPNpc0HicwZICb9nMqGkU7tO2KEaczPz2igsoOOjCYKyslxv5CX3Hijafj0U9PZ0mKygY6GBndzpz2FMOeQQzIyILD7GLpj1RtvmIJRo2hz6dsPcCIR2ttNf9s40koqG0bdwh12cI+7ZRK78c3Lf5O9k2DBmWe60/ltVVUGjGmrqTErH3/czfNgZ0G8KPfFN9zQ6z6QuUceSZtLjytsjCJSe4CRchzpFSoZZot2/TvTX8Z2qjqdKYtLDjjALLnlFnfTXJDX7wOxXFBXZ1Y++aQp/dnP0rqh0OY+6H1aosMsu/NOX5YnIujLRGtvpv5PpXJhtml3mGcsAK1aZSquvDItRxltWt3WxYuJ6v0ZDDz9tCk94QQTHzKkX+/DHoFMaC/IZ5+F7lRIQJcCTiFip5FCaTNHWk7lwmx0+T33eLww3WFWPPxwv9aDC7bayh082Kx8kOZlgpUrzfI//tEU7bprSu+m5tlnkxp42PsmaHf9cpmNWUTu9K39P0qlwqx1wAA3SY0X2EQ4qSYEsicHyk47zU29G4Ud+4Gns9NNYDT/5JOTmq5Ppe5UP/SQ7ydDQu4/iNzpOfJ3JJUJs938jTc2TUVFaYslaxctMmVjxqQ2xb/33u6Mgf1aBH+wyyv2ToOZ223X5/uylxylgq1vdjmH9peyRxDB+8E0aZgjzaciIcoU7bxzv7PddaxZ4x69S+Xrzu4Wt2faIUCTAm1t7sVHcw49tNfsifbSo7bq6uTrS1OTm3GR9peSpTaGEclT//q/m0qE+F/t7YA241wq08d2LTiRL8b1gsfAge7RvUbHIdoGHHsb4rwf/7jXWSQ7a2BzESRL7UsvmfxNN6UNJu9EInlq6/77OlI7FQhxfRddeGFSnbfNk2+PFCZ7qU7FFVe4SwUQLtZ8/rmb/renTH92w2bV3/+e9EDS1oVk6xGqPSZ9n4ieBFOlQY6UR+VB7N6qv/6173XipUvNwnPPTSrlq03WY2/Pa6+tJZKGHJtOuez003vM8Fi0yy7uhUZ2diiZQQD5ApI2bmMakT3xqf9rqTSIvU/N17/9dvez/S0tbvKXZG5+sxfv2IxxNhcARIvmOXPMgjPO6HEgaG8y7KkufZXS44+n/aXmNUT2BMiTdnSkZioMYh8nA772NbdzXxe7Icx+2SUzkFh0wQUk7cmSpYE5o0f3usnTLhf1hE1MRLtL2SYb24jwfa/9v0hlQUzwZMBuu7nT9fYa2mRzutt14ubiYiJjllH3yitm1u6791gv7PHQlnnz1l9OWrYssNdGhyhD4CQifO9T/6OpKIhJDgK++c2k7p0v+eEPTcPHHxMJs/z4YPX99/eY/dGu89vjf3YfiWX+L35BW0vH0p00mkjfDZOlgWz8Q/ROewTQHucC+IL2+nqzeMKEHm8izBs+POWEUdj9hkAjDSDib3jZzwVUDkQPzMkx5Zde6nb2AN1uFCwuNnN/9CPaSmaWAsYR8ddhhrSJI1VRORDT66xvf9u95Q0gEVY+9VS/LoXChKyyMY/I/9+v/3uoFIhpXGscMsQsve0207l2LVENkqKtpsYs+tWvksofgUnvBbibyC8pX9rNkVqpFIhpShc8erRpLikhkkG/sDNH9uIn2pQnro1Lu7LzX3qVyoDYf23iH3tLXzKZ3QB6PS2wdq1ZfP31SZ0ywYR9Jdun/n9MJUDsvzab21fPbgOkizXTp/eaOwBT3hB4dDbn+59FJUDsn/aqV5v+F8BL7NXAFVdeyd6A9DorK+8JsEchePmI/UgFvNlmpm7KFCITZJTV//63KdxxR9pg+jYEnp9Vwb9YGuxIi3j5iClu9DvkELO2vJxoBL5g009zMVDaXGhjYjbl+7+El46YggMGmCX/8z9uKlcAf3cIdpplEyeyQTA9ewEuzpa1/6GOVMlLR0zOgi22MPXvvkvggUDR8NFHZuY229BG+2dlqTQkG77+L+dlIyaZ0e9b3zIt8+cTbSCQtC5fnvRtlLjBLMBlUQ/+wx1pGS8bMXHnHXOMaV+1iigDwV4RaG93l6c4JZCyS6dJw6I8ALial4yYxBG/3/zG7VgBwsKqN990l6tovyn526ju/B/pSNW8YMQEjgYNGmSqH3yQaAKhZG1FhSk58EDacvJWz5RGRPHr/3peLmJi5/tXv/8+UQTCvSSwdq1Z8Mtf0qaTd0IUr/ut4cUi9m7RbruZ5rlziR5ZSseaNaYxHjc1zz1nlt15p6m85hqz6IILzPyTTzZzjzjCzN5nH3dDaPF3v2tm77uvKTngADcnhP3fFpxxhqm86iqz/H//19Q8+6xZ/eGHpnXZMp9HAZ1m8XXX0baTsyZS1wU70k28VMQ+8vnvs49pq64mCmbLNPnChWblE0+YiiuuMPN+8hNT+I1veLKBrmDLLd0d+jaNr/09+7uZpuree90cFrTzhL0xEsHfrmc4Ui0vFLGXzH4HH2za6+qIilkQ8Beee67vqXSLdtnFLPrVr0ztpEkZq3d1//d/Jm/oUNp7YtZGYi+APdvIy0Ts2blHHeVO/ULUFsE73SQ55ePHBzp3fnzwYDP/xBNNzfPPe14PGz75xN3jQrtP6I6A8aEO/pOlgY60gJeJ2L224+Umv2gF/TXTprnT+jO33TZ09TFv+HCz8OyzzZoZMzwroubZs/+z3EH778syG0PD/PV/Ki8RMz5yHjIkFM+54KyzyOkfEZqKikzltddGKrDN3m8/d8nC7uZPN61Llpji732P/qrv7ICnhDL4GynHkWbwEjGTLjznHHfns901HeTnXHTRRcZ0dBA5w/yx395uav/5TzP3Rz+KdJuyg5rqhx5K+0CgqbCQPqvvAcC0sH79H8ILxExa+tOfrvdFXTt5sikYNSpwz2mPakF4aVuxwiz7wx9M4Q47ZFX7sgOBlU8+mbZynPfjH9NvJWCudHAYj/5N4eVhprRZxzoaG7vtrO356KA8Z/nFFxNBQ0pjXp5ZeN55Wb+Tfc7o0e6SR39Y8Y9/0G8l7suhCv750m6O1MmLw0w4a889TdvKlb0fQZoyxczcemt/1/zPPJNp/zCu7xcUuJs1w9QmbPKgRRdeaGZ9+9ue5BawqartnodUTg2sraw0+ZtsQt+VuJ1xadcwff0/wEvDTDhzu+3M2vLyhDqe9tpa9wy2L8sTJ5zAhr+QYXerl40ZE8rb7ezehHXrvb2gZ8mNN7oJgfJGjEjfssD225u6l19OqlxLjzuOvit57w9L8N/SkZp5YZiJnPlNs2Yl3bHbztB2XBk753/kkaajuZmIGhJaSkvNgrFjQ525bt0BQHebF+1yRvV997mzUunIUWA3tSZynNXuIaDvSsmmz6UtSPuLaM8rDxvmJhVJlfb6ejcTWkb2JjQ0EFVDgJ2atlPndno7pWnxgQPdc/RBHwB0eyxv8WJT+9JL7gZVW2dTKYPZ3/++aSkr6/k3li4lCVCU0wMXS4MdqYoXhZ6e8x840NS9+mpaOv36994zhTvt5MlzFn/nO+70KwT8OF9bm1n+xz+avJEjk66Hs/ff372wZ9Xrr5v2VavcafYwDgC+ypxDD01tVu5rX3P323RH2PZRBNDlNsaS+Aez2hWPPprWAGC/0Csuuyyta71Fu+7q/01s0CcNn33mDtQSDfglP/iBu/lt1RtvuLNI3Q0os3kA4JqT4y4vrIu93ZC+K+KJgRzpHV4Seqm9ItWzYPDRR27g7u8zFmy+uWmZN4/oGmDsqRE73d/boM8N+Acc4F5na/eNdBfwNxhMrlmT8hJCZAYAX2mrrcuXm4IttqD/So9vBzL4fy7tzMtBL624/HLPA0NHU5Op/O1vU94AFt9oI/cedgjqfH+nWfHYY+4VuRu8vwED3PXvxRMmmPq33jLtq1en9BMlP/whA4Avkl5dc40pO+UU+q80HgnMl3YK3AAgLt3By0GvLDv99IyeobcXutj8An4vT0Aad/eXlblJbHobvNkTAP3FzhgwAEAPvT1QwX+qNMiRlvBi0JNjdEcd5cmFJH1+LLa0mMXXX+9OBSf0tXPttUTZgFLzzDMmf+ONExto9hO7PyAIaXttqt1F48aZpb//vTvrUf/uu6a5pCSh5D0MAALtEhtzg7T570ReCnrh7H33TXkqNl0k8kU3/+c/J8tfALHr9u6Z/iQ2sDXGYv37zVWrAp9DwO5TsbfxlR5/vCn/9a/duw3sIMnug2lZsCAQyxjYy1KjdEKQNv/9i5eC6dZuyGurqvI1gKx+//0+N3XZ88+ppEQFj5dxpk83RbvsklLipv5iB660YfTwNMBrgQj+M6TtHamDl4JpTfG79da9JhXJBHa6NH/TTXt/zm23dZOoQIDo6DBL77ijX7vx6995p1+PUHHllbRj9NKOAmm7IHz938zLwLSm+N1kE9OYn+/7MbGib36z92m4IUPMmtxcAm6AsNn85hx2WP+XnvbZxz0xkNL4Y80a9+4H2jJ67E2+Bv/J0kBHKudFYNrWtoYM8f0Ynd1w2Ntu8S+svv9+Im6QpvxnzDAzv/71tNVFm7wm6ZMGpaWmeO+9acuYCRcZaYCfR/+O5SVgWnP8Dx1qlv/5z75uqFt4zjl9Pqd7tS8EhtpJk9y6k9Y9KDvvnNTpk1WvveamwqUdYwY3Ax7j5/T/c7wE9EJ7DMmPbHp2N3Rfz2bzA3DBT3BYeuutnl3ZW3XvvQntOXDvAAjhtcEYep/1JfhPk4Y5UgMvAD2bDRg2zFT95S8Zmw2wt6H11Ynb296aioqIukHY69fcbBacdZa3x+VGjer1GGpbTY2Zd+yxtFf0ywYbi/2Y/j+ZwseMzAaMHm1a5s/3dv04N9cdcPT1LPY+c/Afezy05KCDMlL/ltx8c7fP0JiX5y4T0EbR52WAk/yY/n+RwseMzQYMH26q/va3lHdm97pzvKLCPXbY1zPYy2PAf+wMTOGOO2au7o0Y4V5osy52IJjIgBExAzkBJmU0+M+URjhSI4WPGZ8NOOywtM4G2LV8mxGtr9+1/42dcgafd/pPn+7LRrvySy/98oSIzZxHW8QAaWPx8ExO/59GoaOvswF2c1Z/ZwM6OtxUqIn8XvPcuURfn2n47LOE8vl7Ms06aJBZPXUqKXIxqI7J5ADgnxQ4+u3cH/2oX9kC3Wt/E/gdzvsHIPh/+qlvwR8xBL6UkeBfLI10pGYKHAMxGzBihKn6+9+Tng1Y8fDDCf39837yE0/2HUASwf+TT0zeyJHUd8SebbKxORM3/51JYWPgZgMOP9y9xSwR6t97L6E88fmbbUaef7+D/0cfEfwRE9sMeEYmdv9PobAxqLMB1ffd1+sXeyIX/HyZCvb554nAPmLX3O07pW4jJuTLXt/8t4kjtVDQGOjZgCOO6HY2IJELfr6w7PTTicB+Bv8PP3Q3X365CW/wYPcYqL3HnjqO2K0tNkZ7uflvLIWMoZgNGDnyP5v3umYDEr3gx+m64tdmeAN/aIzF1gv+dvNf/bvvuv9bzTPPUL8Re04KNNbL6f/JFDKGajbgyCPd2YBELvj5wvq33iIK+8Ta8vL1kjLZ2/0aHWe9/4ardhF79EVPgv9UaZAj1VHAGLpR8UYbJfzfLrroIqKwT7TX1693la5druku6VPr0qXuBk3qNuIG1tlY7cXX/6EULkZZ+7XZXldHJPaBzrY298jlF+9i9r77uvn+e8Km4qXOInZ7GuAQL47/3UnhYpRl179/lF988X9zLxx9dELXLZf+7GfUW8QN9wHc4cUMQB6Fi1HVTfgDvrD8j3/88j0sOOMM09namtCfa12yJOEjnYhZZDytwT9X2ppCxcieGBg61PPrhqF76l5+2TgDBrjvoeKKK5L+8ysff5w6jPgVZ0hfT+fX/7kUKkbVpXfcQST287hfTo5ZNnFiyn9P6XHHUY8R198HcE461/8nUagYRWd9+9tujgDI8I7/2lpTuMMO7gmNlU891a+/y6Zr9uOKYMQA7wN4IZ3H/2opVIycOTmm4eOPicY+UHbKKW6a31VvvpmWv2/Fo49SnxH/a81kaWA61v8PpjAxii4aN45I7ANfBOvS449P698775hjqNeIX+xtkg5Kx/r/7RQmRk07ZdxWXU00zjDNc+asd8FP5dVXp+3vXltZafI32YT6jfgfb0vH+n+MgsSoufyee4jGmU72s3atm+Bng3fxxz+mb3bh4Yep34j/2QeQ26/gny9t6kidFCZGyaJddmHjnw9UXnNN9+9kwAD3kp+0LQUcfTT1HFHqtDG8P1//x1GIGDVr//lPonGGqX/nHXfTZY9fKxttZOrffjs9SwHl5e4NgtR1ZBZAx/bn+t87KESMkvZKYMgsdq/Fujf89bhpaeRIsyY3Ny2/Wf3gg9R3ROn2/mwAnEoBYpSO/dnkM5BZkrm+t2DUKNMyb15afrfkoIOo85jtfphq8N/IkZooQIyKC885h2icYdxUv0m+p8KddnKv/O3XrENNjSnYfHPqPWa7jTaWp3L+/wcUHkbmTOzw4W7GOMgcHU1NpnDHHVN6X8Xf/a5pr69P+bcrLr+ceo/4n3wA+6ey/n8lhYdRcckttxCRM4wt8/68s7k/+pHpbGlJPtdASYm7qZB6j+h6RSpLAC9RcBgF7bpyIvfLQ/poWbDAvWWxv+/Opgw2nZ3J7TngciDEdZ2cVPA3Uo4jLaXgMApW/eUvROQMM/8Xv0jb+yu/5JLEjxu+9RZ1HnF9l9iYnvAA4HNpZwoNo6C9cS6VaWTox5n/t99O+3tceuutff5uZ3u7e7sj9R5xffOlnZJZ/x9LoWEUtBfPQOawGRZn7b67J0c4bZrfXs/+33cfdR6x+4RAv0xm/f9BCg3D7qw99nC/CiFzLLv7bu86sYED3WOF3dFeV2cKttySeo/YvQ8kMwAooMAw7NZOnkxEziCtS5a42fw8PdI0dKhp+PjjDX678qqrqPOIPVuQTAKgVgoMw6y9dS7Z3ePQPxaef35m1jM33dQ0FRb+98TBvHkmPngw9R6xZ1sTSggUk/amsDDsputiGUjw2F9pqTtFn6n3O3Pbbd1Lf0ySqYYRs9Vcaa9EZgDOorAwzM457DAicqa//s85J/N7PPbc09S88EKvtwwi4n+MSWcmMgCYSGFhmG347DMicgZpnjs3o1//Xz0dQJ1HTMi7EhkAvEFBYVgtPf54InKGWfDLX1L3EIPv64kMACopKAylOTmmaeZMInIm1/7nzTPOgAHUPcTgW9Fr8C+UNqOQMKwuOOssInKGKb/0UuoeYki0Mb7HAUCedBiFhKHMdDVokLsTHTJHW02Ne80y9Q8xNBkBR/d2BPAyCgnDaPnFFxORM5317847qXuI4RoAjO9t/f8RCgnDZt6wYW4WOsgcNuf/zG22of4hhuso4MO9DQCmU0gYNiuvuYaInGFWPvUUdQ8xfAOAad0GfyMNcKQ1FBKG6ut/xAjTtmIFETnDzDn4YOofYvhssLF+gwHADGl7CgfD5uIJE4jGmU78U1xM3UMMqTbWbzAAsLsDKRzk6x/6gpv3EEPtod2dADibgkG+/qHXzX8tLaZgiy2of4jhPQkwtrsNgDdTOBiar/+RI/n694HaSZOof4jh9qbuZgAep2AwNF//119PNPaBecceS/1DDPcMwGPdzQBMpXCQr3/oMfPfihVuxkXqIGKo/bC7AcBCCgb5+oeeWPHww9Q/xPC7YL3gP1Ua5EjtFAyG4ut/5UqisQ/MPeII6iBi+G23Mf/LAUC+tBOFgqH4+r/hBiKxD7QuXcq1v4hR+ZCSdlx3+v8ICiU7LTnoILPkppvMzO224+sfeqTq3ntpL4gRMSYdvm4SoPMplOx05eOP/+d8d3u7WfX662b+z38e2I1efP37OP1/5JF9vp+CUaNMw6efmqLddqNtIQb7JMB5684A3EahZOE00NChpr2+vtvp3mV/+IMp+uY3A/Os+RtvzNe/T7SvXm3igwf3+Y6W3X33l/992Wmn0cYQg+ut684APE2BZJ9lp57aR9q3TrP6gw/MgjPPNPEhQ/z9+v/d74jEPlE3ZUrfX/9bbmk61qxZ789V33+/7/UGEbudAXh63RmAdymU7LPulVcSPwNeU2Oq/vpXU7zXXnz9ZxmLLrqo76//iRO7/bON8bgp2mUX2htisHxn3QFAHgWSXeZvtpnpXLs2pYCwZvp0s+iCC9zLeFj7jz6F22/f+9f/FluYjoaGnpcQVq0y808+mXaHGBzj6w4AyimQ7NJ+1aVjbXjFI4+YkgMO8G6fwrBhpq26mijsE01FRX1//d91V2InCf72t4T2EiCi5y5adwDQSIFklw0ffZTeQDFzpqm4/HJ3ZiGdz1k+fjxR2M/jf3/7W7++/jeYPcrNNYU77UQbRPTXNW7wnyYNozCyy8JvfMPd4OcFHc3NpubZZ83cH/2o/xtVBg40LQsWEIV9pOyUU3r/+r/zzuRnjmprzfwTT6QtIvroVGmoZkjbUxhZlk1vwoSMBI+WefPM4uuuMwVbbZXScy446ywisM/Ys/09fv1vvrm7DJQqy//0JxPfaCPaJKIPFkjbKVfah8LILpsKCzMaRDpbW03dyy8nlExmvecsKCAC+0hzSUmv72fpHXf0+zfshtLCHXagXSJmOg+M9D3FpKMpjOyx+Lvf9S2gVD/4YMLPae+dB3+pfuihXk+RdJdEKhXsEdPSn/2M9omY2QHAUfYswOkURvb4RbY2P5hzyCEJP+fqqVOJwD5jl2B6/Pq//fY0TxN1unUzqGmoESOYDOg0OwAYT2FkiTk5Zm1FhS/BxG7ms7+fyHOWHHgg0TcA9JTAJ51f/1+l4ZNPUt4zgohJeakdANxCQWSHdme+X9j14oQzFL78MtHXZ9rr6nr++r/1Vk9/249sk4hZ6M02B8C9FER2aJP2+MWsPfdM6Bln7bGHMR0dRGCfsUsw3X79b7qpm9nPK9pWrEh4pggR++W9dgDwPAWRBes9gwe756/9wOaDT3iQ8thjRN8AsPzPf+72/dgbIlsXL/bsdxO5eAgR0+LzdgngVQoi+s4/6STfgknlVVcl9Iwzt9su5fsJIL0sPPvsnt/Tttu6gzo/6woi9ttX7DHAtyiI6Fv7z3/6Ekg629vNzK23TugZl//v/xJ5A0Lx3nv3foRo+HD3az3dzN5vP9orYmZOAbxplwA+pDCibf7XvmY6W1p8CST1776b2DPateV+ZJWDNA7aWlrcNMx9vrcBA9I6aLMnCxL6XURMhx/YAcCnFES0XTRunH9Tyeeck1h64t/9jsgbEJpnz06ufv3qV6azra3/g8W33qK9ImbOT+wegFwKItqu/uADXwJJR2OjyRs5MqENiq3LlhF5A0Ldq68mf8T0qKPco4P9YfH119NeETPn53YGYCYFEV3thi2/jtXVvPBCQs/IpT8BOwHwpz+lVNfsUc+WsrKUf3fOwQfTZhEzZ4EdAJRQENG18pprfAskieZ3XzNtGlE3QJRfcknK9a1gyy3dbH5JzxY1NXEzIGJmnW0HAAsoiOjamJfnSxBpq65OKK+73fUNwcJO5/drd/GQIabm2WeT+s3VH35Ie0XMrGV2ALCYgojwEsB225ny8ePdfQDp2KiVKNX33ZfQ86184gkibsAo3HHHtNS9JTffnPBvLv3972mviJm10g4AqimI7LBgiy3MwvPOM6tee810NDd7GkRKfvjDhJ7H6+eAJI8AtrW5x/vSVecWnHlmQkdQ5x55JG0UMbNW2QFAPQWRfdrd+WVjxrgb9dJ9s1tLaWliR/8mTCDiBoy1lZVpr2t2c59dEupx0NHaavKGDaNdImbWVXYA0ExBZHlGqMGDTelPf2pWPPporx11wtO5t96aUBKZtYsWEXEDxprPP/ekjhXtvLNpLi7u/jenTaMdImbeJjsA6KAg8MvBwMCB7rXBVX/9q1lbXp5SECnabbc+f2f+z39OtA0g9ipmLzNS1r/zzga/uWziRNoeYubtYACAve/S339/s+zOO01zSUlavyDr33uPaBtAEt28mfIAc9AgU/3gg+sfF/3pT2lriD4NAFgCwIQTvdiUvY2O02MAqfjNbxL6eyCYLL7hhszkp7jqqv8kqOroMPmbbEL7QvRpCYBNgJi0hd/4hqm44grT8NFHX2YatDvIC7baqs8/a78yIZgsPPfcjNWh0hNOMA0ff0x7QvRxEyDHALF/xwtHjTKLLrwwoc1/+RtvzK1/Aab0uOMyexplxAjaEKKPxwBJBIQZs+Kyy4iyASaR/A2IGJ1EQKQCxoyZ6GZC8IdZu+9OPUXMDsu4DAgz5twjjiDCBhx7mQ91FTErnM11wJgxa555hggbZDo73TwQ1FXErLBAcSmXgkCvtZv/OhobCbIBxqaEpq4iZo2f2xmATykI9NpF48YRYQOOTc1MXUXMGj+xA4APKQj0WnveG4JN06xZ1FXE7PEDxaS3KAj00qJddnHXlyHY2AyP1FfE7DAuvWn3ALxKYaCX2gRBEHwaPvmE+oqYPb5ilwCepyDQM3NyzNqFC4muIaD+3Xepr4jZ4/N2AHAvBYGenf0//HAia0ioe/VV6ixi9nivXQK4hYJAr1z55JNE1pBQO2kSdRYxe7zZDgDGUxDohXkjR5qONWuIrCHBDtaot4hZ46V2AHA6BYFeuPC884iqYRoAPPEE9RYxe04BnGaPAR5NYaAXrp46lagapgHA449TbxGzZYZWOkq50j4UBqbbwp124ux/yFjx2GPUXcTsGQB8TzOk7SkMTLdLbrmFiMoAABEDaoG0naZJwygMTLctZWVE1LANAB59lLqLmCVOlYbK4kiNFAimy9n77Uc0ZQCAiMF1jb7AkcopEEyXy+68k2jKEgAiBtdF6w4A8igQTJfNJSVE0xBS88ILfb7bRRddZOIbbUQ9Rwy38XUHAO9SIJgOZ33720TSkNJXKuC8YcPc/87u71gwdqxxBgygziOG03e+HADEpacpEEzL7v8bbySShpT6997r9d3O3Hrr9f77pqIiM/8Xv6DeI4YvCdDT684A3EahYDpszMsjkoaUhs8+6312Z489uv1za2bMMHOPPJL6jxgeb113BuB8CgTTkvwHQktjfn6v77fkgAN6/fOrP/jAlBx4IG0BMfgzAOetOwNwBIWC/bXyt78lioaY5rlze32/837848T2Erzyiineay/aBGJAjUmHfzkAyJd2olCwvzZ8+ilRNMSsrazs9f2WjRmT+F/W0WFqnnnGFO2yC20DMWDmSTt+OQCYKg1ypHYKBlPV3SDW0UEUDTFtNTW9HwG88MKk/87O1lZT/cADZuY229BOEINhu435WhdHWkjBYKqWX3IJETTkdDQ3977Ec/XVqf/dTU1m2d13m4LNN6e9IPrrAn0VR5pKwWCq2iNkEH56O9u/9Lbb+v33t69aZZbcdJPJGzmSdoPojx9uMACISY9TMJiK+ZttZjrb2oieEaC3wFz1t7+lb7mhqspUXHmliQ8ZQhtCzOwJgMe6mwG4mcLBVFx47rlEzohQsNVWPb7nlU8+mf6NhxUVZtEFF5j4wIG0JcTMeFN3MwBnUzCYijaFLEQDm8uhx/c8ZYpnv7vgrLNoS4iZmQEYu8EAIC6NpnAw6eMkw4a5m8cgGszed98e3/XqDz/07HfLL72U9oSYGQ/dYAAwQ9qegsFknXfMMUTNCFF63HE9vuvGeNyz3138u9/RnhAzoI31GwwAjDTAkdZQQJiMy//0J6JmhFh43nk9vuuW+fM9+93l99xDe0L03gYb69UdjjSdAsJkbCosJGpGiMUTJvT4rttWrPDsd1c88gjtCdH7FMDT1BOO9AiFhEll/4NIsfzPf+7xfdusfl5RO3kybQrR+wHAwz0OAGLSZRQSJuqCsWOJmBGj5rnnetzs6SX1775Lm0L0/gTA+B4HAHnSYRQSJurKp54iYkaM1e+/78tsz5rcXNoUovcDgNE9DgAKpc0oJEzU1qVLiZgRo6moqNt3XbTzzp5e9tQybx5tCtFjbYxXbzhSJQWFfVm8995EywhiN/r19M6LvvlNU/WXv7j5/NP+u1VVtCtEb61QXzjSGxQU9mXlVVcRLaNIZ6eJDxrUe/KnkSNN+fjxpnnOnPT9bEsL7QrRW19PZAAwkYLCvlz15psEy4gyc5ttEqsHOTluIqhVb7zhDhz6i91oSNtC9My7EhkAnEVBYa8bSQYPNh2NjUTKiDJ7n32SrhNFu+3m3hbYXl/v/cADEVM5AnhmnwOAmLQ3hYW9Offww4mSEcZ+1adaN/I33thUXH65aZ47N+nfnfWtb9G+ED0yV9orkRmAjRyplQLDnlz2hz8QJSPMonHj+l9PcnLcewXq33or4eWBkoMOon0heqON6RspERypgALDnmyMxYiSEWbZnXemtb7M2n13U/X3v5v21at7/d3eLiJCxH5ZoERxpAcpMOzOgs039/Q8OPhP7aRJntSd/E02MRVXXGFaSku7/d0FZ55JG0P0xgcSHgDEpbEUGHZn2ZgxRMiIY2d4PK1HdnngZz8z9e+8s97yQPkll9DGEL3JAPjLhAcAn0s7U2jYndX330+EjDjttbUZq0+z9tzTrVMdDQ1m8fXX08YQvZh9k3ZKeABgpBxHWkrB4Qbr//n5RMgsIH/TTTPbQX3ta252SdoYYtpdYmO6ksGRXqLg8KsZ4Drb24mO2ZALYL/9qPOI0XCykiUuXUnB4Xrn/484gsiYJZSddhp1HjEaXpH0ACBX+gEFh+u65H/+h8iYJSy+4QbqPGIUZm6l/ZMeAHQlBGqkAPELV73+OpExS1jx6KPUecTw25hwAqBuBgFTKUD8wraVK4mMWcLqqVOp84jh90OlSly6gwJE97jWHnsQFbOItRUV1HvE8Ht7ygOAmHQcBYjWheedR1TMJjo6THzIEOo+YrgTAB2b8gAgX9rUkTopSFzxyCMExSyDc/mIodbG7q+pP8SkGAWJTUVFRMQsg9z8iKH++s9Vf7FrCBRmlqeR3GQTLgDKQpbddRf1HzG83tbvAUCudDAFmd3O+8lPiIZZiD32Sf1HDO35/4P6PQCYLA10pFoKNIsTAN1yC9GQkwCIGB5rbOxWOohJkyhQ7y079VRT/cADZuntt5uKK680C8aONaXHHWdKDjjAFO2yi3thir1KNdPPVf/220TDLCXTlwIhYlrW/19QunCkcynUDOy0f+yxPjvkzrY201ZVZZqLi03Dxx+builT3KxtyyZONJXXXmsWjRtn5p94oplzyCHuVasFo0aZ+MCBqT9XTo5pX7WKSJilzBk9mraJGDJj0jlpGwDkSltTqN67+oMPvOnFOzvdO95bSkvNmunT3bXdlU89ZZb/+c9m8e9+ZxZddFGPMwvFe+1FFMxiyi+9lLaJGDJnSF9XOnGkPArWW1vmzw/cWu+iCy8kCmYx1Q89RNtEDJdxpZuYdCcF66EDBpjO1lZ/dnu/8UaPz1X94INEwSym4bPPaJuI4Vr/vyPtAwBHOpTC9c6Z223n33nvu+/u8blsAIDspb2+3peNp4iY8vr/IWkfAEyVBjlSHQXsjXbTnl/Y0wY9PZcNAJDdFO60E20UMRzW2VgtL3CkyRSwNy446yzfOvjZ++zT7TPZjh/AniqhjSKGwhflFXFpLAXsjXY3vh90trebvKFDu30m2/ED2LwUtFHEUKz/j/VsADBD2sSRWihoD3IA+HTbXnNJSc8ZAG+8kegHpv7dd2mjiMG3xcZoeYkjTaGgPci29847vnTutZMn9/hM9n8DaK+rYyMgYvB9WV4Tk86koNNv89y5vnTuS26+uednmjOH6Acus/bYg3aKGOzd/2d4PgAolkY6UjMFnkZzckxHc7M/G7xOOqnbZ8obNszdHwBgWXj22bRTxODaZGOzMkFc+icFnsYcAFtv7VvHXrTbbt0+0+z99yfqwZdU33cfbRUxuL6kTBGXTqPA02fJgQf60ql3NDX1eFGQvVQI4AvW5ObSVhGD65iMDQBmSiMcqZFCT49lp5/uS6fe6Dg9PlPVX/9K1IMv6Vy71sSHDKG9IgZPG4uHK5PYhAMUfJpyAFx3nS+d+sonn+zxmVZ/+CFRD9aj5Ic/pL0iBm/z3yRlmrh0MoWfHqsfeMCXDr3y6qt7fKa2FSuIeLAeFb/5De0VMXjJf07K+ABgmjTMkRp4Af3X3sbnB/OOOab7TYnbbEO0gw2oee452itisGywsVh+4EjP8QLSkAOguNiXDn3mttt2+zx2YADwVVrmz6e9IgbLZ+UXcelYXkAacgCsWZPxzry9trbH7G6V115LtIPuB43bbUebRQzO9P8xvg0AJksDHamcF5G6BVtu6UtH3vDRRz0+08onniDSQbfYWytpt4iBcJGRBshPHOlmXkTq+pVwp/r++3t8poaPPybSQbesePhh2i1iMLxJfjND2t6ROngZKeYAOOUUXzry8ksu6fGZWhcvJtJBt9g7K2i3iL7bUSBtpyDgSP/ihaSmPYrnB3MOPbT7OwCGDjWms5NIBz3vA9h6a9ouor9n/19TUIhJJ/JSUrPq3nt96cTzN9202+eZ9a1vEeGgV2zmStouoq+b/04IzABgqjTIkZbwYlLIAfDaaxnvwNdWVvb4PKU/+xkRDnrfP/Lgg7RdRP9cYmOugkRcuoMXk7xNM2dmvAOvf+utHp+n4vLLiXDQ+z6A2bNpu4j+ebuCxufSzryY5G2vr894B778nnt6XpL4y1+IcNAnBVttRftFzLyd+dJOCiKO9A4vKIl1nCFDzKo333QzAWYyGdDCc87p8ZnqXn2V6AZ97wMYM2aDulPz/PNutkBPnTfPFH7jG/QfmK2+raASk07lBaWeEbBgiy3M7H33NfNPOslUXnWVeyVv3ZQppjEvz7TV1KSt8579/e/3vCRRVER0g773AXSTR2LJLbf49tuIWbL7/5TADgCKpcGOVMWL8sb8jTc2xXvtZUp/+lNT/utfm2UTJ5raSZPMmunTTevSpYn1nh0dJm/YsB5/w4+0xBA+7Jf4V+tOyYEHZuS3O1taerzHAjHCLrcxVkHGZifiRfm3pFC0665m7lFHmUXjxpmlt95qVj75pFk9dapZu3Ch6WxrM81z5vT452d+/etENkiYop13Xr8ODRiQ1pmq3rCzY7R5zDJvVNBxpC0dqYmXFcABwsCB7jJDT/97yUEHEdUgYbrLJmlnpDJBR1OTO2ClXWOW2PS5tIXCgCM9wAsLnwt++UuiGiSM3Z/y1Tq08LzzMvb7vZ1mQYyY9yss5Eu72eMKvLRwueSmm4hqkDD2CGt80KD1l5G22SZjv9/R0NDrjBZiVI7+xaVdFSYcaQovLlyuePRRohokxZzRo31NbrXszjtpuxh1X1bYiEmH8OJClpb49deJaJAUS++4Y4N6ZKfmMzkLkb/ZZrRfjKy50sGhGwAYKceRpvMCw+Oa3FwiGiRFYyy2QT2ae+SRGX0Gm3+A9osRPfc/TWGFxEDhcm15ORENklyI7zAFW265/mmTwYMzmk+ivbbWzZFBG0YS/wSIydJAR1rAiwyH9mgVQLIsOPPMDZeT/vWvjD7D4htuoA1j1CyzMVRhJiZdxosMR5ZBgFSoefbZDepT+fjxGX2GthUrTN6IEbRljE7eFmm8ws5MaYQj1fJCg63NIAiQ6hT8V48DFn3zmxl/jsprrqEtY1SstbFTUYD0wMF3zsEHE8kgZeYefvgGdcre3pdJWpcv7/WeC0TS/vrADGkTR6rhpQbX+b/4BVEMUmb5n/+8QZ2qvu++jD9HxW9+Q3vGsFtjY6aihCNdz4sNruUXX0wUg5RpKSvboE6VnnBCxp+jdfFi91Is2jSG2AmKGsXSSEeq5uWSBhiiib2qet06ZTflda5dm/HnsFdl06YxpFZHZu2/m1mAq3nBwbTq738ngkG/6O4o3uoPPsj4c9h8FvGNNqJdYxj9raKKIw13pGW85OBZO3kyEQz6xZrp0zeoV4uvu86XZ1l0wQW0awybS6dJwxRlHOlyXnTw9ONLDSJGR4eZ+fWvr1evir/7XX/2JMyfb+IDB9K2MUxZ/y5T1JkqDXWkSl54wO4BmDGDAAb9//K+6KIN6ta8n/zElI0ZYxZdeKGp/O1vzdJbbzVVf/2rWfnEE6bu5ZfN6vffd+8UaJk3z7RVVZnOlpa0PMvCs8+mbWNYrCyVhigbcKRLeOHBsqmoiOgF/cYG87RkQRs82BSMGuUmqJq9337uBUP2qOrCc891j/rZTavL//hHs+KRR0ztiy+a+rffdpcgmouL3ZMAHQ0NprmkxDgDBtC+MQxf/xcrWyiWBjvSQl58cLTHuAD6S2d7+wbLAL6lUrVLADk5tG8MugttTFQ2EZPG8eKDo82iBpAO7D0AtCnEhHP+n69sY6o0yJFmUQECchNgQwORC9JCwyef0KYQE3OWjYXKRmLS0VSAYGh3cAOkZx2g0xRuvz3tCrEP86SjlM3EpVepCD5XwqFDCVqQViqvuoq2hdi7ryjbiUu7OlIrlcE/CzbfnIgFaWXN55/TthB7dq2NfQJ3KeAeKoR/Fu6wAxEL0k7RzjvTvhC73/h3N5F//euCq6gY/jhrjz2IVpB2Fl9/Pe0LcUOXR+663zTMAlxAxfDH4r33JlpB2mnMz6d9IW6Y9GccEf8rTJYGOlIeFcSHAcBeexGtwBPs7BJtDPFL40YaQMTvfkPgaCqID0sA3/42kQo8YcnNN9PGEP/roUT63u8JeJFKkuEBwLe+RaQCT7C5+WljiO7U/yQifB/kSTs6UhMVJoMDgD33JFKBZxR/5zu0M8x2m2xsI8InthRwLRWGUwAQDZbdeSftDLPda4jsyd0TwIbATA0Adt+dKAWeYa/ndW/mo61hlm78y9p8//3YC7CvI7VTeby3aLfdiFLgKaXHH09bw2y0PSZ9n4ie2lLA3VSgDAwAdt6ZCAWeUvfKK7Q1zEYnEslTZJo0zJHmU4k8vgtgq62IUOApnW1tZubWW9PeMJsstTGMSN6/pYAjqEge3wY4fDgRCjxn8Q030N4wmzyCCJ6eQcCjVCZvNR0dRCjwlJb5842Tk0N7w2zwH0TuNFEobWYvUKBSeWf76tVEKPCcuUceSXvDqLvMxiwid3ovCzqViuWdrUuXEp3Ac2qef572hlHP+HcKETvNGCnHkaZQwbzRpmwF8HwzYEuLKdh8c9ocRtWXidbe7QXYxpFWUsnS7+r33yc6QUaouOIK2hxG0RU2RhGpvV0K+DkVLf2ufPppIhNkhKaiItocRnHq/0QidGYSBD1EhUuvyyZOJDJBxij54Q9pdxglHyQyZ4iZ0ghHmkOlS592WhYgU6x49FHaHUZFG4uGE5kzOwuwnyO1UfnSY3zQIJM3ciRiZhw2jHaHUbDV3ltDRPZnU+AEKiAiIvq07n8dkdgnJksDHWkqFRERETPsh0YaQCT2kVxpB0eqozIiImKGrLWxhwgcjKWAMVRIRETMkGOIvMEaBDxBpURERI/X/R8n4gaMT6WNHWk2FRQRET1yto01RNxgzgLs6UirqaSIiJhmV8ekPYi0wc4PcDIVFRER05orRTqJCBuOmYCJVFhEREyTdxFZQ8JUaVBMep9Ki4iI/fzyf8/mnCGyhog8aZQjVVCBERExRcsdaUsiajiTBP3AkdZSiRERMUlb8qT9iaTh3g9wIRUZERGTPO9/ARE0GoOAf1ChERExQR8hckZnU+DQuJRLpUZExD42/eWWSkOInNHaFLgtmwIREbEXbYzYhogZzaWA7zhSPZUcERG/Yn1M2ptIGWFi0tGO1EZlR0TELttsbCBCZscgYBwVHhERu9b9zycyZtdywO1UfETErPc2ImKWYaQcR3qOyo+ImLVn/Z+xsYCImIXYox4x6SMaAiJi1k37/5vjflnONGlzR5pDg0BEzBpLCqXNiIBgNwXu4kjVNApExMhb9bm0M5EPvsRe+uBIq2kciIjRPesfl/Yj4kF3JwMOdaRGGgkiYuRsjEmHEOmgt+WAo7lCGBExUtqrfY8iwkGfxKUTyBaIiBiNLH+2TyeyQTKDgNMdqZPGg4gYWjtsX05Eg1QGAefTgBARQ3vW/zwiGfRnT8BlNCRExNAF//FEMEjH6YAJNChExNCk+L2OyAXpHARweRAiYvDlch9IL12XB91G40JEDKy3crkPsByAiMi0PwAbAxER2fAHkAa6jgh20PgQEX09589RP/BlEHA6GQMREX3L8HcakQj8HAScwN0BiIgZtSUuHU8EgiDsCTiaWwQRETOivdXvaCIPBOl0gL1KeDWNExHRM+ttX0vEgcCRJ+3vSNU0UkTEtFtt+1giDQR5OWAXR5pDY0VETJtzbN9KhIHAM03aPCZ9RKNFROz3Gf9/2z6VyAKhoVQa4kjP0oAREVPO7veM7UuJKBA6uu4P4BIhRMTkvY28/hCFfQHjSBiEiJhwgp/ziRwQpUHA0V1HWGjgiIg9HPPjjD9EdRCwtyNV0MgRETew3PaRRAqILHnStnEpl8aOiPjlTn/bJ25DhIDIM1Ua6kj/oOEjIuoR2ycSGSCrcKQLuUgIEbPUlph0AZEAspZc6QfsC0DEbFvvJ60vwH/2BYyKSe/TKSBiFqz3v+dIW9LzA/x3X8AgR7qLDgIRI+wfJksD6fEBuiEuncS1wogYMVfbvo0eHqDvzYF7OtJsOg1EjIDFMWkPenaABPlU2jgmPU7ngYhh1fZhti+jRwdIbTZgjCPV0ZkgYoisjUmn0oMD9JNcaQdHmkqngogh8MMZ0vb03ABpwu6cjUnXOVIrHQwiBtDWuHStkQbQYwN4QFzaz5Hm0NkgYoC0fdK+9NAAHjNTGhGXHqLTQcQA+KAjDadnBsggMennjrSSDggRfXBFTDqRnhjAJ+wVmo40hc4IETPoFK7vBQgARsqJSac40jI6JkT00GVx6WR6XYCAUSht5kiP0kkhogf+w/Yx9LQAASYuHelI8+mwEDENljrSEfSsACFhmjTMkSY6UjsdGCKmoO07Jtq+hB4VIITYs7mOlEdnhohJGI9J36cHBQg5U6VBNkOXIzXTsSFiLzY50jW2z6DnBIgQedKOMWkSnRwidnNz3yTbR9BTAkSYuDSaZQFE/GK63/YJ9IwAWULX5UIXOFIVHSBiVloVk8bZvoAeESALmSFtEpfu5pZBxKxxrW3ztu3TAwKAXRbY1ZFeoXNEjLSv2LZOjwcAGxCTjnakWXSUiJGyKE86ih4OAHql69jg+Y60kI4TMdQutG2ZY30AkBTF0uCYdLEjVdKRIobKStt2bRumJwOA/swIDI1JlznSUjpWxEC71LbVUmkIPRcApI2u+wV+60jVdLSIgTvSdxV5+wHA66WBkY40wZFq6HgRfdW2wQkzpRH0TACQMew5Yke60ZFq6YgRM6ptczdylh8AfMV+fXTtESijY0b01LK4NJ4vfgAIFF3phU9xpOl01IhpdXpcOpm0vQAQeHKlgx3pZUfqpPNGTEnbdl62bYkeBQBCR760myPd33XPOJ06Yt/atnI/KXsBIBI40pZdGwaX08EjdqttGzd+Lm1BjwEAkaMru+CpjvQOywOIbht42+6dIWsfAGTT8sBOjnS7Iy0hEGCWaev87bYN0BMAQNbSdfnQCY70L0fqIDhgRO2ISa/Zus7lPAAAX2GGtL0j3eRIiwgYGBFtXb6xQNqOFg4A0Af2vHNcOsaRnnWkBoIIhkxbZ5+1ddhIA2jRAAApYC84iUsnxaRJjtRIcMGA2mjrqK2rXMoDAJBmHGm4I41xpJfILYABObP/UledHE4LBQDIAPZWwph0hiNNcaQWghFmSFvXXrZ1z9ZBWiIAgI/YW9Hi0lhHetGR6ghSmGZtnXrR1jFu4AMACCj2iFVMOiQu3eFIcYIXpqhj65CtSxzbAwAIIbnS1jHpnLj0giPVENiwB2tsHbF1ZYb0dVoOAECEsMcL86SDHOm2uJRLOuLsTsPbVQdutXWCq3YBALKIfGnTuHRsV0riDzlmGO1jel3v+Paud/41WgAAALg40kZ50v6OdIUjTeaegtDn27fv8Iqud7oRNRwAABLCSDn2wpa49EtHesCRChypleAaOFu73s0D9l3Zd2bfHTUYAADSOkuQK+0Vk850pLsc6XVHqiAIZ8yKrjK/y74D+y74ugcAAN8olDaLS6Pj0viY9LAjTeceg/7l049J02xZ2jK1ZWvLmJoGAACBx14E03XD4aFdiYpuikuPdW1GW+BI7Vkc4Nu7yuDDrjK5qauMDrVlxiU6AAAQWWyCmTxpx5h0eFw6zx5Ji0tPO9I7XUmM7FWya0IY3Nd0Pbv9N7zT9W+y/7bz7L/V/ptJrgMAAND3QGGovU8+T/pennRUXDrNkS51pJsd6V5Het6RXolLbzrSB470iSN93rUxbrYjlTlSpSNVOdKqrktsOrps6vr/VXX9N2Vdf6ag6++wf9cHXX/3K12/dW/Xb19qn8U+k302+4z2WXljAMHn/wHCO+dRHPdiuwAAAABJRU5ErkJggg==;" vertex="1" parent="103">
                    <mxGeometry x="65" y="62" width="73.5" height="73.5" as="geometry"/>
                </mxCell>
                <mxCell id="46" value="&lt;font style=&quot;font-size: 18px&quot;&gt;Rails&lt;/font&gt;" style="text;html=1;strokeColor=none;fillColor=none;align=center;verticalAlign=middle;whiteSpace=wrap;rounded=0;labelBackgroundColor=none;fontColor=#000000;" vertex="1" parent="103">
                    <mxGeometry x="78.96000000000004" y="142" width="40" height="20" as="geometry"/>
                </mxCell>
                <mxCell id="76" value="&lt;font style=&quot;font-size: 18px&quot;&gt;Fargate&lt;br&gt;&lt;/font&gt;" style="text;html=1;strokeColor=none;fillColor=none;align=center;verticalAlign=middle;whiteSpace=wrap;rounded=0;labelBackgroundColor=none;fontColor=#000000;" vertex="1" parent="103">
                    <mxGeometry x="72" y="17" width="40" height="20" as="geometry"/>
                </mxCell>
                <mxCell id="106" value="" style="group" vertex="1" connectable="0" parent="1">
                    <mxGeometry x="476.93" y="393" width="197.07" height="203" as="geometry"/>
                </mxCell>
                <mxCell id="100" value="" style="rounded=0;whiteSpace=wrap;html=1;labelBackgroundColor=none;fillColor=none;strokeColor=#000000;" vertex="1" parent="106">
                    <mxGeometry x="3.069999999999993" y="4" width="194" height="199" as="geometry"/>
                </mxCell>
                <mxCell id="16" value="" style="outlineConnect=0;fontColor=#232F3E;gradientColor=#F78E04;gradientDirection=north;fillColor=#D05C17;strokeColor=#ffffff;dashed=0;verticalLabelPosition=bottom;verticalAlign=top;align=center;html=1;fontSize=12;fontStyle=0;aspect=fixed;shape=mxgraph.aws4.resourceIcon;resIcon=mxgraph.aws4.fargate;" vertex="1" parent="106">
                    <mxGeometry width="50" height="50" as="geometry"/>
                </mxCell>
                <mxCell id="20" value="" style="shape=image;verticalLabelPosition=bottom;labelBackgroundColor=#ffffff;verticalAlign=top;aspect=fixed;imageAspect=0;image=data:image/svg+xml,PHN2ZyB4bWxucz0iaHR0cDovL3d3dy53My5vcmcvMjAwMC9zdmciIGhlaWdodD0iMjUwMCIgdmlld0JveD0iMTc1LjcgNzggNDkwLjYgNDM2LjkiIHdpZHRoPSIyMTk0Ij48ZyBmaWxsPSIjNjFkYWZiIj48cGF0aCBkPSJtNjY2LjMgMjk2LjVjMC0zMi41LTQwLjctNjMuMy0xMDMuMS04Mi40IDE0LjQtNjMuNiA4LTExNC4yLTIwLjItMTMwLjQtNi41LTMuOC0xNC4xLTUuNi0yMi40LTUuNnYyMi4zYzQuNiAwIDguMy45IDExLjQgMi42IDEzLjYgNy44IDE5LjUgMzcuNSAxNC45IDc1LjctMS4xIDkuNC0yLjkgMTkuMy01LjEgMjkuNC0xOS42LTQuOC00MS04LjUtNjMuNS0xMC45LTEzLjUtMTguNS0yNy41LTM1LjMtNDEuNi01MCAzMi42LTMwLjMgNjMuMi00Ni45IDg0LTQ2Ljl2LTIyLjNjLTI3LjUgMC02My41IDE5LjYtOTkuOSA1My42LTM2LjQtMzMuOC03Mi40LTUzLjItOTkuOS01My4ydjIyLjNjMjAuNyAwIDUxLjQgMTYuNSA4NCA0Ni42LTE0IDE0LjctMjggMzEuNC00MS4zIDQ5LjktMjIuNiAyLjQtNDQgNi4xLTYzLjYgMTEtMi4zLTEwLTQtMTkuNy01LjItMjktNC43LTM4LjIgMS4xLTY3LjkgMTQuNi03NS44IDMtMS44IDYuOS0yLjYgMTEuNS0yLjZ2LTIyLjNjLTguNCAwLTE2IDEuOC0yMi42IDUuNi0yOC4xIDE2LjItMzQuNCA2Ni43LTE5LjkgMTMwLjEtNjIuMiAxOS4yLTEwMi43IDQ5LjktMTAyLjcgODIuMyAwIDMyLjUgNDAuNyA2My4zIDEwMy4xIDgyLjQtMTQuNCA2My42LTggMTE0LjIgMjAuMiAxMzAuNCA2LjUgMy44IDE0LjEgNS42IDIyLjUgNS42IDI3LjUgMCA2My41LTE5LjYgOTkuOS01My42IDM2LjQgMzMuOCA3Mi40IDUzLjIgOTkuOSA1My4yIDguNCAwIDE2LTEuOCAyMi42LTUuNiAyOC4xLTE2LjIgMzQuNC02Ni43IDE5LjktMTMwLjEgNjItMTkuMSAxMDIuNS00OS45IDEwMi41LTgyLjN6bS0xMzAuMi02Ni43Yy0zLjcgMTIuOS04LjMgMjYuMi0xMy41IDM5LjUtNC4xLTgtOC40LTE2LTEzLjEtMjQtNC42LTgtOS41LTE1LjgtMTQuNC0yMy40IDE0LjIgMi4xIDI3LjkgNC43IDQxIDcuOXptLTQ1LjggMTA2LjVjLTcuOCAxMy41LTE1LjggMjYuMy0yNC4xIDM4LjItMTQuOSAxLjMtMzAgMi00NS4yIDItMTUuMSAwLTMwLjItLjctNDUtMS45LTguMy0xMS45LTE2LjQtMjQuNi0yNC4yLTM4LTcuNi0xMy4xLTE0LjUtMjYuNC0yMC44LTM5LjggNi4yLTEzLjQgMTMuMi0yNi44IDIwLjctMzkuOSA3LjgtMTMuNSAxNS44LTI2LjMgMjQuMS0zOC4yIDE0LjktMS4zIDMwLTIgNDUuMi0yIDE1LjEgMCAzMC4yLjcgNDUgMS45IDguMyAxMS45IDE2LjQgMjQuNiAyNC4yIDM4IDcuNiAxMy4xIDE0LjUgMjYuNCAyMC44IDM5LjgtNi4zIDEzLjQtMTMuMiAyNi44LTIwLjcgMzkuOXptMzIuMy0xM2M1LjQgMTMuNCAxMCAyNi44IDEzLjggMzkuOC0xMy4xIDMuMi0yNi45IDUuOS00MS4yIDggNC45LTcuNyA5LjgtMTUuNiAxNC40LTIzLjcgNC42LTggOC45LTE2LjEgMTMtMjQuMXptLTEwMS40IDEwNi43Yy05LjMtOS42LTE4LjYtMjAuMy0yNy44LTMyIDkgLjQgMTguMi43IDI3LjUuNyA5LjQgMCAxOC43LS4yIDI3LjgtLjctOSAxMS43LTE4LjMgMjIuNC0yNy41IDMyem0tNzQuNC01OC45Yy0xNC4yLTIuMS0yNy45LTQuNy00MS03LjkgMy43LTEyLjkgOC4zLTI2LjIgMTMuNS0zOS41IDQuMSA4IDguNCAxNiAxMy4xIDI0czkuNSAxNS44IDE0LjQgMjMuNHptNzMuOS0yMDguMWM5LjMgOS42IDE4LjYgMjAuMyAyNy44IDMyLTktLjQtMTguMi0uNy0yNy41LS43LTkuNCAwLTE4LjcuMi0yNy44LjcgOS0xMS43IDE4LjMtMjIuNCAyNy41LTMyem0tNzQgNTguOWMtNC45IDcuNy05LjggMTUuNi0xNC40IDIzLjctNC42IDgtOC45IDE2LTEzIDI0LTUuNC0xMy40LTEwLTI2LjgtMTMuOC0zOS44IDEzLjEtMy4xIDI2LjktNS44IDQxLjItNy45em0tOTAuNSAxMjUuMmMtMzUuNC0xNS4xLTU4LjMtMzQuOS01OC4zLTUwLjZzMjIuOS0zNS42IDU4LjMtNTAuNmM4LjYtMy43IDE4LTcgMjcuNy0xMC4xIDUuNyAxOS42IDEzLjIgNDAgMjIuNSA2MC45LTkuMiAyMC44LTE2LjYgNDEuMS0yMi4yIDYwLjYtOS45LTMuMS0xOS4zLTYuNS0yOC0xMC4yem01My44IDE0Mi45Yy0xMy42LTcuOC0xOS41LTM3LjUtMTQuOS03NS43IDEuMS05LjQgMi45LTE5LjMgNS4xLTI5LjQgMTkuNiA0LjggNDEgOC41IDYzLjUgMTAuOSAxMy41IDE4LjUgMjcuNSAzNS4zIDQxLjYgNTAtMzIuNiAzMC4zLTYzLjIgNDYuOS04NCA0Ni45LTQuNS0uMS04LjMtMS0xMS4zLTIuN3ptMjM3LjItNzYuMmM0LjcgMzguMi0xLjEgNjcuOS0xNC42IDc1LjgtMyAxLjgtNi45IDIuNi0xMS41IDIuNi0yMC43IDAtNTEuNC0xNi41LTg0LTQ2LjYgMTQtMTQuNyAyOC0zMS40IDQxLjMtNDkuOSAyMi42LTIuNCA0NC02LjEgNjMuNi0xMSAyLjMgMTAuMSA0LjEgMTkuOCA1LjIgMjkuMXptMzguNS02Ni43Yy04LjYgMy43LTE4IDctMjcuNyAxMC4xLTUuNy0xOS42LTEzLjItNDAtMjIuNS02MC45IDkuMi0yMC44IDE2LjYtNDEuMSAyMi4yLTYwLjYgOS45IDMuMSAxOS4zIDYuNSAyOC4xIDEwLjIgMzUuNCAxNS4xIDU4LjMgMzQuOSA1OC4zIDUwLjYtLjEgMTUuNy0yMyAzNS42LTU4LjQgNTAuNnoiLz48Y2lyY2xlIGN4PSI0MjAuOSIgY3k9IjI5Ni41IiByPSI0NS43Ii8+PC9nPjwvc3ZnPg==;" vertex="1" parent="106">
                    <mxGeometry x="64.75000000000006" y="65" width="66.64" height="76" as="geometry"/>
                </mxCell>
                <mxCell id="44" value="&lt;font style=&quot;font-size: 18px&quot;&gt;React&lt;/font&gt;" style="text;html=1;strokeColor=none;fillColor=none;align=center;verticalAlign=middle;whiteSpace=wrap;rounded=0;labelBackgroundColor=none;fontColor=#000000;" vertex="1" parent="106">
                    <mxGeometry x="78.07" y="140" width="40" height="20" as="geometry"/>
                </mxCell>
                <mxCell id="75" value="&lt;font style=&quot;font-size: 18px&quot;&gt;Fargate&lt;br&gt;&lt;/font&gt;" style="text;html=1;strokeColor=none;fillColor=none;align=center;verticalAlign=middle;whiteSpace=wrap;rounded=0;labelBackgroundColor=none;fontColor=#000000;" vertex="1" parent="106">
                    <mxGeometry x="73.07" y="18.5" width="40" height="20" as="geometry"/>
                </mxCell>
                <mxCell id="120" value="" style="endArrow=classic;html=1;fontColor=#000000;strokeColor=#66B2FF;fillColor=#1ba1e2;strokeWidth=3;" edge="1" parent="106">
                    <mxGeometry width="50" height="50" relative="1" as="geometry">
                        <mxPoint x="-76.93" y="100.79" as="sourcePoint"/>
                        <mxPoint x="45.06999999999999" y="100.79" as="targetPoint"/>
                    </mxGeometry>
                </mxCell>
                <mxCell id="107" value="" style="group" vertex="1" connectable="0" parent="1">
                    <mxGeometry x="1010" y="619.25" width="60" height="100.75" as="geometry"/>
                </mxCell>
                <mxCell id="5" value="" style="outlineConnect=0;dashed=0;verticalLabelPosition=bottom;verticalAlign=top;align=center;html=1;shape=mxgraph.aws3.rds;fillColor=#2E73B8;gradientColor=none;" vertex="1" parent="107">
                    <mxGeometry width="60" height="71" as="geometry"/>
                </mxCell>
                <mxCell id="48" value="&lt;font style=&quot;font-size: 18px&quot;&gt;RDS&lt;/font&gt;" style="text;html=1;strokeColor=none;fillColor=none;align=center;verticalAlign=middle;whiteSpace=wrap;rounded=0;labelBackgroundColor=none;fontColor=#000000;" vertex="1" parent="107">
                    <mxGeometry x="10" y="80.75" width="40" height="20" as="geometry"/>
                </mxCell>
                <mxCell id="108" value="" style="group" vertex="1" connectable="0" parent="1">
                    <mxGeometry x="1007" y="440" width="80" height="113" as="geometry"/>
                </mxCell>
                <mxCell id="11" value="" style="outlineConnect=0;dashed=0;verticalLabelPosition=bottom;verticalAlign=top;align=center;html=1;shape=mxgraph.aws3.s3;fillColor=#E05243;gradientColor=none;" vertex="1" parent="108">
                    <mxGeometry width="80" height="93" as="geometry"/>
                </mxCell>
                <mxCell id="47" value="&lt;font style=&quot;font-size: 18px&quot;&gt;S3&lt;/font&gt;&lt;span style=&quot;font-family: monospace; font-size: 0px;&quot;&gt;%3CmxGraphModel%3E%3Croot%3E%3CmxCell%20id%3D%220%22%2F%3E%3CmxCell%20id%3D%221%22%20parent%3D%220%22%2F%3E%3CmxCell%20id%3D%222%22%20value%3D%22%26lt%3Bfont%20style%3D%26quot%3Bfont-size%3A%2018px%26quot%3B%26gt%3BReact%26lt%3B%2Ffont%26gt%3B%22%20style%3D%22text%3Bhtml%3D1%3BstrokeColor%3Dnone%3BfillColor%3Dnone%3Balign%3Dcenter%3BverticalAlign%3Dmiddle%3BwhiteSpace%3Dwrap%3Brounded%3D0%3BlabelBackgroundColor%3Dnone%3B%22%20vertex%3D%221%22%20parent%3D%221%22%3E%3CmxGeometry%20x%3D%22545%22%20y%3D%22493%22%20width%3D%2240%22%20height%3D%2220%22%20as%3D%22geometry%22%2F%3E%3C%2FmxCell%3E%3C%2Froot%3E%3C%2FmxGraphModel%3E&lt;/span&gt;" style="text;html=1;strokeColor=none;fillColor=none;align=center;verticalAlign=middle;whiteSpace=wrap;rounded=0;labelBackgroundColor=none;fontColor=#000000;" vertex="1" parent="108">
                    <mxGeometry x="20" y="93" width="40" height="20" as="geometry"/>
                </mxCell>
                <mxCell id="109" value="" style="group" vertex="1" connectable="0" parent="1">
                    <mxGeometry x="769" y="191" width="70" height="103.75" as="geometry"/>
                </mxCell>
                <mxCell id="14" value="" style="outlineConnect=0;dashed=0;verticalLabelPosition=bottom;verticalAlign=top;align=center;html=1;shape=mxgraph.aws3.ecr;fillColor=#F58534;gradientColor=none;" vertex="1" parent="109">
                    <mxGeometry width="70" height="72" as="geometry"/>
                </mxCell>
                <mxCell id="63" value="&lt;font style=&quot;font-size: 18px&quot;&gt;ECR&lt;/font&gt;" style="text;html=1;strokeColor=none;fillColor=none;align=center;verticalAlign=middle;whiteSpace=wrap;rounded=0;labelBackgroundColor=none;fontColor=#000000;" vertex="1" parent="109">
                    <mxGeometry x="15" y="83.75" width="40" height="20" as="geometry"/>
                </mxCell>
                <mxCell id="110" value="" style="group" vertex="1" connectable="0" parent="1">
                    <mxGeometry x="763" y="13" width="73.91568627450977" height="92" as="geometry"/>
                </mxCell>
                <mxCell id="22" value="" style="shape=image;verticalLabelPosition=bottom;labelBackgroundColor=#ffffff;verticalAlign=top;aspect=fixed;imageAspect=0;image=data:image/png,iVBORw0KGgoAAAANSUhEUgAABwgAAAcJCAYAAADjz0YjAAAACXBIWXMAAC4jAAAuIwF4pT92AAAgAElEQVR42uzdzVFcWcKu7UdvnDlM1pqCB/BZAG2BaAugLBCvBeKzQLQFSlnQlAWVskDIgoOmOydgAWewNwVSCYmf/Nk/1xWRIVWpK6L7iQ5FVd251npze3sbAAAAAAAAYBr+xwQAAAAAAAAwHQIhAAAAAAAATIhACAAAAAAAABMiEAIAAAAAAMCECIQAAAAAAAAwIQIhAAAAAAAATIhACAAAAAAAABMiEAIAAAAAAMCECIQAAAAAAAAwIf/HBAAAAL9XS91Psv2TX9rtPo/53a//aD/J1pr+Z31+xn/2OsnlL379qvv8Q7No5v4fBAAA0B9vbm9vrQAAAIxSLXU7bXC78+MfJ8nhT/7SA+ut3Ne00fGh+Q9/fJXvo+NVs2iuTAcAAPA6AiEAANB7Pwl9hw9+/uPJPnFvOh5Gxh9POF4++DVhEQAA4AGBEAAA2Igfruw87H58GAK3k+xZiiX7lvtTiVcPfv53UHQlKgAAMHYCIQAAsFS11MPup7u5f3vv4Z/bsRIDcZP7U4l3AfHhScXLZtFcmwkAABgagRAAAHiyB/Hv7se7U4BO+zFld6cSH8bDefejiAgAAPSOQAgAACRJaqm7uT/1t5v76z7FP3i9u4h497mLidfNork0DwAAsE4CIQAATEQt9WHw28/3MdC1n7BZd9eZXv34aRbNlXkAAIBlEggBAGBEHpwCvAuBh90vHVgHBu1rHpw6THuFqdOHAADAiwiEAAAwMA9OAj6MgK4Bhem6u770YTx08hAAAHiUQAgAAD1VSz3M/XWgdzHQSUDgOe5OHs5zf2Xp3CwAADBtAiEAAGxYFwJ3u8/dz70JCKzS3ZuHd+8eXia5bBbNtWkAAGD8BEIAAFgTIRAYAOEQAAAmQCAEAIAlq6Xup41/+xECgXF4GA4v46pSAAAYNIEQAABeqJZ69z7gYe6D4J5lgAn5lu/D4WWzaK7MAgAA/SYQAgDAE9RSd9MGwLsguJ9kyzIA//DjacPLZtFcmgUAAPpDIAQAgB90V4Q+/BxYBeDVPuf7dw3nJgEAgM0QCAEAmDQxEGCjvub7k4ZzkwAAwOoJhAAATEZ3TehhxECAPruLhvO4nhQAAFZCIAQAYJRqqdu5j4F3P3ozEGCYPuf7aHhlEgAAeDmBEACAUailHub7GLhjFYDRukkXC3MfDa/NAgAATyMQAgAwON1VoQ9joKtCAXh4NencKUMAAHicQAgAQO/VUh/GwMM4HQjA7313yrBZNHOTAABASyAEAKB3uutC7z7eDgRgWR6+ZTh3LSkAAFMlEAIAsFG11O18HwNdFwrAunzN96cMr0wCAMAUCIQAAKzVD0HwMMmeVQDoiW/pThdGMAQAYMQEQgAAVkoQBGDABEMAAEZJIAQAYKkEQQBGTDAEAGAUBEIAAF5FEARgwh4Gw4tm0VybBACAIRAIAQB4tlrqYe6D4IFFACBJ8jXfnzAUDAEA6CWBEACA36ql7uc+CL61CAA8yefcx8K5OQAA6AuBEACAf+iuDT3KfRTcsQoAvMpNvr+O9MokAABsikAIAECSv68NvYuC3hEEgNX6luQiriMFAGADBEIAgImqpe6mjYF3UXDLKgCwMZ/TBcNm0VyaAwCAVRIIAQAmxClBABiEb+muIo3ThQAArIBACAAwYk4JAsAo3J0u9HYhAABLIRACAIxMLXU/bRA8ilOCADA2f79d2CyaC3MAAPASAiEAwAjUUu+C4GGSHYsAwCTc5P4q0gtXkQIA8FQCIQDAAP1wdehbiwAASb4mmaU9XXhpDgAAHiMQAgAMRHd16GGSk7g6FAD4tburSC+aRTM3BwAADwmEAAA91kXBk7QnBV0dCgC8xE3uY6F3CwEAEAgBAPrmwXuCR0m2LAIALNmf8W4hAMCkCYQAABtWS93O/XuCoiAAsE5iIQDABAmEAAAb0EXBuyD41iIAQA98TTJLGwuvzAEAMF4CIQDAmoiCAMCAiIUAACMmEAIArJAoCACMgFgIADAyAiEAwJKJggDAiImFAAAjIBACACyBKAgATJBYCAAwUAIhAMAr1FLvouCxNQCACfszyUXaWHhtDgCAfhMIAQCe6UEUPEqyZREAgO+IhQAAPScQAgA8QS11P8lJ9xEFAQCe5lPaUHhhCgCA/hAIAQAeUUvdTXKa9qTgjkUAAF7sJu2pwvNm0VyaAwBgswRCAIAHaqnbuT8puGcRAICl+5b7WHhlDgCA9RMIAQCS1FJP0p4UfGsNAIC1+ZpklmTmvUIAgPURCAGAyaqlHqY9KXgU7woCAGzan2nfK5yZAgBgtQRCAGBSuncFT7qPdwUBAPrHe4UAACsmEAIAo9e9K3iUNgoeWAQAYDC+JTlPe7LwyhwAAMshEAIAo+UKUQCAUXEFKQDAkgiEAMCouEIUAGD0XEEKAPBKAiEAMAq11JO0JwXfWgMAYDK+JpklmTWL5tocAABPIxACAIPVnRY8TXta0BWiAADT9iltKJybAgDg1wRCAGBQaqnbaU8KnibZswgAAD/4lvtThVfmAAD4J4EQABiEWup+2ih4FKcFAQB4mj/ThsILUwAA3BMIAYDecloQAIAlcaoQAOABgRAA6B2nBQEAWCGnCgGAyRMIAYDeqKWexGlBAADW4+5U4XmzaK7NAQBMiUAIAGxULXU3bRQ8idOCAABsxqe0pwrnpgAApkAgBAA2opZ697bggTUAAOiJb0nOklw4VQgAjJlACACsTS11O/enBXcsAgBAT90kuUhy1iyaK3MAAGMjEAIAK1dLPUwbBY+tAQDAwHxOe/3ozBQAwFgIhADAytRST9KeGNyzBgAAA/ctySzJuetHAYChEwgBgKWqpe6mPS14mmTLIgAAjNCntKHw0hQAwBAJhADAUrhGFACACXL9KAAwSAIhAPAqrhEFAADXjwIAwyIQAgDPVkvdThsFT5LsWAQAAJIkN0kukpw1i+bKHABAXwmEAMCTde8LnsU1ogAA8Duf04bCuSkAgL4RCAGA3+reFzxLcmANAAB4lm9pQ+HMFABAXwiEAMCjuvcFz+IaUQAAeK2bJOfxTiEA0AMCIQDwnQfvC54m2bIIAAAs3ad4pxAA2CCBEABI8t37gkcRBgEAYB3+THuicG4KAGCdBEIAmLjufcGTJMfWAACAjficZOadQgBgXQRCAJioLgyeJTmwBgAA9MK3tFePzkwBAKySQAgAE1NLPUkbBnesAQAAvXST5Dzt9aPX5gAAlk0gBIAJqKVup31b8CzCIAAADMVdKJw1i+bKHADAsgiEADBiXRg87T5bFgEAgMH6lPb60StTAACvJRACwAgJgwAAMFpCIQDwagIhAIxILXU37TWix9YAAIBR+5w2FM5NAQA8l0AIACMgDAIAwGQJhQDAswmEADBgwiAAANARCgGAJxMIAWCAaqmHad8XfGsNAADggW9pQ+HMFADAYwRCABiQLgyeJTmwBgAA8AtCIQDwKIEQAAZAGAQAAF5IKAQA/kEgBIAeEwYBAIAlEQoBgL8JhADQQ8IgAACwIkIhACAQAkCfCIMAAMCaCIUAMGECIQD0gDAIAABsiFAIABMkEALABgmDAABATwiFADAhAiEAbIAwCAAA9JRQCAATIBACwBrVUnfThsFjawAAAD32Nclps2jmpgCA8REIAWANhEEAAGCgPqc9UTg3BQCMh0AIACskDAIAACMhFALAiAiEALACtdTtJKdJ3lsDAAAYkc9JTppFc2UKABgugRAAluhBGDxNsmURAABgpD6lPVF4ZQoAGB6BEACWpJZ6FmEQAACYlk9JTptFc20KABgOgRAAXqmWepL2ncEdawAAABN0k+Q8yblQCADDIBACwAvVUg+TzCIMAgAAJF0obBbNmSkAoN8EQgB4pi4MniU5sAYAAMA/fEv7PuHMFADQTwIhADxRLXU37bU5b60BAADwW9+SnDSLZm4KAOgXgRAAfqOWup02DB5bAwAA4Nk+pz1RODcFAPSDQAgAj+jC4Gn32bIIAADAq3xKGwqvTAEAmyUQAsBP1FJP0p4aFAYBAACW6/9Pct4smmtTAMBmCIQA8EAt9TDJLMmONQAAAFbmJu1pwnNTAMD6CYQAkKSWup/2xOCBNQAAANbmW5LTZtFcmAIA1kcgBGDSuncGz5McWwMAAGBjPqc9UTg3BQCsnkAIwCR1YfC0+3hnEAAAoB8+pQ2FV6YAgNURCAGYnFrqSZKzeGcQAACgj27S3vRy3iyaa3MAwPIJhABMRi31MG0Y9M4gAABA/31Le5pwZgoAWC6BEIDRq6Xupg2D3hkEAAAYHu8TAsCSCYQAjJZ3BgEAAEbF+4QAsCQCIQCjVEs9SvtmhXcGAQAAxsP7hACwBAIhAKNSS93v/mHRO4MAAADj9S3JabNoLkwBAM8nEAIwCt11omdJ3lkDAABgMj6nDYWXpgCApxMIARi8Wupp2jjonUEAAIBp+k/a9wldOwoATyAQAjBYtdTDtNeJ7lkDAABg8m7SniacmQIAfk0gBGBwuutEz5McWwMAAIAffE0bCuemAICfEwgBGBTXiQIAAPBEn9KGQteOAsAPBEIABsF1ogAAALzATdq3Cc9NAQD3BEIAes11ogAAACyBa0cB4AGBEIDecp0oAAAAS+baUQCIQAhAD7lOFAAAgBW6SRsJZ6YAYKoEQgB6o7tO9CzJO2sAAACwYp/ThsJLUwAwNQIhAL1QSz1Je2rQdaIAAACs03+SnLl2FIApEQgB2Kha6m6SWZIDawAAALAh39KeJrwwBQBTIBACsBHddaKnSd5bAwAAgJ74M20ovDIFAGMmEAKwdrXUw7SnBnesAQAAQM/cpL1y9NwUAIyVQAjA2nSnBmdJ3loDAACAnvua5KRZNJemAGBsBEIA1qKWepLkPMmWNQAAABiQ/6Q9UXhtCgDGQiAEYKVqqbtpTw0eWAMAAICB+pb2bcILUwAwBgIhACtTSz1L8t4SAAAAjMSfaa8ddZoQgEETCAFYulrqYdrrRPesAQAAwMjcpL1y9NwUAAyVQAjA0tRSt5OcJXlnDQAAAEbuc9rThFemAGBo/scEACxDd2rwMuIgAAAA03CQ5P92z2sAwKA4QQjAq3SnBmdJ3loDAACAifqa9jThpSkAGAInCAF4sVrqUZKriIMAAABM216SL04TAjAUThAC8GxODQIAAMCjvqU9TTg3BQB9JRAC8Cy11JMk50m2rAEAAACP+k+Ss2bRXJsCgL4RCAF4klrqbtpTgwfWAAAAgCdxmhCAXvIGIQC/VUs9TXIZcRAAAACeYyfJX7XU8+65DgDoBScIAXiUU4MAAACwNE4TAtAbThAC8FNODQIAAMBSOU0IQG84QQjAd5waBAAAgJVzmhCAjXKCEIC/OTUIAAAAa+E0IQAb5QQhAOn+YWSW5K01AAAAYK2cJgRg7QRCgImrpR6ljYNb1gAAAICN+U+Ss2bRXJsCgFUTCAEmyqlBAAAA6J2vaU8TXpoCgFXyBiHABHWnBq8iDgIAAECf7CX5Uks9MwUAq+QEIcCEdKcGz5K8swYAAAD0mtOEAKyMQAgwEbXUw7RXiu5YAwAAAAbjf5tFc24GAJZJIASYgFrqeZwaBAAAgKH6nPY04ZUpAFgGgRBgxGqp+2lPDe5ZAwAAAAbtJm0kvDAFAK8lEAKMVC31NMkHSwAAAMCo/Jk2FF6bAoCXEggBRqaWupv21OCBNQAAAGCUvqWNhHNTAPAS/2MCgPGopR4luYw4CAAAAGO2k+SvWuq5KQB4CScIAUaglrqd5DzJsTUAAABgUr6mPU14aQoAnsoJQoCBq6Xupz01KA4CAADA9OwlmddST00BwFM5QQgwYLXUsyTvLQEAAAAk+ZzkqFk016YA4FcEQoABqqXuJpnFW4MAAADA927SRsK5KQB4jCtGAQamlnqU9kpRcRAAAAD40VaSv2qp56YA4DFOEAIMRC11O8l5vDUIAAAAPM3XJCfNork0BQAPOUEIMAC11P0k84iDAAAAwNPtJZnXUk9MAcBDThAC9Fwt9TTJB0sAAAAAr/Bn2tOE16YAQCAE6KnuStFZkrfWAAAAAJbgW5IjV44C4IpRgB6qpR4muYo4CAAAACzPTpIvtdQzUwBMmxOEAD3T/U36e0sAAAAAK/Q57WlCV44CTJBACNAT3ZWiF0kOrAEAAACswU3aSDg3BcC0uGIUoAceXCkqDgIAAADrspXkL1eOAkyPE4QAG+ZKUQAAAKAHXDkKMCECIcCG1FJ3014pumcNAAAAoAdcOQowEa4YBdiA7krRy4iDAAAAQH+4chRgIpwgBFgzV4oCAAAAA+DKUYAREwgB1qSWup32StEDawAAAAAD4MpRgJFyxSjAGnRXil5FHAQAAACGw5WjACPlBCHAirlSFAAAABgBV44CjIhACLAi3ZWisyRvrQEAAACMwLe0kfDSFADD5opRgBWope4nuYw4CAAAAIzHTpIvtdRTUwAMmxOEAEtWSz1J8tESAAAAwIh9SnLqylGAYRIIAZaku1L0PMmxNQAAAIAJ+JrkxJWjAMMjEAIsQS11N8lFkj1rAAAAABNykzYSXpgCYDi8QQjwSrXUo7TvDYqDAAAAwNRsJflvLfXcFADD4QQhwCvUUs+SvLcEAAAAQD4nOfIuIUD/CYQAL9C9N3iR5MAaAAAAAH+7SXLoXUKAfnPFKMAz1VL3014pKg4CAAAAfG8ryZda6okpAPpLIAR4hu5vbudJdqwBAAAA8KiPtdSZGQD6yRWjAE/UPbb9zhIAAAAAT/Y17ZWj3iUE6BGBEOA3vDcIAAAA8Co3SY6aRTM3BUA/uGIU4Be8NwgAAADwaltJ/vIuIUB/CIQAj/DeIAAAAMBSeZcQoCdcMQrwE94bBAAAAFgZ7xICbJhACPCA9wYBAAAA1uImbSS8NAXA+rliFKDTvTc4jzgIAAAAsGpbSb54lxBgMwRCgCS11KO0cXDPGgAAAABr87F76gWANXLFKDB5tdTTJB8sAQAAALAxn5MceZcQYD0EQmCyuvcGz5McWwMAAABg474mOfEuIcDqCYTAJHVxcB5XigIAAAD0yU3aSHhhCoDV8QYhMDm11P0kVxEHAQAAAPpmK8l/uydhAFgRgRCYlFrqSdqTg1vWAAAAAOitD7XUmRkAVsMVo8Bk1FLPkry3BAAAAMBgfE1y2Cyaa1MALI9ACIxe997geZJjawAAAAAMzrckR82iuTQFwHIIhMCodXFwHu8NAgAAAAzZTZKTZtFcmALg9bxBCIxWLXU/yVXEQQAAAICh20ry31rqiSkAXk8gBEaplnqU9uTgljUAAAAARuNjLXVmBoDXccUoMDq11NMkHywBAAAAMFqf075LeG0KgOcTCIFR6b5BdmwJAAAAgNH7mjYSXpkC4HkEQmAUaqnbSS6SHFgDAAAAYDJukhw2i+bSFABP5w1CYPBqqbtp3xsUBwEAAACmZSvJvJZ6YgqAp3OCEBi0Wup+2ji4ZQ0AAACASfvfZtGcmwHg95wgBAar+2bYPOIgAAAAAMmHWurMDAC/5wQhMEhdHPxoCQAAAAB+8DnJUbNork0B8HMCITA43TfBji0BAAAAwCO+JjkUCQF+TiAEBqOWup3kPOIgAAAAAL93kzYSXpoC4HsCITAIXRycJ9mzBgAAAABPdJP2utG5KQDu/Y8JgL6rpe5HHAQAAADg+baS/FVLPTEFwD2BEOg1cRAAAACAJfhYSz0zA0BLIAR6q/tm1zztN70AAAAA4DXe11JnZgDwBiHQU10c/GgJAAAAAJbszyQnzaK5NgUwVQIh0Du11PMk7ywBAAAAwIp8TXIoEgJT5YpRoFe6ax7EQQAAAABWaS/JvJa6bwpgipwgBHqhlrqdZJbkrTUAAAAAWJObtCcJL00BTIlACGxcFwfnab+5BQAAAADrdJPkqFk0c1MAU+GKUWCjaqm7EQcBAAAA2JytJH/VUk9MAUyFE4TAxnR3vM+7vwkDAAAAgE37o1k0MzMAY+cEIbAR4iAAAAAAPfSxljozAzB2AiGwdt11DV8iDgIAAADQP8ciITB2rhgF1qqLgx8tAQAAAEDPfUpy2iyaa1MAYyMQAmtTSz1N8sESAAAAAAzE1ySHIiEwNgIhsBbdtQzHlgAAAABgYERCYHS8QQisnDgIAAAAwIDtJZnXUvdNAYyFE4TASomDAAAAAIzETdqThJemAIZOIARWopa6nWSe9htWAAAAADAGIiEwCq4YBZZOHAQAAABgpLbiulFgBARCYKnEQQAAAABGbivJl1rqiSmAoRIIgaXpvjk1jzgIAAAAwPh9FAmBofIGIbAUD+LgljUAAAAAmJA/mkUzMwMwJE4QAq8mDgIAAAAwYU4SAoMjEAKvIg4CAAAAQD7WUmdmAIZCIAReTBwEAAAAgL8di4TAUAiEwIt01yZ8iTgIAAAAAHdEQmAQBELg2bo4+NESAAAAAPAPIiHQewIh8CziIAAAAAD8lkgI9Nqb29tbKwBPIg4CAAAAwLN8TnLULJprUwB9IhACTyIOAgAAAMCLfE1yKBICfeKKUeC3xEEAAAAAeLG9JPNa6rYpgL4QCIFfqqWeRhwEAAAAgNcQCYFeccUo8KjuIeVjSwAAAADAUrhuFOgFJwiBnxIHAQAAAGDpnCQEekEgBP5BHAQAAACAlREJgY0TCIHviIMAAAAAsHIiIbBRAiHwN3EQAAAAANZGJAQ2RiAEkoiDAAAAALABIiGwEQIhIA4CAAAAwOaIhMDaCYQwceIgAAAAAGycSAislUAIEyYOAgAAAEBviITA2giEMFHiIAAAAAD0jkgIrIVACBMkDgIAAABAb4mEwMoJhDAx4iAAAAAA9J5ICKyUQAgTIg4CAAAAwGCIhMDKCIQwEeIgAAAAAAyOSAishEAIEyAOAgAAAMBgiYTA0gmEMHK11LOIgwAAAAAwZCIhsFRvbm9vrQAjVUs9SfLREgAAAAAwCl+THDaL5toUwGs4QQgjJQ4CAAAAwOg4SQgshUAIIyQOAgAAAMBoiYTAqwmEMDLiIAAAAACM3l6SCzMALyUQwoiIgwAAAAAwGQe11JkZgJcQCGEkxEEAAAAAmJxjkRB4iTe3t7dWgIGrpR4l+a8lAAAAAGCSPjWL5sQMwFMJhDBwtdT9JPMkW9YAAAAAgMkSCYEnc8UoDJg4CAAAAAB0XDcKPJlACAMlDgIAAAAAPziupZ6aAfgdV4zCAImDAAAAAMAv/NEsmpkZgMcIhDAwtdTtJFcRBwEAAACAx4mEwKNcMQoD0sXBecRBAAAAAODXPtZST8wA/IwThDAQD+LgnjUAAAAAgCf6V7No5mYAHnKCEAZAHAQAAAAAXuiilrpvBuAhgRCGYRZxEAAAAAB4vq0kc5EQeEgghJ6rpc6SvLUEAAAAAPBCIiHwHYEQeqyLg8eWAAAAAABeaSvJrHvOCJg4gRB6qpZ6FnEQAAAAAFievbQnCUVCmLg3t7e3VoCeqaWeJPloCQAAAABgBb4mOWwWzbUpYJqcIISeEQcBAAAAgBXbSzIzA0yXE4TQI7XUwyR/WQIAAAAAWINPzaI5MQNMjxOE0BO11P0kF5YAAAAAANbkuJY6MwNMj0AIPdDFwXmSLWsAAAAAAGt03D17BEyIK0Zhw2qp20kuk+xYAwAAAADYkD+aRTMzA0yDQAgb1MXBedpHgQEAAAAANulfzaKZmwHGzxWjsFnziIMAAAAAQD9cdM8hASMnEMKGdI//ioMAAAAAQF9sJZmLhDB+AiFsQBcHjy0BAAAAAPTMVpJZ9zwSMFICIaxZLfU04iAAAAAA0F97aU8SioQwUgIhrFEt9STJB0sAAAAAAD23l2RmBhinN7e3t1aANeju7f5iCQAAAABgQD41i+bEDDAuThDCGnRxcG4JAAAAAGBgjmupZ2aAcXGCEFasu6f7Ku3jvgAAAAAAQ/RHs2hmZoBxcIIQVqiLg/OIgwAAAADAsH2spR6aAcZBIITVukj7mC8AAAAAwNBddM8pAQMnEMKK1FJnSQ4sAQAAAACMxFaSeXdzGjBgAiGsQPdo77ElAAAAAICREQlhBARCWLJa6kmS95YAAAAAAEZqL+3zSsBAvbm9vbUCLEl3//YXSwAAAAAAE/CpWTQnZoDhcYIQlqSLg3NLAAAAAAATcVxLPTUDDI8ThLAE3X3bl0l2rAEAAAAATMwfzaKZmQGGQyCEV+ri4DztvdsAAAAAAFP0/zWL5tIMMAyuGIXXO484CAAAAABM27x7hgkYAIEQXqGWepbk2BIAAAAAwMRtJZl1N64BPScQwgvVUk+SvLcEAAAAAECS9qa1CzNA/3mDEF6gOyr/xRIAAAAAAP/wqVk0J2aA/nKCEJ6plrqbZG4JAAAAAICfOq6lnpoB+ssJQniG7v7sedqj8gAAAAAAPO7fzaJx5Sj0kBOE8DwXEQcBAAAAAJ5i1j3XBPSMQAhPVEudJTmwBAAAAADAk2wluehuZgN6RCCEJ6ilniQ5tgQAAAAAwLPspH22CegRgRB+o5Z6mOSjJQAAAAAAXmSvu6EN6AmBEH6hux/bI7oAAAAAAK9zXEs9NQP0w5vb21srwE9092LPk+xZAwAAAABgKf7dLBqHMmDDnCCEx80iDgIAAAAALNOsu7kN2CCBEH6ilnqe5K0lAAAAAACWaivJRXeDG7AhAiH8oJZ6kuSdJQAAAAAAVmIniWtGYYO8QQgPdEfbv1gCAAAAAGDlPjWL5sQMsH4CIXS6I+1XaY+4AwAAAACwen80i2ZmBlgvV4zCvXnEQQAAAACAdfrY3ewGrJFACElqqbMke5YAAAAAAFi7eS111wywPgIhk1dLPU1ybAkAAAAAgI3YSnLRPQMFrIFAyKTVUg+TfLAEAAAAAMBG7SU5NwOsh0DIZHVH1i8sAQAAAADQC8fdjW/Air25vb21ApPTHVWfx7uDAAAAAMQ3MFoAACAASURBVAB9869m0czNAKvjBCFTdR5xEAAAAACgjy66G+CAFREImZzuiPqxJQAAAAAAemkrbSTcNgWshkDIpNRSD5N8sAQAAAAAQK/tpb0JDlgBbxAyGd23Ta7SfvsEAAAAAID++99m0QiFsGROEDIl84iDAAAAAABD8qGWum8GWC6BkEmopc7SHkkHAAAAAGBY5t4jhOUSCBm9WupJkmNLAAAAAAAM0lbaG+KAJREIGbXu6Ln7qQEAAAAAhm2vlurf9cKSvLm9vbUCo9QdOb9MsmMNAAAAAIBR+KNZNDMzwOs4QciYXUQcBAAAAAAYk/Pu5jjgFQRCRqmWepbkwBIAAAAAAKOylWTW3SAHvJBAyOjUUg+TvLcEAAAAAMAo7SWZmQFeTiBkVGqpu2mvFgUAAAAAYLze1lJPzQAvIxAyNhdpj5gDAAAAADBuH7ob5YBnEggZjVrqedqj5QAAAAAATMOF9wjh+QRCRqGWepLknSUAAAAAACZlK56dgmcTCBm8Wup+knNLAAAAAABM0kEt9cwM8HRvbm9vrcBgdUfH53G1KAAAAADA1P2rWTRzM8DvOUHI0Hl3EAAAAACApH2PcNcM8HsCIYPVvTt4bAkAAAAAAOI9QngygZBB8u4gAAAAAAA/sVdL9e+O4Te8QcjgeHcQAAAAAIDf+HezaJwmhEc4QcgQeXcQAAAAAIBfmXmPEB4nEDIo3h0EAAAAAOAJvEcIvyAQMhjeHQQAAAAA4Bm8RwiP8AYhg+DdQQAAAAAAXuhfzaKZmwHuOUHIUHh3EAAAAACAl7joDqEAHYGQ3qulHsW7gwAAAAAAvIz3COEHAiG9VkvdTTKzBAAAAAAAr3BQSz0zA7QEQvruIu23OwAAAAAA4DXe11IPzQACIT1WS/XuIAAAAAAAyzTzHiEIhPRU9y2Od5YAAAAAAGCJduJZKxAI6Z/u2xsejAUAAAAAYBXe1lJPzcCUCYT0kXcHAQAAAABYpbNa6r4ZmCqBkF7pvrVxYAkAAAAAAFZoK94jZMIEQnqj+7bGB0sAAAAAALAGe0nOzMAUvbm9vbUCG9d9S2Pe/YYMAAAAAADr8u9m0VyYgSlxgpC+OI84CAAAAADA+rlqlMkRCNm4WupRkmNLAAAAAACwAVtJnCBkUgRCNqqWuptkZgkAAAAAADbooJZ6agamQiBk02Zpv50BAAAAAACb9KGWum8GpkAgZGO6b2McWAIAAAAAgJ7wHiGTIBCyEd23MD5YAgAAAACAHtlLcmYGxu7N7e2tFVir7tsX8+43WgAAAAAA6Jt/N4vmwgyMlROEbMJZxEEAAAAAAPrLVaOMmkDIWtVSD5O8swQAAAAAAD22lWRmBsZKIGRtum9bOJINAAAAAMAQvK2lnpqBMRIIWadZ2m9dAAAAAADAEJzVUnfNwNgIhKxFLfUoyVtLAAAAAAAwIK4aZZQEQlau+3aF30ABAAAAABiig1rqmRkYE4GQdZjF1aIAAAAAAAzX+1rqvhkYC4GQleoecD2wBAAAAAAAAzczAWMhELIy3bcpziwBAAAAAMAI7NVSz83AGAiErNIsrhYFAAAAAGA83tVSD83A0AmErET3YOueJQAAAAAAGJlZLXXbDAyZQMjSdVeLvrcEAAAAAAAjtBPPazFwAiGrMDMBAAAAAAAj5qpRBk0gZKlcLQoAAAAAwES4apTBEghZGleLAgAAAAAwIa4aZbAEQpZpZgIAAAAAACbkXS31yAwMjUDIUrhaFAAAAACAiXLVKIMjEPJqrhYFAAAAAGDCtuKGPQZGIGQZ/MYHAAAAAMCUvXXVKEMiEPIqrhYFAAAAAIAkrhplQARCXszVogAAAAAA8DdXjTIYAiGv4Tc6AAAAAAC497aWemgG+k4g5EVcLQoAAAAAAD/lqlF6TyDk2VwtCgAAAAAAj9pJcmYG+kwg5CVmJgAAAAAAgEe9c9UofSYQ8iyuFgUAAAAAgCdx1Si9JRDyZK4WBQAAAACAJ3PVKL0lEPIc5yYAAAAAAIAnc9UovSQQ8iS11NMkB5YAAAAAAIBncfiG3hEI+a1a6m4cgwYAAAAAgJfYq6WemYE+EQh5ilmSLTMAAAAAAMCLvK+l7puBvhAI+aVa6lFcLQoAAAAAAK/lqlF6QyDkUbXU7bSnBwEAAAAAgNc5qKWemoE+EAj5lVlcLQoAAAAAAMtyVkvdNQObJhDyU7XUwyRvLQEAAAAAAEuzFTf30QMCIf/galEAAAAAAFiZg1rqkRnYJIGQnzlNsmMGAAAAAABYiVl3WAc2QiDkO7XU/STvLQEAAAAAACuzleTMDGyKQMiPZiYAAAAAAICVe1dLPTQDmyAQ8rda6mmSPUsAAAAAAMBazEzAJgiEJElqqbtxnBkAAAAAANZpp5Z6ZgbWTSDkznnaO48BAAAAAID1ed8d4oG1EQhJLfUoyVtLAAAAAADARsxMwDq9ub29tcKE1VK3k1wm2bEGAAAAAABszL+bRXNhBtbBCUJOIw4CAAAAAMCmzbpDPbByThBOWC11P8kXSwAAwMp9/smfu+o+j5mv8L/PfpLH/sXDdvfrP/trvFsOAACr9Z9m0ZyagVUTCCesljpPcmAJAAB4kq9JrrufX+U+7l2nvbb//7F3L8dxXOm2gJcYdw6cQe4pqi0g2gKWLCDaAhYtEGSBihYItECABRe0QEULGrBAwHTn4BIW6A4qeUhJfOBRj3x8XwRDUp+Ig6pVGUTuWvnv/dGH2tarCawnZklmn/1Pn//330tG6w4AALi/H2tbV2JgmxSEE1WaskjymyQAAJi4u3wq966yLvs+L/xualtvxLSxdcjnxeEsnwrF+Wf/myMQAACYuuva1mMxsE0Kwukuym9ieyAAACawsM6nwu/zfyr++r9m+fiFyPxv/zSNCADAFPxc23omBrZFQTjNxfZZkp8kAQDACHycALzp/vxvEVjb+kE8o17XzLt/nefTlqazmEAEAGA8a52ZdQ3boiCc5iL6d0kAADAw7/O3EtCZHHxj3XOcdWk4z6etTI9jFxUAAIblorZ1IQa2QUE4vYXyVZLnkgAAoKfe59MU4Cq2AmWz66GPk4Yfpw0//rviEACAvvrRw5Fsg4JwWovh0yS/SgIAgB64zqetQVdRBLLftdKXikNnHQIA0Iu1U23rsRjYNAXhtBa8N/FkLAAAu/dxKvAq6yJwJRIGso76vDCcx7QhAAD78aa2dSkGNklBOJ2F7XmSV5IAAGDLPi8Dr2pbr0TCyNZWs3yaNpxHaQgAwPbdJTm26wqbpCCcxgJ2nuR3SQAAsGEftwldRRnItNdcs/y1MLQ9KQAAm3ZR27oQA5uiIJzGYvUqyXNJAADwBHfpisAkK9uEwnfXYZ8XhvMkR1IBAOCJfrQWY1MUhONflJ4m+VUSAAA80G3WheAqpgNhE2uzWT6VhfN4iBMAgIe7rm09FgOboCAc9wL0MMlNnIcBAMA9Fpr564TgjUhg6+u1eT6VhrYlBQDgPn6ubT0TA0+lIBz3gvMsyU+SAADgC26TXKabEqxt/SAS2Psabp51WXgSE4YAAHzZXZKZNRxPpSAc78LyOMl/JQEAQOfzLUNNCEL/13QfJww//lEYAgDw0UVt60IMPIWCcLyLyVVsUQMAMGV3+Wsh6AxBGPYab5a/FoZHUgEAmLQfa1tXYuCxFITjXDgukvwmCQCAyfl4juClhSKMft338ezCk3g4FABgit7Xts7FwGMpCMe3SDxMchVPkwIATMHHKcHL2DYUpr4OnGddFs6tBwEAJuN1beu5GHgMBeH4FobLJL9IAgBgtG6zLgRNCQJfWxd+nC5cxNmFAABjdpdkVtv6QRQ8lIJwXIvAWZI/JAEAMDrXSc6zLgVvxAE8YJ14mPVk4UmSlxIBABidN7WtSzHwUArCcS38Li34AABG410+TQp6GhTY1LrxY1l4kuRAIgAAo/AvD5PyUArC8Szy5kl+lwQAwGDdpTtLMEpBYDfryI9nFp7EuYUAAEP2rrb1RAw8hIJwPAu7qzhbAgBgaD6Wgpe1rZfiAPa4pjzO+sxCZSEAwDD96Jx6HkJBOI6F3CLJb5IAABgEpSDQ9zWmshAAYHhua1tnYuC+FITDX7gdJrmJsyMAAPruXZJzpSAwsDXnx7JwYd0JANB7P9e2nomB+1AQDn+xtkzyiyQAAHrpXT5NCzpTEBj6+vMk66nCkygLAQD66C7JzPqT+1AQDntxNkvyhyQAAHrlOsl51tOCFmXAWNeji6yLwpfSAADolTe1rUsx8D0KwmEvyC4txgAAeuE260nBs9rWG3EAE1qXHmZdFJ4meS4RAIBe+Je1Kd+jIBzuImye5HdJAADszV3WpeB5betKHIB1apllXRSeJDmSCADA3ryrbT0RA9+iIBzuwmuV5IUkAAB27n3WW4g6VxDg62vWj2cVvpIGAMBe/OhhVr5FQTjMhdYiyW+SAADYGVuIAjxu/XqYZNH9sQUpAMDuXNe2HouBr1EQDnNxdRXbtQAA7MK7rLcQvRQFwJPXs8f5tAXpgUQAALbudW3ruRj4EgXh8BZUyyS/SAIAYGtus95C9Ny0IMBW1rWHWZeEpzFVCACw7fXtseMx+BIF4fAWUTfxpCUAwDaYFgTY/TrXVCEAwHa9qW1dioG/UxAOa+F0Hge8AwBs0l3W04LOFgTY73r341ThMo7UAADY9Lp3ZoqQv1MQDmexNEvyhyQAADbiOutS8FwUAL1b/86znip8KQ0AgI24qG1diIHPKQiHs0BaJXkhCQCApy2Kst5GdCUKgN6vg2dJFlmXhbYfBQB4mn/ZOYfPKQiHsSiaJ/ldEgAAj3KX5CzrYtBiCGCY6+JFbD8KAPAU72pbT8TARwrCYSyEVjE9CADwULdJlrYRBRjV+nge248CADzWj3bU4SMFYf8XP4skv0kCAODe3mddDFr0AIx3rTzLeqLwJLYfBQC493q5tnUuBhIF4RAWPTexhQoAwH1cZF0M3ogCYDJr5sOsJwqdUwgAcD+v7bRDoiDs+0LnNMmvkgAA+CrnCwLwcQ29iHMKAQC+57a2dSYGFIT9XdgcJrmJJyABAL64oElynuSstvWDOAD4bD29SLJI8kIaAABfZIoQBWGPFzTLJL9IAgDgL26z3kbUQgaA762r51lPFCoKAQD+6i7JzAO306Yg7OcixvQgAMBfXWc9LXguCgAeuMaeZz1R+EoaAAD/601t61IM06Ug7Ofi5dzCBQAgSfI+64nBlSgAeOJae5b1RKH1NgCAKcLJUxD2c8HyhyQAgIlTDAKwzXX3MopCAIC3ta2nYpgmBWH/FirnFikAwIQpBgHY1fp7FkUhAMC/altvxDA9CsJ+LU6Ok/xXEgDABCkGAdjXWnwWRSEAMF0Xta0LMUyPgrBfi5JVkheSAAAmRDEIQF/W5LMoCgGAaTJFOEEKwv4sROZJfpcEADARikEA+ro+n0VRCABMbI1e2zoXw7QoCPuzAFnF9CAAMH63SRaKQQAGsE6fRVEIAEzHj9bq06Ig7MeiYx7TgwDAuN1mPTF4LgoABrZmP05yFg/1AgDjZopwYhSE/VhsXCV5LgkAYIQUgwCMZe0+z3qiUFEIAIyVKcIJeSaCvS8wFlEOAgDjc5fkTZJj5SAAY1Dbuuqeqv9P1g/AAACMzVIE02GCcM9KU26SHEkCABiRN0nOals/iAKAEa/nF1l/iWZNDwCMiSnCiVAQ7n8x8ZskAICRuMh6O9EbUQAwkXX9YZLT7s+BRACAEbitbZ2JYfwUhPtdSNzEk4YAwPC9z7oYXIkCgImu7w+TnCV5JQ0AYAReOy5k/BSE+1s8LGJ6EAAYttskp7Wtl6IAgKQ0ZZbkPMkLaQAAQ17vmyIcPwXh/hYNNzE9CAAM013WE4NnogCAL67551lPFD6XBgAwUKYIR+6ZCPayUDiNchAAGKa3SWbKQQD4utrWVW3rcZLXWT9YAwAwNEsRjJsJwh3rziW4icPLAYBheZ9kUdt6IwoAePD3AKdJfpEGADAwpghHzATh7p1GOQgADMdtkv/Uts6VgwDwcLWtH2pbl0n+lfUDNwAAQ7EUwXiZINwh04MAwIDcJTnrvtAEADakO5/wPI4eAQCGwRThSJkg3C3TgwDAELxLcqwcBIDN684nnCV5E+cTAgD9txTBOJkg3BHTgwDAANxmfc7gShQAsH2lKbMkZ0leSgMA6DFThCNkgnB3TA8CAH11l+RNbetMOQgAu1PbelPbepLkx6wf1AEA6KOlCMbHBOEOmB4EAHrsXZLT2tYbUQDAfpWmLJP8IgkAoIdMEY6MCcLdMD0IAPTNbZL/1LaeKAcBoB+683//leS9NACAnlmKYFxMEG6Z6UEAoIfeJDmrbf0gCgDop9KUkyTn8X0CANAfpghHxATh9pkeBAD64jrJv2tbl8pBAOi32tbLJLMkb6UBAPTEUgTjYYJwi0wPAgA9cZdkWdt6JgoAGJ7SlHnW04RH0gAA9swU4UiYINwu04MAwL69T3KsHASA4aptXdW2zrLeJhwAYJ+WIhgHE4RbYnoQANizuySLbnsyAGAkSlOOk5wleSENAGBPTBGOgAnC7VlEOQgA7Me7JDPlIACMT23rVW3rPMnPWT8QBACwa0sRDJ8Jwi0pTbmJswEAgN0yNQgAE1KaMsv6bELThADArpkiHDgThNu5QV9EOQgA7NbbmBoEgEmpbb0xTQgA7MlSBMNmgnALTA8CADt0m/XU4EoUADBdpgkBgD0wRThgJgg3f0O+iHIQANiNd0mOlYMAgGlCAGAPliIYLhOEG2Z6EADYAWcNAgBfZZoQANghU4QDZYJwszfgiygHAYDtehdnDQIA3/C3aUIAgG1aiGCYTBBukOlBAGCLTA0CAA9WmnKc9TThc2kAAFvyo+NPhscE4eZuuOdRDgIA2/E+67MGlYMAwIPUtl7Vth4neSMNAGBLliIYHhOEG1Kasoq9/QGAzfu5tvVMDADAU3UPN5/HA84AwOaZIhwYE4Sbu8FWDgIAm3Sd5N/KQQBgU7ov7Y6TXEgDANiwpQiGxQThBpgeBAA27G1t66kYAIBtKU05yXqa8EAaAMCG/Ku29UYMw2CC8Ok31MdRDgIAm3GX9ZYcykEAYKu6s42Psz7rGABgE5YiGA4F4dP5Ag8A2IT3SWb26wcAdqW29aa2dZ7kjTQAgA14VZoyE8Mw2GL0CboL/Q9JAABP9LOzBgGAfep2SLpMciQNAOAJLmpbF2LoPxOET7MUAQDwBLdJ/q0cBAD2rbb1KustR99JAwB4glelKYdi6D8F4SN104OvJAEAPNK7JMfdl3EAAHtX2/qhtvUkyc/SAACewNFsA6AgfLyFCACAR7hL8rq29aS29YM4AIC+6XY3+HeSa2kAAI9waoqw/xSEj9Bd2BpwAOChrpPMa1vPRQEA9Fm3y8E8yYU0AIAHOogOpfcUhI9z2l3gAAD3dZF1OWhLUQBgELotRxdJXksDAHighQj6TUHowgYAtu/n2taFLUUBgCHqdj/4d5JbaQAA93RUmrIQQ38pCB+ou6CPJAEA3MNtkn935/gAAAxWtwvCcZJ30gAA7mkpgv764c8//5TCA5Sm3ERBCAB83/skJ6YGAYCxKU05TfKrJACAe/ixtnUlhv4xQfiwG+B5lIMAwPe9qW2dKwcBgDHqdkf4McmdNACA71iKoJ8UhC5kAGBz7pL8p7bVPQMAMGrdJMAsybU0AIBveFGaciyG/lEQ3lN3Ab+QBADwFddJjmtbL0UBAExBbeuH2tbjJBfSAAC+4VQE/aMgdAEDAE93kWRe23ojCgBgampbF0leSwIA+IpXpSkzMfSLgvAeugv3lSQAgC/4ubZ14bxBAGDKalvPk/w7ziUEAL7MEFbPKAjvZyECAOBv7pL8WNt6JgoAgKS29SrOJQQAvmxRmnIohv5QEH5Hd8FqtgGAz308b3AlCgCAT5xLCAB8xUEMY/WKgvD7TroLFwAgSd7FeYMAAN/kXEIA4AsMY/WIgvD7liIAADpvaltPnDcIAPB93bmEP8a5hADA2lFpykIM/aAg/IbSlJMkR5IAgMm7S/K6tnUpCgCA++u2ZD+OcwkBgLWFCPpBQfhtxl0BgLustxQ9FwUAwMN1W7PPs96qHQCYthelKXMx7J+C8CtKU46TvJAEAEzadZJZbeuVKAAAHq+29UNt60mSC2kAwOQtRLB/CsKvMz0IANP2LuvJQecNAgBsSG3rIslrSQDApL0qTZmJYb8UhF9QmnKY5JUkAGCyLmpbT5SDAACb123d/mPWW7kDANO0EMF+KQi/zPQgAEzX6+7JdgAAtqS2dZX1uYS30gCASdLD7JmC0IUJAKzdJflP90Q7AABb1p3zfJz1uc8AwLQclKYsxLA/CsK/6S7IA0kAwKTcZX3e4KUoAAB2p9vSfZ71+c8AwLQsRbA/CsJ/Mj0IANNynWTWPcEOAMCO1bZ+qG09SXIhDQCYlKPSlLkY9kNB+JnuQnwuCQCYjPdZTw5+EAUAwH5150C/lgQATIqhrT1REP7VQgQAMBkXta3KQQCAHunOg1YSAsB0vCxNmYlh9xSEne4CfCUJAJiEt90T6gAA9ExXEv4763OiAYDxM0W4BwrCTxYiAIBJeF3b6sYTAKDHuvOh51ESAsAULESwewpCFyAATMnr7ol0AAB6risJj5NcSwMARu2gNGUhht1SECbpLrwjSQDAaN0l+VE5CAAwLLWtN1lPEioJAWDc7Pa0YwrCtYUIAGC07pLMa1tXogAAGJ7a1g9Zl4TvpQEAo/W8NGUuht2ZfEFYmnKc5IVLAQBG6TbrcvBKFAAAw1Xb+qG2dZ7kQhoAMFoLEeyOCUJjqwAwVtdJjpWDAADjUdu6iJIQAMbqVWnKoRh2Y9IFYXehnbgMAGB0rrOeHPwgCgCAcelKwreSAIBRMtS1I1OfIDxJcuAyAIBRUQ4CAIxcbetpkteSAIDRWYhgN6ZeEC5dAgAwKu+iHAQAmITa1vMoCQFgbI5KU+z8uAOTLQhLU+ZJjlwCADAaF7WtJ8pBAIDpUBICwCgtRLB9z1xgAMAIXHRn0QAAMDFKQgAYnZelKTMxbNckC8LSlMMkr3z8ADAKykEAgInrSsIfk9xJAwBG4VQE2/XMhQUADJhyEACAJElt6yrJPEpCABiDhQi265kLCwAYKOUgAAB/Udt6FSUhAIzBQWnKQgzbM7mCsDTlJMmRjx4ABk05CADAFykJAWA0FiLYnmcuKABgYH5WDgIA8C1KQgAYhRelKTMxbMekCsLuQnrpYweAwXpd23omBgAAvkdJCACjcCqC7ZjaBOHCRw4Ag/W6tvVcDAAA3JeSEAAGbyGC7VAQAgBDoBwEAOBRlIQAMGgHpSkLMWzeZArC0pSTJEc+cgAYHOUgAABPoiQEgEFbiGDznrmAAIAee6McBABgE5SEADBYL0pTZmLYrEkUhKUph0le+rgBYFAualuXYgAAYFOUhAAwWKci2KypTBAufNQAMCgXta1+fwMAsHFKQgAYpIUINmsqBaFmGQCGQzkIAMBWKQkBYHAOSlNOxLA5oy8IS1PmSY581AAwCMpBAAB2oisJfdEIAMOxEMHmPHPBAAA9oRwEAGCnaltXSV5LAgAG4WVpykwMmzHqgrA05TDJKx8zAPSechAAgL2obT2PkhAAhmIhgs0Y+wShbSIAoP+ulYMAAOyTkhAABmMhgs0Ye0F46iMGgF67TjIXAwAA+6YkBIBBOCpNmYvh6UZbEJamHCd57iMGgN66TjKvbf0gCgAA+qArCd9KAgB6bSGCp3vmAgEA9kA5CABAL9W2nia5kAQA9Nar0pRDMTyNghAA2LW7JCfKQQAA+qo7I1tJCAD9dSKCpxllQViacpLkwMcLAL1zl/Xk4I0oAADos64kfCcJAOilUxE8zVgnCBc+WgDonY/l4JUoAAAYiEXW2+MDAP3yvDRlJobHG11B2O07+9JHCwC9c6ocBABgSLpt8edREgJAH5kifIIxThAufKwA0Duva1vPxQAAwNB8VhLeSQMAesU5hE+gIAQAtu1n5SAAAEOmJASAXjoqTVESPtKoCsLSlOMkz32sANAbF7WtZ2IAAGDouu3y55IAgF5RED7S2CYIFz5SAOiNi9pWv5sBABiNriR8LQkA6I1XpSmHYng4BSEAsA3XcVA0AAAj1G2fryQEgP4wRfgIoykIu31mD3ykALB310nm3TktAAAwOl1JeCEJAOiFhQgebkwThBpiANi/uyQL5SAAAGPXbaevJASA/XtRmjITw8OMoiDs9pd95eMEgL2bd+eyAADAFJxmvYMGALBfCxE8zFgmCE0PAsD+vVYOAgAwJd3OGfMkt9IAgL1aiOBhnvngAYANeNOdwwIAAJPSlYQnWW+3DwDsx1FpyrEY7m/wBWG3r+wLHyUA7M1FbetSDAAATFW3k4YdrgBgv05FcH9jmCB08wUA+3Nd27oQAwAAU1fbukryWhIAsDf6ogcYQ0GoEQaA/bjO+rwVAAAgSbft/ltJAMBeHJSmKAnvadAFYbef7JGPEQB27i7JojtvBQAA6NS2niZ5JwkA2AsF4T0NfYJw4SMEgP3cbHXnrAAAAP+0yHrHDQBgt16VphyK4fuGXhBqggFg937uzlcBAAC+oNtp4yTrnTcAgN3SHd3DYAvC0pR5bC8KALt2Udt6JgYAAPi22tab+IISAPbB7997GPIE4cLHBwA7dV3b6vcvAADcU7fzxmtJAMBOvbTN6PcNuSDUAAPA7twmmYsBAAAeprb1PMmFJABgpxYi+LZBFoSlKSdJDnx8ALATd0lOunNUAACAB+p24riWBADszEIE3zbUCULTgwCwO6e1rVdiAACAJ5lnvTMHALB9z0tTZmL4OgUhAPAtb7stkQAAgCfoduQ4yXqHDgBg+3RJ3zC4grA0ZRHbiwLALryvm777xgAAIABJREFUbT0VAwAAbEa3M4d7bADYjYUIvm6IE4QaXwDYvlu/cwEAYPO6HTouJAEAW2eb0W8YVEFYmnKY5KWPDQC27qTbAgkAANiw2tZFkmtJAMDWeQD+K575IAGAv3ndbX0EAABszzzOIwSAbbO191coCAGAz110Wx4BAABb1O3Y4bsuANiuo9KUYzH802AKQtuLAsDWXcdTVQAAsDO1raskP0sCALZqIYJ/GtIEoSeqAGB77uLcQQAA2Lna1rMk7yQBAFujX/oCBSEAkCSL2tYbMQAAwH7ux5PcigEAtsI2o18wiILQ9qIAsFVva1svxQAAAPvx2XmEd9IAgK1YiOCvhjJBaHoQALbjfW2rcwcBAGDPaluv4kxwANgWPdPfKAgBYLru/I4FAID+qG09T3IhCQDYONuM/k3vC0LbiwLA1px0WxkBAAD9cZrkWgwAsHELEXwyhAlCkw0AsHlvaltXYgAAgH7pHuJbxHmEALBp+qbPKAgBYHqua1uXYgAAgH5yHiEAbIVtRj/T64LQ9qIAsHHOHQQAgAHoziN8JwkA2Ki5CNb6PkHoC0wA2KxFbeuNGAAAYBj370luxQAAG/3dShSEADAlb2tbL8UAAADD0J1H6PsxANic56UpMzH0vyC0vSgAbMZ1kqUYAABgWLrzCN9IAgA2xsM36XFBWJriAwKAzbjLemvRD6IAAIDhqW1dJnkvCQDYiIUI+j1BqCAEgM1Ydk8dAwAAw3WS9cN/AMDT2GY0CkIAGLt3ta1nYgAAgGHrdgRZSAIANmLyHVQvC8Jue9ED1ycAPMldfIEAAACjUdt6meRCEgDwZApCHwwAjJZzBwEAYHxOk9yKAQCe5EVpyuGUA+hrQTh3bQLAk7ztni4GAABGpHsI0MP1APB0k/592ruCsDTlOMmR6xIAHu02yVIMAAAwTrWtV0neSAIAnkRB2DML1yQAPO3mxtaiAAAwbrWtyyTXkgCAR3s55Tffx4LQFgkA8HhvuqeJAQCA8VskuRMDADxOacpkO6lnPfsgZrG9KAA81nX3FDEAADAB3cOB1gAA8HgKQh8EAAzeQgQAADAtta1nSd5LAgAeRUHYEwvXIgA8iq1FAQBguhax1SgAPMZBacrxFN94bwrC0pTDJM9diwDwYLYWBQCACattvYmtRgHgsRZTfNN9miC0vSgAPNyd36EAAICtRgHg0Sb53ZqCEACGbdk9LQwAALCIrUYB4KGOSlNmU3vTfSoI565BAHiQ991TwgAAALYaBYDHm9wQWy8KwtKUkyQHrj8AeJBTEQAAAJ+z1SgAPIqCcE/mrj0AeJA3ta1XYgAAAL5gEVuNAsBDvChNOZzSG+5LQej8QQC4v+va1qUYAACAL7HVKAA8yqS6qr0XhKUpx0mOXHcAcG8LEQAAAN9iq1EAeLD5lN7sM4EDwKDYWhQAALivhQgA4N5MEAocAHrp1taiAADAfXVbjb6RBADcy0G36+Uk7LUg7A58fOGaA4B7WYgAAAB4iO4hw2tJAMC9LKbyRvc9QWh6EADu521t60oMAADAI5yKAADuZT6VN/pM0ADQe3dJlmIAAAAeo3vY8K0kAOC7npemzKbwRk0QAkD/LWpbP4gBAAB4gmXWDx8CAN82n8Kb3FtB2B30eOA6A4Bvel/beikGAADgKbqHDheSAIDvmsRw2zMBA0CvWcADAAAb0T18+F4SAPBN8ym8SQUhAPTXm9rWGzEAAAAbtIitRgHgWw5KU+Zjf5N7KQhLUw6TPHeNAcBX3da2LsUAAABsUvcQ4pkkAOCbRj/k9kywANBLCxEAAADb0D2MeCsJAPiq+djf4DPBAkDvvKttXYkBAADYooUIAOCrnpemzMb8BhWEANAvd0lOxQAAAGxT91DiO0kAwFfNx/zmdl4QlqYcJzlyXQHAF511Z4IAAABs22nWDykCAP80H/ObeyZQAOiN2+4sEAAAgK3rHk48kwQAfNHJmN/cM4ECQG8sRAAAAOxS95DirSQA4B8Oul0xR2kfBeEL1xQA/MO77gwQAACAXVuIAAC+aLRDbzstCEtTTA8CwD/dZX32BwAAwM51Dyu+kwQA/MN8rG/smSABYO/OurM/AAAA9sVDiwDwTy9KUw7H+MYUhACwX7dJzsQAAADsU/fQ4htJAMA/zMf4pnZWEJamzJI8dx0BwF8sa1s/iAEAAOiBs6yPQAAAPpmP8U09EyAA7M372tZzMQAAAH3QPbxoq1EA+Kv5GN+UghAA9mcpAgAAoE+6hxivJQEA/+t5t0vmqCgIAWA/LmpbV2IAAAB6yBQhAPzVfGxvaCcFYWnKcZIj1w8AJFmf6bEUAwAA0Efdw4zvJAEA/2s+tjf0THAAsHNnta03YgAAAHrMFCEAfDIf2xtSEALAbt0lORMDAADQZ91DjW8lAQBJkqNut8zRUBACwG6d1rZ+EAMAADAAy6wfcgQARtZ1bb0g7BrVA9cNAOS2tvVcDAAAwBB0DzfaAQUA1uZjejPPBAYAO+MMDwAAYFBqW5dJbiUBAArChzpxzQBA3te2XooBAAAYoKUIACAHYzqHcBcF4QvXDABYUAMAAMPUHZVwLQkAGM8U4VYLwtKUuWsFAPKutnUlBgAAYMAcmQAACsJ7O3atAICFNAAAMGzdQ4/vJQHAxM3H8kYUhACwXRe1rTdiAAAARmApAgAmbjTnEG67IJy5VgCwgAYAABi+borwnSQAmLj5GN6ECUIA2J63pgcBAICRcYQCAFM3H8Ob2HZBeOA6AWCi7mJ6EAAAGJnuIcgLSQAwYfMxvIlnPkcA2Iqz2tYPYgAAAEZoKQIAJmwU5xBurSAsTZm7RgCYqLskZ2IAAADGyBQhAAx/ivD/+AwBYONMDwLwYKUpsySzz/6nv//3QxakV0m+9rvoQ/d//9//rm298gkA8EDLJK/EAMBEzTPwAQEFIQBslulBAP7is91VPv5zlk/F33G2c3b7iwe+xs//8333z8+LxI+F45WHYABI1lOEpSkXURICME3zob+BH/78889tLYIPk/w/1wgAE/OmtnUpBoDp6NY+x92fw88Wii9G/Lav86lA/JBkleSm23IOgOn8Dpwl+UMSAEzUv4e8G8vWCsLuJuFP1wcAE3KXZGayAmCc/lYEHmc9BfhCMv9wneQm6/JwFcUhwNh/P57HFCEA0/RzbetgdxJTEALA5pgeBBiJz8rAeT4VgkeSebS7fCoMr7LeqvRGLACj+J05iylCAKbpXW3ryVBf/LYLwhuLaAAmwvQgwICVpnxeBs6tY3b2u3OVrjisbV2JBGCwv0fPY4oQgOm5rW2dDfXFb7sgXMWWOwBMg+lBgAEpTZlnXQTOrVl65X3+Whp68AZgGL9XZzFFCMA0/Wuou6NsuyA8S/KT6wOAkTM9CNBzn00IzpO8lMhgfCwMTRgC9P937XlMEQIwPa9rW8+H+ML/z5b//9+4NgCYgDPlIEC/dGcIzpOcxJahQ/ai+/NLacrHLUkvsy4MrTcB+mUZBSEA0zNPcj7EF77tCcJ5kt9dHwCMmOlBgJ7otjc76f7YNnT8rrMuCy9rW6/EAdCL38XnURICMC2DPYdwqwVhd2Pwp+sDgBFz9iDAHnVbhy6yfmrzuUSmuyjPp7JwJQ6Avf1ensVZhABMz/8McXhgFwXhKp7eBWCcTA8C7MFnpeBJbB3Kl38/X2a9BbjJQoDd/54+jylCAKblP7Wtl0N70c928DMuXRsAjNSlchBgN0pTZqUpp6UpV0n+m+SnKAf5soOsv5j+b2nKTWnKWVcqA7AbSxEAMDHzIb7oXUwQzmJrAQDG6V+1rTdiANjaWuIw6ynBRexKwtNdJznP+gEfv78Btvs7/DLJS0kAMBHva1vnQ3vRWy8Iu5uCqzgPBIBxuahtXYgBYCvrh3k+bSF6IBG24F2S8yFuAwQwoN/lv0sCgKmobf1haK95VwXhaZJfXSIAjIjpQYDNrhkOsy4FT2PrUHbnLuupwjO/1wE2/rt9FTsAADAdP9a2rob0gp/t6OecuzYAGJF3vkQE2IzSlOPSlPMk/y/rhwqVg+zSQdbnWf5RmnJZmnIiEoCNWYoAgAkZ3LnnO5kg7Bb+51kfFA8AQze4J4IA+qY0ZZH1tKCjCOib2yRnWW9B+kEcAE/6fX8TD/8AMA3valsH9cDhLgvC4yT/dY0A4Jc9wDR124iedn+cLUjf3SW5TLK0cwDAo3/3L5L8JgkAJuC2tnU2pBe8s4KwuylYxd7jAAybswcBHr4OmGW9zdhJFIMM00XWE4UrUQA8+D7gJqYIAZiGQX1v+GzHP2/p+gBgwC6UgwD399n5gn9kfdyAcpChepXk99KUVWnKXBwAD3IuAgAmYlDnEO60IOyetrxwjQAwUEsRAHxfacq82z3kv3EOOePyIp+KwoU4AO7lLOttmwFg7OZDerHP9vAzl24KABigN6YHAb7ts2Lw9zhagHF7keS30pQbRSHAt9W2fogpQgCmYVAThDs9g/Cj0pTTJL+6VgAYiNskx93CFoB/3t/Ps34QUCnIlO8VTmtbL0UB8MV7hVnWW44DwKjVtv4wlNe6l4KwuzFYxRcIAAzDj9022QD89Z5+lvVEgPt6WHufZOm+AeCL9w3nsfU4AOP379rWqyG80Gd7/NmL2GoUgP5760s+gL8qTZl1X/L9EeUgfO7zMwrn4gD4i3MRADABg1kH7K0g7M5xWrhWAOix69rWUzEArJWmHJamLLMuBk0AwNd9LArPu0lbgMnrHry8lgQAIzeYcwj3OUGY7nyGt64XAHroLgN64gdg27pzxG+S/CINuLdXSf4oTVmWphyKAyBnIgBg5AZTEO7tDMLP2YMcgJ65SzIfyn7hAFu+V59nvSXYkTTgyfcXy9pWX44DU7+3uHFfAcDI/U9t64e+v8hnfXgRta2L2GIAgP44UQ4CU9edM7hK8nt8iQebcJDk19KUK+cTAhN3LgIARm4QU4TPevRa5lESArB/r7uzMQAm6W/nDL6QCGzc83w6n9C2o8AUmaQGYOzmQ3iRvSkIu3HLeZSEAOzHXdbl4LkogKkqTTlJchXnDMIuvEpy053vCTAZ3XeAF5IAYMQGMUHYizMI/86ZhADsmDMHgUkrTZll/TT/S2nAXlwnWbgXASZ07zHPehtzABij29rWWd9f5LM+vqjuTMI3riEAduA6ykFgwrrppasoB2Gfnif5b2nKmW1HgSnojnWwixgAY3U0hPv6Z319YbWtyyT/yXqqAwC24V2Ug8BElaYcl6askvya5EAi0As/JbnqJmsAxs5ZhACMWe+3GX3W5xdX23qZZJbkvWsJgA36eN7gSXf+BcCklKYsk/w3yQtpQO8cJfndNCEwAZcxGADAeM37/gKf9f0F1rZ+qG2dJ/nZTQMAG/A+yXFt67kogKnppgavkvwiDeg904TAqHUPa1qXATBWJgg3eNNwlvU04VvXFQCPcJvkP7Wt89rWG3EAU9OdNfjfrM86A4bBNCEwdrYZBWCsel8Q/vDnn38OLtXSlFmSZZJXrjEAvuM2ydLEIDBV3b3zeWwnCmO4pzlxdjIwwnuVlfsUAEbqf/p8vNGzISZa23pT27pI8q+sJwptPQrA311nfc7gTDkITFVpykmSq/jSDcbgKMl/uzNEAcbEeg2Aser1FOEgJwj/rttq5aT789I1BzBZt1kfdH/u6Xpgyrr747PYcQPG6n2ShW3TgRHdu3xIciAJAEbmTW3rsq8vbhQF4d9uKD6WhfPuz5FrEGDU3idZJblUCgIkpSnHWT8s4T4Yxu0u65LwUhTACO5fzpL8JAkARuZdbetJX1/c6ArCL9xgzJLMsi4LP/57YpslgCG5y3qLvGRdBn5IclXbuhINwF/ufU+T/CoJmJS3ta2nYgAGfg8zS/KHJAAYmdva1llfX9zoC0IAABi7bheN89huH6bqOsmJLUeBgd/PXCV5LgkARuZ/als/9PGFPfPZAADAcHVbiq6iHIQpe57kqjTlRBTAgJ2JAIAROu7rC1MQAgDAQJWmLLIuBz1tDxwk+b+lKUtRAAN1mfXxEgAwJvO+vjAFIQAADFBpylmS37IuBQA++qU05bLbehhgMLrt1y4lAcDIzPr6whSEAAAwIKUph6UpqyQ/SQP4ipdJVt0WxABDci4CAEamt/fkP/z5558+HgAAGIDuy/7LJEfSAO7hLsmittVEDjCk+50b9zoAjElt6w99fF0mCAEAYABKU06yPm/QF2bAfX08l/BUFMCAnIsAgJGt5+d9fF0KQgAA6P9i4jTJ/43zBoHH+bU05VwMwED4+wqAsZn18UUpCAEAoMe6L/V/lQTwRK9KU1alKYeiAPqstvUmyXtJADAivTyHUEEIAAA9VJpyWJqySvJKGsCGvEiyKk2ZiQLouXMRADAiCkIAAOD7ugmfVdZf5gNs0vMkV6Upx6IAeuxSBACMiIIQAAD4tu5L+6usv8QH2IaDrCcJ56IA+qi29UOSC0kAMJb77z7u4qEgBACAnujKwVWSI2kAW3aQ5PfSlIUogJ4yRQjAmMz69oIUhAAA0APdJM8q6y/tAXblNyUh0Ee1rZdJ7iQBwEjM+/aCFIQAALBn3Zfzv0c5COzHb6UpSzEAPWSKEICxmPXtBSkIAQBgj7py8DdJAHv2S2nKuRiAnjkTAQAjcdy3F6QgBACAPVEOAj3zSkkI9Elt61WSW0kAMALP+/aCFIQAALAHykGgp5SEQN/YZhSAsXwP0KspQgUhAADsflGwiHIQ6C8lIdAn/j4CYCxmfXoxCkIAANgh5SAwEEpCoBdsMwrAiJggBACAKVIOAgOjJAT6wjajAIyBghAAAKZGOQgMlJIQ6AN/DwEwBrM+vRgFIQAAbJlyEBg4JSGwV7YZBWAknvfpxSgIAQBgi5SDwEgoCYF9s80oAINXmtKbbUYVhAAAsL0b/0WUg8B4vCpNWYoB2JNzEQAwArO+vBAFIQAAbEFpyjzKQWB8fukefgDYKduMAjASJggBAGCsui1DbIMFjNVvSkJgT9xfATB0CkIAABijrhxcJTmQBjBiv3WT0gC7dC4CAAZu1pcX8sOff/7p4wAAgA0oTTlMcpXkSBrABNwlmXfb/gHs6n7rxr0WAENW2/pDH16HCUIAANiArhxcxRdWwHQcJFmVpsxEAezQSgQADFlf7p8VhAAAsBnnSZ6LAZiYgySX3UMSALvgHEIAhm7WhxehIAQAgCcqTTlP8lISwEQ9j4keYEdqWy+z3uIYAIZq3ocXoSAEAIAnKE1ZJHklCWDinncPSwDsgilCAIZs1ocXoSAEAIBHKk05SfKbJACSJK9KU07FAOzASgQADNisDy9CQQgAAI9QmnKc9bmDAHzya/fwBMA2mSAEYMiO+/AiFIQAAPBApSmHWZeDB9IA+Ifz7iEKgK2obf2Q5L0kABioXnyXoCAEAICHu0zyXAwAX3SQ5LJ7mAJgm/djADBIpSnzfb8GBSEAADzsJv4syQtJAHzTUXx5D2yXv2MAGLLZvl+AghAAAO6pO1frJ0kA3MuL0pSlGIBtqG29SXIrCQAGarbvF6AgBACAe+jO0zqXBMCD/NI9XAGwDaYIARiqvZ/ZrSAEAIDv6M7ROk9PDhIHGJjz0pSZGIAtWIkAgIHa+3ndCkIAAPi+syTPxQDwKAcx5QNsQW2rv1sAGKoX+34BCkIAAPiG0pRFkleSAHiS56UpZ2IAtuCdCAAYom63or1REAIAwNdv1o+znh4E4Ol+ch4hsAUrEQAwUHs9h1BBCAAAX+DcQYCtcB4hsGm2GQVgqPZ6X6wgBACAL1vGuYMAm+Y8QmCjaltvktxKAoABmu3zhysIAQDgb7ot8H6SBMBWPC9NWYoB2KCVCAAYIFuMAgBAX3y2tSgA2/NLd84rwCaYTAZgiA73+cMVhAAA8FeXce4gwE7+vu0eygB4qpUIABigF/v84QpCAADolKac7vsGHWBCjrI+7xXgSWpbPyS5lgQA3J+CEAAAkpSmzOKLaoBd+6k0ZS4GYANsMwrA4OzzXlhBCAAAa+extSjAPthqFNiElQgAGKC93QcrCAEAmDxbiwLs1UGSMzEAT1HbupICAAN0vK8frCAEAGDSbC0K0AuvbDUKbMB7EQAwMCYIAQBgT85ja1GAXvx9bKtR4IlWIgBgYEwQAgDArpWmLGJrUYC+OIqJbuBpViIAYGD29oDcD3/++af4AQCYnG5K5SamBwH65kdniQFPuMfzZScAg1Lb+sM+fq4JQgAApuo8ykGAPjoTAfAEziEEYFD2tc2+ghAAgCnefM+TvJQEQC89L01ZigF4pJUIABiYvZxDqCAEAGCKzkUA0GunpSkzMQCPsBIBAANjghAAALatm0o5kgRArx3EVqPAIzjDFIABMkEIAADb1E2jnEoCYBBedltCAzyUcwgBGBIThAAAsGVnWU+lADAM5yIAHmElAgAGxAQhAABsSzeF8lISAINyVJpi8ht4qCsRADAgJggBAGCLnGUFMEzL0pRDMQAPsBIBAAPyfB8/VEEIAMDolaYs9nXDDcCTHSRZigG4r9rWD0muJQEAX6cgBABg1Lqpk6UkAAbtp9KUmRiAB7DNKACD0R2LslMKQgAAxu40yZEYAAbPVtHAQ6xEAABfpyAEAGC0uunBU0kAjMLLfTxZDQyWCUIAhuR41z9QQQgAwJidZX12FQDjsBQBcB+1rVdJ7iQBwEAc7voHKggBABil7qyqV5IAGJUXpgiBBzBFCMBQzHb9AxWEAACM1VIEAKN0LgLgnlYiAGAgZrv+gQpCAABGx/QgwKgdlaYsxADcgwlCAIbCFqMAALABSxEA+HsemLyVCAAYiOe7/oEKQgAARsX0IMAkmCIEvqu29UOSW0kAwD8pCAEAGJulCAD8fQ/Qsc0oAINQmjLf5c9TEAIAMKab6VlMDwJMhSlC4D4UhADwBQpCAADGZCkCAH/vA3xmJQIABmK2yx+mIAQAYBRMDwJM0lFpyokYgG8wQQjAUMx2+cMUhAAAjMVSBACTdCoC4GtqWz8kuZUEAPyVghAAgMErTTmM6UGAqXpRmjIXA/ANpggBGIKd3tMqCAEAGAPTIwDTthQB8A0KQgD4GwUhAACD1k0PKggBpu1FdxYtwJesRADAAOz0flZBCPx/9u7mOG4kTQPwJ8beyTkgr6yxgBwLWGNBcy0Q24LmWCC2BcO2oEseUBZM0YIlLdjiNXFY0gLtoaAW1a0f/hSABPJ5IhSzOzEhVL1VIaDwIr8EgKk7jYh9MQBU70IEwDdsRADABBwOebA3Hz9+FDkAAJOVmrQZ+iIagGL9Lbf5XgzAV64Z78NDZQAULrf5zVDHsoIQAIDJSk06DeUgAJ8ZOQ18i30IASheatJyqGMpCAEAmDI3ggF47EwEwDesRQAAnykIAQCYpNSkRUScSAKARw5Tk87EAHzFRgQATMDBUAdSEAIAMFVWDwLwNWciAL5iIwIAJuB4qAMpCAEAmKozEQDwFSfdKnOAP+Q2r6UAAJ8pCAEAmJxufNy+JAD4BqvMga+5FQEAhVsMdSAFIQAAU3QmAgCcJ4Bn2ogAgMIthjqQghAAgEnpxsadSAKA79jvVpsDPHYjAgDYUhACADA1xsYB8BRnIgD+REEIQOkWQx1IQQgAwNSciQCAJzjpVp0DfHIvAgAKdzjUgRSEAABMRmrSaUTsSwKAJzoTAfBJbvNaCgCwpSAEAGBKTkUAwDOciQD4kzsRAFCyoaZgKAgBAJjKBfJBRLyVBADPcJiadCwG4JGNCAAo3GKIgygIAQCYCqsHAXiJcxEAj6xFAAAKQgAApkNBCIDzB/Ba9yIAoHAHQxxEQQgAQPG6+fs/SQKAF9hPTVISAp/ciACAwg0yIl9BCADAFLixC4DzCLALGxEAgIIQAIBpOBMBAK+gIAQiIiK3eSMFAFAQAgBQuG686JEkAHgFY0aBx65FAEDBlkMcREEIAIALYwBqoCAEAICOghAAgNK5oQuA8wmwS2sRAFA7BSEAAMVKTTqIiJ8kAcAO7KcmHYsBiIh7EQBQsMUQB1EQAgBQMqs9ANilMxEAEXEjAgAKdjjEQRSEAACUbCkCAHbIgydARMRGBADUTkEIAEDJ3MgFYJcOU5MWYoC65TZvpABA7RSEAAAUKTVpGRH7kgBgxzx8AkRE3IkAgFJ190R6pSAEAKBUbuAC0IelCIAwZhSAyikIAQAo1VIEAPTgJxEAoSAEoHIKQgAAipOadBARR5IAoKfzjFXqwEYEANRMQQgAQIncuAWgT0sRQPXuRQBAzderCkIAAKq8EAbAeQao2o0IAKiZghAAgBItRQBAj466cdZAvawgBKBqCkIAAIqSmrSIiENJANCzpQigXrnNVhACUDUFIQAApVmKAADnGwAAKnbc9wEUhAAAlGYpAgCcb4ABXIsAgEL1Pg5fQQgAQGmWIgBgAPYhBACgWgpCAACK0d2otf8gAENZigCqthEBALVSEAIAUJKlCAAY0LEIoGobEQBQKwUhAAAlWYoAAOcdAAAqd9L3ARSEAACUxEoOAIZ0IgKo2loEANRKQQgAQEncqAVgUKlJHk4BAKA6CkIAAIrgBi0AI3H+gXptRABArRSEAACUwg1aAJx/gMHkNm+kAECtFIQAAJTCDVoAnH8AACAiUpOWff79CkIAAErhBi0AY7D/LdTtTgQA1EhBCABAKdygBWAU9sGFqm1EAECNFIQAAIzOjVkARrYQAQAANVEQAgBQgoUIABiRB1WgXhsRAFAjBSEAACVwYxaAMS1FANXaiACAGikIAQAogYIQgDEtRAAAQGGWff7lCkIAAEqwEAEAIzoUAVTrXgQA1EhBCABACY5EAMCYUpOsZoc63YgAgBopCAEAGFVq0kIKABTA+QgAgGooCAEAGNtCBAAUwApCAACqoSAEAGBsSxEAUICFCKBKGxEAUCOgnuwbAAAgAElEQVQFIQAAAICCEKqU27yRAgA1UhACADC2pQgAKIARowAAlGTZ51+uIAQAYGwHIgCgAPsiAACgFgpCAADGdiQCAEqQmmQVIdTpQQQA1EZBCAAAALBlVTvU6UYEANRGQQgAwGhSk5ZSAKAgCxEAAFADBSEAAADA1kIEAADUQEEIAMCY7PUEQEmMGAUAoAoKQgAAxuRGLAAl8eAK1OleBADURkEIAMCYFIQAAIztRgQA1EZBCADAmKzUAMB5CQAA/qrXh6oVhAAAAABb+yIAAKAQR33+5QpCAADGZMQoAAAAwMAUhAAAjOlIBACUJDVpIQUAAOZOQQgAAADw2UIEAADMnYIQAAAAAKjZRgQA1EZBCADAKFKTjqUAAEABNiIAoDYKQgAAxnIgAgAK5AEWAABmT0EIAAAA8JkHWAAAmD0FIQAAAAAAAFREQQgAAAAAAAAVURACADCWhQgAAAAAhqcgBABgLAsRAAAAAAxPQQgAAADw2bEIAACYOwUhAAAAwGcHIgAAYO4UhAAAAAAAAFARBSEAAAAAAABUREEIAAAAAAAAFVEQAgAAAAAAQEUUhAAAAAAAAFARBSEAAAAAAABUREEIAAAAAAAAFVEQAgAAAAAAQEUUhAAAAAAAAFARBSEAAAAAAABUREEIAAAA8Nm9CAAAmDsFIQAAAMBnNyIAAGDuFIQAAIxlIwIAAACA4SkIAQAYy0YEAAAAAMNTEAIAAAAAAEBFFIQAAAAAAABQEQUhAAAAwGf3IgAAYO4UhAAAjMUNWABKdCMCAADmTkEIAMAocpvdgAUAoATHIgCgNgpCAAAAAKBmByIAoDYKQgAAAIDPNiIAAGDuFIQAAIzpVgQAlCS3eSMFAADmTkEIAMCY7kUAAAAAMCwFIQAAAMDWnQgAAChEr1OXFIQAAIzpRgQAFGQjAgAACtHr1CUFIQAAs73YBQCAJzgWAQC1URACADAmBSEAJbGyHep0IAIAaqMgBABgTG7EAlASD64AAFAFBSEAAADA1kYEAADUQEEIAMBocpvXUgCgIBsRAABQAwUhAAAAwJYRo1CnYxEAUBsFIQAAY7sVAQAlyG22Ny7UaV8EANRGQQgAwNis1gCgBA8iAACgIL3eL1EQAgAwtrUIACiA1YMAAFRzfaogBABgbFYQAlCCjQigPqlJCykAUCMFIQAAY7NiA4ASbEQAVVqIAIAaKQgBABjbRgQAFMADKwAAVENBCADAqHKbN1IAoADORwAAVENBCABACW5FAMCYcputIIQ6HYsAgBopCAEAKMFGBACMyIMqUK8DEQBQIwUhAAAlsGoDgDFtRAAAQGHWff7lCkIAAEqgIATAeQgYw0IEANRIQQgAQAncmAXAeQgYw0IEANRIQQgAwOhymzdSAGBEzkMAAFRFQQgAQCmuRQDAGHKbrSCEei1EAECNFIQAAJTCzVkAxuABFajboQgAKNR9n3+5ghAAgFIoCAFw/gEAgOh/yoWCEACAUrhBC4DzDzCY1KRjKQBQKwUhAABFsP8TACNx/oF6HYgAgFopCAEAKIl9oAAY0oMHVAAAqJGCEACAkqxFAMCAlINQt6UIAKiVghAAgJK4UQvAkNYiAACgQL1PWFIQAgBQkrUIAHDeAQayEAEAtVIQAgBQjNzm+4i4kwQAA7FyHeq2EAEAtVIQAgBQmrUIABjAbfdgCgAAVEdBCABAadYiAMD5BhjAiQgAKFTvD7IpCAEAKM1aBAA43wAAULHeR+ErCAEAKEpu8ybsQwhA/9YigHqlJh1LAYCaKQgBACjRWgQA9Mj+g8CBCAComYIQAIASXYkAgB6tRQDVs4IQgKopCAEAKNFaBAD0yIMogBWEAJRs3fcBFIQAABSnG/t2KwkAejrPrKUA1VuIAICaKQgBACiV1R0A9OGDCIBQEAJQOQUhAAClUhAC0Ie1CIBQEAJQtvu+D6AgBACgSLnNNxHxIAkAdswDKEBExKEIAChVd0+kVwpCAABK5iYuALt0m9u8EQPULTXpWAoA1E5BCABAyRSEAOzSWgRARByIAIDaKQgBACjZWgQA7NBKBEBEWEEIQMnuhjiIghAAgGLlNt9HxAdJALADd0Ps5QJMghWEAJRsM8RBFIQAAJTOmFEAdmEtAqCzFAEAtVMQAgBQOgUhAM4nwC5ZQQhA9RSEAAAUzZhRAHbgIbdZQQh8ciQCAAq2HuIgCkIAAKbATV0AnEeAV0tNWkgBABSEAABMgxu7ADiPALuwEAEAKAgBAJgAY0YBeIU740WBR45FAEDhboY4iIIQAICpcHMXAOcP4LUORABA4e6HOIiCEACAqXCDF4CXWIkAeGQpAgBQEAIAMBHdmNH3kgDgGe5ym2/EADyyEAEAhdsMcRAFIQAAU2IVIQDPcSkC4E8ORQBAyXKbN0McR0EIAMCULpKvIuJOEgA8kQdLgD+kJi2lAABbCkIAAKbGzV4AnuLDUE9fA5OxEAEAhRvsoWgFIQAAU2NcHABP4YES4M8WIgCgcJuhDqQgBABgUrrVINeSAOA7HnKbV2IA/mQpAgDYUhACADBFKxEA4DwBPNNCBAAUbjPUgRSEAABMTrcq5EESAHyDcdTA1xyKAIDCbYY6kIIQAICpcvMXgK+57sZRA/whNWkpBQD4TEEIAMBUrUQAwFd4gAT4moUIAJiAm6EOpCAEAGCSutUhHyQBwCN3uc1XYgC+4lgEAEzA/VAHUhACADBlVokA4LwAPIWCEAAeefPx40cpAAAwWalJm4g4lARA9R4iYpHbfC8K4CvXjPcRsS8JAEqW2/xmqGNZQQgAwNRdiACAiLhSDgJfk5q0COUgAHxBQQgAwKTlNq9iu2oEgLpdiAD4hoUIAJiAuyEPpiAEAGAO7DkFULf3uc0bMQDfsBQBABMw6PWsghAAgDm4DKsIAWq2EgHwHcciAIAvKQgBAJi8bs+plSQAqnSd27wWA/AdCkIApmDQa1oFIQAAc2HMKECdLkQAfEtq0kFEHEoCAL6kIAQAYBa6vafeSwKgKlYPAj9i9SAAU7EZ8mAKQgAA5uRCBABVWYkA+IGlCACYiM2QB1MQAgAwG1YRAlTlLrd5JQbgB6wgBICvUBACADA3FyIA8O89QEdBCMAkDD06X0EIAMDcLqg3YRUhwNxZPQj8UGrSQUQcSgIA/kpBCADAHF2IAGDWzkUAPMFSBABMxO3QB1QQAgAwO1YRAszadW7zlRiAJzBeFICpuB/6gApCAADm6kIEAP59B6q2FAEAE7EZ+oAKQgAAZqlbRfirJABm5Tq3eS0G4ImsIARgKjZDH1BBCADAnF1GxIMYAGbjQgTAU6QmHUfEviQAmAgjRgEAYFdym+9jWxICMH3vrR4EnsHqQQCm5GboAyoIAQCYtdzmi4i4kwTA5F2IAHiGpQgA4NsUhAAA1OBCBACT9mu3tyzAU1lBCMBkjDEpQ0EIAEANF9qriLiWBMAkPYRx0cAzpCYdRMSRJADg2xSEAADU4kIEAJN03u0pC/BUSxEAMCGjPNCsIAQAoArduI73kgCYlNtuFTjAcyxFAADfpyAEAKAm57EdVQfAdP7dBngu+w8CMCU3YxxUQQgAQDW6EXUXkgCYhPfd6m+A5zoRAQATMso4fQUhAABVyW2+jIhbSQAU7SGsHgReIDVpKQUAJsYKQgAAGIibzgBlu+hWfQM811IEAEyMFYQAADCEbmTdb5IAKNJ1t9ob4CWWIgBgYqwgBACAAV3EdoQdAGWxyht4DfsPAjApY03OUBACAFDzBfiZJACK8mtu840YgJew/yAAE3Q71oEVhAAAVCu3+SoiPkgCoAh3EWG0KPAaSxEAMDGj7butIAQAoHbnYdQoQAnOxhqvBMzGUgQATMxo0zMUhAAAVC23eRPb/QgBGM9vuc1rMQCvZP9BAKbGCkIAABhLbvNlRFxLAmAUd+FBDeCV7D8IwEStxzqwghAAALbOwqhRgFH+/TVaFNiBUxEAwNMpCAEAIP4YNXomCYBBGS0K7MpSBABMzZjXwgpCAAD4fGF+FREfJAEwiNswWhTYgdSkg4g4kgQAEzPqFCMFIQAAfOksjBoFGOTfW6NFgR1ZigCACboZ8+AKQgAAeKS7WW0PG4B+/Su3+UYMwI64dgNgikZ9WE5BCAAAf9LtAfCbJAB6cZ3bfCkGYIeWIgBggqwgBACA0uQ2n8d2fywAduchrPQBdig1aRERh5IAYII2Yx5cQQgAAN92GvYjBNjpv6v2HQR6uF4DgCnajHlwBSEAAHxDbvMmIs4kAbATv3UjnAF2aSkCACZq1BGjbz5+/OgjAACA70hNuoyIXyQB8GK3uc3HYgB6uE5zcxOAScptfjPm8a0gBACAH1+0248Q4OUewgofoAepScaLAjBV12O/AAUhAAA8jf0IAV7476d9B4GeLEUAwESNfn2sIAQAgCfo9iP0lDrA8/zLvoNAj1ybATBVN2O/AAUhAAA8UXeT+1dJADzJh9zmSzEAfUhNWkTEoSQAmKjN2C9AQQgAAM+Q23wRER8kAfBdtxFxJgagR1YPAjBlm7FfgIIQAACe7yy2N78B+KuHsO8g0D8FIQCTVcIYfgUhAAA8/0L+PrY3pR6kAfAXp92+rQC9SE06iIgTSQAwUUXcS1AQAgDAC3Q3v5eSAPjCzyU8DQ3MntWDAEzZTQkvQkEIAAAvlNt8ExE/SwIgIiLe5zavxAAMQEEIwJQpCAEAYOq6m+G/SQKo3Ifc5jMxAANZigCACStir24FIQAAvFJu83lEvJcEUKnbiDgTAzCE1KTTiNiXBAATti7hRSgIAQBgB7qVM7eSACpzFxHL3OZ7UQADMV4UgKnblPAiFIQAALA7y1ASAvV4iIhT5SAwwvUWAExWbvOmhNehIAQAgN1d5N/H9qbVgzSAmXuI7crBG1EAQ0lNOo6IQ0kAMGHXpbwQBSEAAOyQkhCoxLlyEBjBmQgAmLhipm8oCAEAYMe6m+bLUBIC8/RzbvNKDMAI7D8IwNQV85CdghAAAHrQlYRuYgFzoxwERmG8KAAzoSAEAIC5y21eR8TPkgBm4lflIDCiMxEAMAObUl7Im48fP/o4AACgR6lJZxHxuySACXuf23wmBmDE66lNWEEIwMTlNr8p5bVYQQgAAP3/AFiFlYTAdCkHgVEZLwrATNyW9GIUhAAAMAAlITBRykGgBP4dAmAONiW9GAUhAAAMREkITIxyECjFqQgAmIGbkl6MghAAAAakJAQmQjkIFMF4UQBmREEIAAA1UxIChVMOAiXx7xEAc7Ep6cUoCAEAYARKQqBQykGgNMaLAjCX+wBWEAIAAEpCoDj/Ug4CJUlNWobxogDMw3VpL0hBCAAAI+pKwn9GxIM0gBH9nNt8KQagMGciAGAmNqW9IAUhAACMLLd5HRHLUBIC4/i5e1gBoDTGiwIwF5vSXpCCEAAACtDtRbAMJSEwnIeI+G/lIFCi1KTTiNiXBAAzsS7tBSkIAQCgEF1JeBwRt9IAevYQEcvc5itRAIU6EwEAM3JT2gt68/HjRx8LAAAUJDXpILZPFx5JA+jBXUScdg8lAJR6LfR/kgBgJh5ymw9Ke1FWEAIAQGFym+9jO270vTSAHbuNiGPlIFA4ew8CMCdFXnsrCAEAoEC5zfe5zWcR8Zs0gB35ENuxoveiAAp3LgIAZkRBCAAAPE9u83lE/CwJ4JV+y20+VQ4CpUtNWoQx6wDMi4IQAAB4vtzmVUT8IyIepAG8wM/dwwYAU3AmAgBmpsiC8M3Hjx99NAAAMAHdE/VX4al64GkeYjtS1H6DwJSudzYRcSgJAOYit/lNia/LCkIAAJjOj4pNRCxju48YwPfcRsSxchCYktSkZSgHAZjfdXmRFIQAADAhuc33uc2nEfGrNIBveB/blYMbUQATcyYCAGam2Af2FIQAADBBuc0XEfHfYV9C4Ev/ym0+y22+FwUwJalJBxHxVhIAzIyCEAAA2K3c5quIOI6CR5YAg3mIiH/kNl+KApioUxEAMEMKQgAAYPce7Uv4XhpQreuIWNhvEJi4cxEAMEPFXqO/+fjx46yTT006ju1T1YvY3jiJiDjxnQSYnLuI2Dz6s46IG+OzAL649j2LiMuI2JcGVOPXbuQwwJSvYY4j4n8kAcDM3OU2L0p9cbMrCFOTFrEdSbDs/rg5AjBvt7EtC9fdqD2AqnU32FYRcSQNmLWHiDjNbV6LApjB9csq7D8IwPx8yG0udoT2LArCbhPjs+6PGyEA9XqIiKuIWLlZBtQuNekyIn6RBMzSh4g4M0kBmMk1y0Fsp8R4yB+AuSl62sekC8Lu6ejz8IQRAH91FxEXEXHl5hlQq9SkZWwfnHDDDebhISIucpsvRQHM6HrlLCJ+lwQAM/TPkhcxTLIg7G50XIS9BAH4sYfY7sd1qSgEatQ9lb+KiJ+kAZN2G9tVgzeiAGZ2rXITJoIBME9/K/l+5KQKwm5/wYuwYhCA57uL7RP3K1EANeqezr8MqwlhiooeTQTwiuuT44j4H0kAMEN3uc2Lkl/g3oQuGM4j4iaUgwC8zGFE/J6atO4eOAGoSveAxHFEXEsDJuM2Iv6hHARm7FwEAMxU8ZM/ii8IU5MW3aiBf4ennQF4vZOIuOkePAGoSm7zJrd5GRH/iu0IZqBcv+Y2HxspCsxVNwb9VBIAzJSC8JUXCmddiOaQA7BL+xHx79Skq+5HKUBVcpsvw2pCKJVVg0AtTsNiAADma136Cyx2D8LUpMuI+MV3CICe3UXEqafzgVqlJp1GxCrcoIMS2GsQqOkaZBPbrSAAYI7+ltt8X/ILLK4g7FZyrCLiJ98fAAbyENuScC0KoEbdNfhl2O8bxnIdEWe5zRtRAJVceywj4j+SAGCm7nKbF6W/yKJGjHY3JtahHARgWPsR8Z9utDVAdXKb73ObzyLin7FdWQ0M4yEifs5tXioHgcr47QXAnE1iUlkxBeGjctB+gwCM5XclIVCz3OZ195Tjr7EtLoD+/BYRi9zmlSiAmqQmLcLUAgDmTUH4jAsD5SAApVASAtXr9kA7joj30oCdu46If+Q2n5e+JwlAT/zeAmDu1lN4kUXsQZiadBXGigJQjoeIWOY234gCqF23R9BFRJxIA17lLiLOc5uvRAFUfm1xH9ttHgBglnKb30zhdY6+gjA1aRXKQQDKsh8R6270DUDtP2zWuc3LiPg57E8IL/EQEb/mNi+Ug0DtumktykEA5ux2Ki901IKwuygwcxyAEu1HhJt4AJ1un7TjsD8hPMf72O4zeCEKgIiIOBcBADM3mYlkoxWEqUnHEXHpuwJAwY5Sk5yrADq5zfdd0bGIiN8kAt/0PiL+ntt8Zp9BgK1ubPmRJACYOQXhE6zCSAEAyvdL90MWgE5XFJ5HxN9jW4QAW9cR8c+uGNyIA+ALVg8CUIP1VF7om48fPw5+0NSki4h453sCwETcRcSxFQAA37y+X0TERdg+gHpdR8RFbvNaFADfvFb4X0kAMHe5zW+m8loHX0HYXRB4YgiAKTl07gL47g+gTW7zWVhRSH0+rRhcKgcBvutCBABU8vtgMsYYMXoZRosCMD3vuodcAPgGRSGV/fBXDAI8QWrSQUScSgKACkzqt8GgBWG3h9NPviMATNSFCAB+TFHIjL0PxSDAc52HxQIA1OFmSi920D0IU5PWEXHiOwLAhP0jt/lGDADP+h1wENubg24QMlXvY7vH4EYUAM++DtjEdtsGAJi7v0/pN8NgBWG3evA/vh8ATNyH3GbjcQBe9pvg04ixi3CjkPI9xHaLjMvc5ntxALzo3H8WEb9LAoAK3OU2L6b0gocsCFcR8dZ3BIAZ+KexYgCv/n1wGtsVhSaMUJrb2JaCK1EAvPp8vwkPBQFQh8ktKhhkD8LUpEUoBwGYjwsRALxObvNVbvMytvsU/hbb1Vowpk/7Cx4rBwFer3sYSDkIQC3WU3vBewMdxyg2AObkpHv4BYBXym3e5Daf5zYfRMTPsV29BUO5i4h/RcTfcpvPTAgA2KlzEQBQkZupveBBRowaJwDADL3PbT4TA0Avvx8Wsb2peBYR+xJhxx4i4ioiVgpBgN7O5cuI+I8kAKhFbvObqb3m3gvC1KTjiPgfXw8AZujvuc0bMQD0+nviNLZF4U/S4JWuI2IVEVe5zffiAOj1/L0O+wwDUNFvjW4LjUn5rwGOsfTdAGCmLmJ70xqAnuQ2X0XEVWrSQWy3LjgLNxx5utv4XApuxAHQv26xgHM1ADVZT/FFD7GCcO2iAIAZs4oQYGDdCNJPZeGRRPiTu/g8QvRGHACDn6dXEfFWEgBU5L+7h1snZYiC8KPvBgAz9mtu84UYAMbxqCw8DQ8m1uw2tqXglVIQYPTz8v9KAoDK/G2K2xj0WhDakBiACjxExMJeRgDjezSG9DS2Wx3sS2XWPsR2lI/xoQDlnItXYfUgAHW5zW0+nuIL73sPwmPfDQBmbj8izmO7HyEAI+oe1lh1fz49sPipLDSKdPruoisEI2Lt4RyAsnSrB5WDANRmshNMFIQA8HrnqUmXblQClCW3eR3dZvHdTcvloz+HEireQ/f5rWNbCBodClC2CxEAUKH1VF943yNG12EfEADqYC9CgAlJTTqObVH46T8VhuNTCAJM97y6CHsPAlCnv091y4O+C8KNH9oAVMJehAAT9miF4afC0EjS/t3GdhzPOiJuFIIAkz6PrsJ4UQDqc5fbvJjqi+97xKhyEIBa2IsQYMK6Jz5Xj/+7bg/D40d/lIav+OEc2zLwcSHooRqAGbD3IAAVW0/5xf+Xzw8AdsZehAAz8ngPw0+60aTHEbGI7UrDRXgw8rGH+FwEbmJbBK7FAjBrFyIAoFKTnoLS24jR1KSDiPg/3w8AKmMvQoAKdasND+JzefjpzxzLw08l4H18LgI3ikCAKs9/i7D3IAD1+seUt0rosyBcRsR/fD8AqIy9CAH482+jRWzLwk8FYnT/edD93ycFvdzb2BZ/EZ9XT266P/f2CQTgT+e4VRgvCkCdHnKbD6b8BowYBYDdshchAF/o9jfcdP/v1ff+t4/KxMeWO3w5n1b+faL0A+BF7D0IQOXWU38DfRaEVk4AUCt7EQLwIn8qE2fzwxOAWboQAQAVm/zvtL0ef9h6ChWAWn1aRQgAADA7Vg8CgIIQAPi68+5HMwAAwNxciACAij3MYZFc3wXhg+8JAJXa96MZAACYm9Sk47B6EIC6refwJvouCI0ZBaBmb60iBAAAZuZSBABUbj2HN6EgBIB+XYgAAACYg9SkZUScSAKAyq3n8Cb6Lgg3vicAVM4qQgAAYC4uRABA5Wax/2CEFYQAMISVCAAAgClLTToNqwcBYD2XN9JrQZjbvPZdAYA46UbxAAAATJW9BwFAQfgs174vAGAUDwAAME2pSWcRcSgJAFAQPseV7wsAxEn3oxoAAGAyUpMOwgOPABAxo/0HI4YpCNe+MwAQ4Uc1AAAwQedh9SAARMys7+q9IOza1AffGwCIw9SkczEAAABT0K0e9BsGALZmNTFzb6DjrH1vACAiIi66H9kAAAClu4yIfTEAQERYQSg0AHiF/fAELgAAULjUpEVEvJUEAERExF1u82ZOb0hBCADDe9f92AYAACjVSgQA8If13N7QIAVhtw/hne8PAPzhUgQAAECJUpOWEXEiCQD4w3pub2hPeAAwip+6H90AAACl8UAjAHzpam5vSEEIAH50AwAAREREatJZRBxJAgD+cJvbfD+3N6UgBIDxHHU/vgEAAEaXmnQQHmQEgD9bz/FNDVYQ5jZvIuLW9wgAvnDZ/QgHAAAY20VE7IsBAL6wnuOb2hMiAIxqPyLOxQAAAIwpNWkREb9IAgC+lNt8Ncf3pSAEgPG9636MAwAAjGUlAgD4i+u5vrFBC8K5tqwA4Mc4AAAwValJpxFxIgkA+IvZ9lp7Ixzz2vcJAP7iJDVpKQYAAGAElyIAgK9az/WNjVEQWkUIAF+3EgEAADCk1KSLiDiUBAD8xUNu881c39wYBeHadwoAvuqw+3EOAADQu24v9HNJAMBXzXrB2+AFYde23vleAcBXnXc/0gEAAPp2GRH7YgCAr1rP+c3tCRUAirIf9v8AAAB61u2B/pMkAOCbrCDswdr3CgC+6afuxzoAAEBfViIAgG+6zW2+n/MbHKsgvPLdAoDv/1hPTToQAwAAsGvd3ueHkgCAb5p9jzVKQdi1rre+XwDwTYcRcS4GAABgl7o9z99JAgC+az33N7g34rGtIgSA73vX/XgHAADYlZUIAOC7HnKb13N/kwpCAPDjHQAAqEBq0llEnEgCAL5rXcObHK0gzG2+iYgH3zMA+K6T7kc8AADAi3V7nF9KAgB+qIoFbntCBoDiXXY/5gEAAF78uyIi9sUAAD+kIBQyABRhP4waBQAAXig1aRkRbyUBAD90m9t8X8MbHbsgXPuuAcCT/NT9qAcAAHiulQgA4EmqWdg2akHYtbDXvm8A8LQf9UaNAgAAz5GadBERh5IAgCdREAobAIpzGBEXYgAAAJ4iNek4It5JAgCe5CG3+aaWN1tCQbj2nQOAJ/ul+5EPAADwIysRAMCTVbWgbfSCsGtj73zvAMCPfAAAYDdSk84j4kgSAPBkCkKhA0DRjrp9RAAAAP4iNWkRticAgOda1/Rm94QOAJP0zqhRAADgG1YRsS8GAHiyD7nN9zW94SIKwtzmq4h48P0DgGf/6AcAAPhDN1r0RBIA8Czr2t7wnvABYLKMGgUAAP5gtCgAvFh1W+HtCR8AJs2oUQAA4JNVGC0KAM91m9u8qe1NKwgBYB43AQAAgIoZLQoAL7au8U0XUxB2mz9e+x4CwLMZNQoAABUzWhQAXmVV45veK+z1WEUIAC9j1CgAANRrFUaLAsBL3OU239T4xhWEADAfKxEAAEBdumkiRosCwMusa33jRRWE3SaQt76PAPAiR6lJl86VXmgAACAASURBVGIAAIA6dFNE3kkCAF6s2oVrewW+prXvIwC82C+pSUsxAABAFVYiAIAXe8htVhC6sAGA2VilJh2IAQAA5qsbLXokCQB4sXXNb764grDbDPLO9xIAXuwwIowaBQCAmeqmhhgtCgCvc1Xzm9/zoQDALL1NTToVAwAAzEs3LWQlCQB4NQVhgda+lwDwaqvUpIUYAABgXtf5sZ0aAgC83Ifc5vuaAyiyIOw2hXzw/QSAV9kPTxYDAMBsdFNCfpIEALxa9ZMs93w4ADBrJ6lJ52IAAIBp66aDrCQBADuxrj0ABSEAzN+/U5OOxQAAAJN2FdspIQDA69zmNm9qD6HYgtCYUQDYqavUpAMxAADA9KQmXUTEkSQAYCdWIih7BWGEJZ4AsCuHEXEpBgAAmJbUpGVEvJMEAOyMCZZRfkHoQwKA3XmbmnQmBgAAmIZuCshKEgCwM8aLdhSEAFCXy9SkhRgAAGASVrGdBgIA7O7cShReEOY230fEBx8TAOzMfngABwAAipeadB4RP0kCAHbKfbHOng8LAKpzlJpkP0IAAChUatJxRPxbEgCwU8aLPqIgBIA6/ZKadCoGAAAoS7fvoPthALB7KxF8VnxBaMwoAPR3UWQ/QgAAKO86Pew7CAB98ADOI3s+NAColv0IAQCgIPYdBIDeGC/6JwpCAKib/QgBAKAA9h0EgF6tRPClSRSExowCQK9+SU06EwMAAIzDvoMA0Dvn2T/Z8+EBABFx2T2xDAAADG8V9h0EgL4YL/oVCkIAIGK7H+Gqe3IZAAAYSGrSRdh3EAD6tBLBX02mIDRmFAB6dxQR9iMEAICBpCYtI+KdJACgVxagfcWeDxEAeORtatK5GAAAoF+pSYtwrwsA+ma86DcoCAGAP/u3/QgBAKA/3Wj/q9iO+gcA+rMSwddNqiA0ZhQABrO2HyEAAPTmMrYj/gGAfll49g17E3zNKx8bAPRuPyLWYgAAgN1KTTqLiLeSAIDeGS/6HZMrCHObryLiwUcHAL07Sk1aiQEAAHajG+X/uyQAYBArEXzb3kRftyWhADCMt90TzgAAwCt0I/zXkgCAweiSvkNBCAD8yO/dk84AAMALPCoH96UBAIO4Nl70+yZZEBozCgCDW3c3NQAAgOe7jIgjMQDAYFYi+L69Cb92qwgBYDj7oSQEAIBnS006j4i3kgCAQemQfmDKBeGljw8ABnXk/AsAAE+XmrSMiH9LAgAG9SG3+V4M3zfZgjC3+SYi7nyEADCot6lJF2IAAIDv6/bxtnoBAIbn/PsEez5kAOCZ3qUmnYkBAAC+rhvNv4rtqH4AYDgPuc0rMfzY1AtCHzIAjOOyeyIaAAD4q6vYjugHAIY/B/MEky4IuzGjtz5GABjcfkSsuyejAQCATmrSKiJOJAEAo1AQPtHeDN7DyscIAKNQEgIAwCOpSecR8VYSADCKu9xmBeETzaEg9GEDwHiOIuJSDAAA1C416TQi/i0JABiNvugZJl8Q5jZvIuLaRwkAo3mbmqQkBACgWt3+3CtJAMConIufYc+HDgDswC+pSWdiAACgNt3I/XVsR/ADAOO4y22+EcPTzaUgtGwUAMb3e2rSUgwAANRCOQgAxTDd6plmURDmNt9HxHsfJwCM7qobrwQAAFVc/8Z2X24AYPxzMs+w58MHAHZoPyLW3ZPUAAAwW6lJq4g4kQQAjO46t3kjhueZTUGY23wVEXc+UgAYnZIQAIBZS026iIi3kgCAIqxE8Hx7M3s/VhECQBmOnJcBAJij1KSziHgnCQAowkO4B/UicysIVz5SACjGSTd2CQAAZiE1aRkRv0sCAIpxldt8L4bnm1VBmNt8ExG3PlYAKMZbJSEAAHOQmnQcVigAQGlWIniZPV8GAKBnb7sxTAAAMEldObiO7X7bAEAZ7nKb12J4GQUhADCE35WEAABMUWrSQWzvNykHAaAsKxG83OwKwm7W7AcfLQAU5/duzxYAAJiErhxcR8SRNACgOCsRvNyeLwUAMKCrbjwTAAAUTTkIAEW7zm3eiOHlZlkQ5jZfRcSDjxcAirMfEWslIQAAE3AZykEAKNVKBK+z58sBAAzsU0l4IAoAAEqUmrSKiLeSAIAiPUTElRheZ84F4aWPFwCKpSQEAKBIykEAKN5VbvO9GF5ntgVhN3v21kcMAMU6CiUhAAAFSU26COUgAJRuJYLX25v5+7OKEADKpiQEAKAIqUlnEfFOEgBQtLvc5rUYXm/uBeFVbGfRAgDlOooIF3YAAIymKwd/lwQAFM/CsB2ZdUHYzaC1USUAlO+o2+sFAAAGpRwEgElZiWA39nxZAIBCvFUSAgAwJOUgAEzKh25hGDsw+4Kwm0V756MGgElQEgIAMIjUpNNQDgLAlKxEsDt7lbxPM2kBYDqUhAAA9Co16TjcZASAKbnLbbal3A7VUhC64AOAaVESAgDQi64cXEfEvjQAYDJWItitKgrCbibtex83AEyKkhAAgJ1SDgLAZK1EsFt7vjwAQMGUhAAA7IRyEAAm60Nu80YMu1VNQZjbvI6IOx85AEyOkhAAgFdRDgLApK1EsHt7lb3fSx85AEySkhAAgBdRDgLApD3kNl+JYfdqKwhXPnIAmCwlIQAAz6IcBIDJW4mgH1UVhLnN9xHx3scOAJOlJAQA4EmUgwAwCyZD9mSvwve88rEDwKQpCQEA+C7lIADMwofc5o0Y+lFdQZjbvI6IOx89AEyakhAAgK9SDgLAbKxE0J+9St+3JakAMH1KQgAAvpCadBbKQQCYg7vc5isx9KfWgnDloweAWVASAgAQEX+Ug7+HchAA5mAlgn5VWRDmNt9HxHsfPwDMgpIQAKByj8pBAGAeViLo154vFwAwA29Tk9apSQeiAACoi3IQAGbnQ27zRgz9qrYgzG1eR8SdrwAAzMZJRCgJAQAqohwEgFm6FEH/9ip//xe+AgAwK0ehJAQAqEJq0kUoBwFgbu66BV70rPaC8CoiHnwNAGBWlIQAwP+zdyfHdVxZ10A3ywHiH+SdCp8FhCzgkwVCWcBHCwRZINACgRbwwQKBFgi0oAALCpjenAAW4B9kUqRUbNC8Jpu1IhilqAhNdrBYONx5zmXi+jeof5MEAEyO7cEtmXVBWNt6k64kBACm5UWSi9KUA1EAAExLXw6+kgQATNJKBNvxLxE4MwoAE/VDuk1CJSEAwASUpuwpBwFg0k77xS62YPYFYW3rVZIPfisAwCQ9j5IQAGD0+vPx51EOAsCUOS+6RTYIOysRAMBkfSwJl6IAABifz8rBF9IAgMn6UNt6IYbtURAmqW1dJbmWBABM1vMk75SEAADj0l+CuIhyEACmbiWC7VIQ+s0HAHPyrjTlWAwAAMPXl4Pn6d6WBgCm67Zf5GKLFISfuG0LAPPwW2mKHzoBAAasNOUwXTn4XBoAMHn6mR1QEPZqW2+SnEoCAGbhVWnKWf+eDQAAA9Kfhf8jykEAmIuVCLZPQfh3WmoAmI+fk5wrCQEAhqM/B/9OEgAwG6e1rVdi2D4F4WdqWy+SfJAEAMzGi3Ql4YEoAAB2qz8D/5skAGBWViLYDQWh34wAMHdKQgCAHSpN2StNOU/yShoAMCuXta3nYtgNBeE/1LauklxLAgBm5XmS//Tv3QAAsCWlKftJzpO8lAYAzI5n33ZIQfhlKxEAwCy9K005EgMAwOb1Fxwu0l10AADm5bZf2GJHFIRfprUGgPn6vX//BgCADekvN5ynu+QAAMyPHmbHnt3d3Unhyz+oruL2PQDM2WWSRW3rjSgAANanv9jwuyQAYNb+n79z2S0bhF93LAIAmLUXSc7701cAAKxB/0G2chAA5u1UObh7Ngi//UPreTySDQBzd5vksLb1XBQAAI9TmrKX7qSo9wYBgB9rWy/EsFs2CL/NDVwA4HmSP/t3cgAAeKD+IsNFlIMAQPJBOTgMCsJvqG09S3ItCQAgybv+JBYAAPdUmnKYbnPwB2kAALGYNRgKwu87FgEA0HtVmnLen8gCAOAbSlOOkvyR7iIDAMB1v5jFACgIv+8s3dtDAABJ9z7xRX8qCwCAfyhN2esvL/wuDQDgM8ciGA4F4XfUtt7EyisA8Hc/JDn3LiEAwN+VpuynOyn6ShoAwGdu0y1kMRAKwvtZiQAA+Ifn6d4lPBYFAEBSmrJIcpHkhTQAgH846ReyGAgF4T3Utl4lOZUEAPAFv5WmnHmXEACYs/69wT/jvUEA4MtWIhiWZ3d3d1K43w+6+0n+KwkA4CuukxzWtl6IAgCYi/4jqZM4KQoAfN1pbetSDMNig/Ce+i3CD5IAAL7Cu4QAwKx4bxAAuKdjEQyPgtBvYgBgfT6+S3giCgBgykpTDuO9QQDg+z70C1gMjBOjD/8B2A+/AMB9XCZZeIAbAJia0pTjJL9JAgC4h59qW8/FMDw2CB/ORgAAcB8vklyVpixEAQBMQWnKXmnKeZSDAMD9XCoHh0tB+EC1rask15IAAO7heZI/+6/sAQBGq//o6SrJS2kAAPdk4WrAFIR+UwMAm/dbacp5acqeKACAsSlNOUryZ7qPnwAA7uO6X7hioBSEj7NKcisGAOABXsbJUQBgRPqTomdJfpcGAPBAxyIYNgXhI9S23sQWIQDwcE6OAgCjUJpykOQiyc/SAAAe6DbJmRiGTUH4eApCAOCxnBwFAAar/5jpP0l+kAYA8Agn/aIVA/bs7u5OCo//gXmV5JUkAIBHuk1yWNt6LgoAYNf6j5fO0p1GBwB4jNsk+wrC4bNB+DTHIgAAnsDJUQBgEPp3kq+iHAQAnmalHBwHBeET1LZeJTmVBADwRL+VplyUpuyLAgDYttKUkyR/pvt4CQDgKTzPNhIKwqc7FgEAsAYvklyUphyKAgDYhtKUg9KUiyS/SAMAWIPTfrGKEVAQPlH/m/2DJACANXie5I/SlFX/BhAAwEaUphwlOU/3kRIAwDoci2A8FIR+0wMAw/Mq3TbhQhQAwDqVpuyVppwl+T1OigIA62N7cGQUhGtQ23oeW4QAwHr9kOTP0pRjUQAA69B/fHSV5GdpAABrthLBuDy7u7uTwvp+yP5TEgDABlwmWda2XogCAHio/nT5cbw1CABsxofa1oUYxsUG4Zr0W4SXkgAANuBFkvP+rSAAgHsrTTlIchHlIACwOcciGB8F4XqdiAAA2JDnSX4vTTkvTdkXBwDwPf2p8v+kO10OALAJH/oFKkbGidH1//B95QdvAGDDbpMc1bauRAEA/FO/NbhKd4UAAGCTflIQjpMNwvU7FgEAsGHPk7wrTTnr3xQCAEjyt61B5SAAsGmXysHxskG4mR/Gr2KLEADYjtsky9rWM1EAwHzZGgQAduC160bjZYNwM45FAABsyfMkf9gmBID5sjUIAOzAtXJw3GwQbu6H86vYIgQAtsvbhAAwI7YGAYAdsj04cjYIN+dYBADAln18m/C8NGVfHAAwXbYGAYAdsj04AQrCDen/x3EtCQBgB14muShNORIFAExLacqiNOUiyW/SAAB25FgE4+fE6GZ/aF8meScJAGCHPqQ7O3ohCgAYr/6t4eMkv0gDANih69rWfTGMnw3CzTpL9xYQAMCuvEzyn/4MGQAwQqUpiyQXUQ4CALt3LIJpsEG4+R/ij+PsBwAwDNdJlrWt56IAgOHrtwZXSX6WBgAwALYHJ8QG4eadxBYhADAMPyT5szRl1f+FIwAwUP1bwldRDgIAw3EsgumwQbidH+qPY4sQABiW23RvE65EAQDDUZpykO5j45fSAAAGxPbgxNgg3A5bhADA0DxP8q405bz/i0gAYIdKU/ZKU06S/CfKQQBgeI5FMC02CLf3g/5xbBECAMP1JslJbeuNKABgu0pTDtN9XPyDNACAAbI9OEE2CLfHFiEAMGS/Jbno/4ISANiC0pT90pTzJH9EOQgADNexCKbHBuF2f/A/ji1CAGD4PiRZ1rZeiQIA1q80ZS/JUfwdAQAwfLYHJ8oG4XbZIgQAxuBlkv+Wphz3f4EJAKxJacoyyVWUgwDAOByLYJpsEO5mEHgnCQBgJG6THNW2rkQBAE/6+4CDdB8Ov5QGADAStgcnTEG4m6HgKt4WAADG5UOS49rWc1EAwIP+DmAvXTH4ShoAwMi89sHwdDkxuhvHIgAARuZlkj9LU1alKfviAIDvK005TndOVDkIAIzNtXJw2mwQ7m5IuIotQgBgnG7TbUKc1LbeiAMA/mfmP+z/v9LcDwCMle3BiVMQ7m5YWMZbhADAuF2nOztqYACAbtZfpLsa5J1BAGDU8763B6dPQbjbweEqviYEAMbvMsmR9wkBmPF8v5+uGHRKFACYgn/Xtp6JYdoUhLsdIJaxRQgATMeHJMva1itRADCTuX4vyVGS36QBAExltq9tXYhh+hSEux8mrmKLEACYltN0p0evRAHAhOf543Tl4HNpAAAT8pMLQfOgINz9QHGY5A9JAAAT9CbJSW3rjSgAmNAcv0x3TtTHvgDA1NgenBEF4TCGi/N4wBwAmKbbJCdRFAIw/tl9kWQVxSAAMF22B2dEQTicIeNPSQAAE3ab5Ki2dSUKAEY4sx/Hh70AwLTZHpwZBeFwBo5zwwYAMAPX6d4nXIkCgIHP6YsoBgGA+fixtvVCDPOhIBzW4GGLEACYC0UhAEOdzw/SncdWDAIAc3Fa27oUw7woCIc1hJwl+VkSAMCMKAoBGMpMvp9uY/CVNACAmfm/2tYrMcyLgnB4w8h/JQEAzJCiEIBdzuLHUQwCAPNke3CmFITDG0xWhhIAYMYUhQBsa/7ej2IQAJi32yQHtgfnSUE4zAHFFiEAMHeKQgA2NXcfJDmKYhAA4E1t67EY5klBOMxh5STJL5IAAFAUArC2WXuRbmPwpTQAAHKbZL+29UYU86QgHObQspfkKslzaQAAJFEUAvD4GXsRxSAAwD/ZHpw5BeFwB5jjJL9JAgDgb66TrJKc+MoRgO/M1cskyygGAQC+NFsfmKvnTUE43EHGFiEAwNfdJjmJohCA/52nl+k2Bn+QBgDAF712oQcF4fCHmneSAAD4ptN050evRAEw2/l5L8lRuo1BxSAAwNdd17buiwEF4fCHnCvDDQDAvbxPt1F4LgqA2czM+/lUDLrAAwDwfT+Zm0kUhGMYdg6T/CEJAIB7+5Bk5VwKwKRn5YN0xeAraQAA3H9erm1diIFEQTiWwec8HlUHAHio63TvFK68Uwgwmfl4mW5b0IwMAPBwtgf5i4JwHAPQIsmfkgAAeJTbJGfxTiHAWGfivXSl4FE8wQEA8Finta1LMfCRgnA8A9FZkp8lAQDwJB/SvVN4JgqAwc/B+0mOkxzG+4IAAE/1fz6a5XMKwnENRv+VBADAWjg/CjDc+XcZZ0QBANbpbW3rkRj4nIJwXEPSSZJfJAEAsDYfz4+e1LZeiANgZ/PufrpScBlnRAEA1j337vs4ln9SEI5rYNpLchWnVQAANuEy3VbhmcEJYGtz7iJdKfhKGgAAG/GmtvVYDPyTgnB8w9Nxkt8kAQCwMbdJVum2Cq/EAbD2uXYvXSl4FNuCAACbdF3bui8GvkRBOM5h6soQBQCwFbYKAdY3yx4mOYxtQQCAbfl3beuZGPgSBeE4h6plkneSAADYGm8VAjxuft2PtwUBAHbhQ23rQgx8jYJwvEPWeZKXkgAA2LrrdFuFK1uFAF+dWZfptgV/lgYAwE78VNt6Lga+RkE43mFrkeRPSQAA7NT7dEWhky2AObUpB+neFTxM8lwiAAA7c1rbuhQD36IgHPfwtYq3GwAAhsAJUmCuc+l+ukLwKE6IAgAMZT49qG29EgXfoiAc/yB2EV9mAgAMyXWSVbrNQgMZMMVZdC+fSsEXEgEAGJQ3ta3HYuB7FITjH8yOk/wmCQCAQbpMVxaeKQuBCcyfy3hXEABgyG6T7Ne23oiC71EQjn9A20u3ReiUCwDAsL1Pd4b0zLAGjGjmPExXCnpXEABg+F7Xtq7EwH0oCKcxsC2TvJMEAMBoKAuBIc+YSkEAgPG5rG09EAP3pSCczgB3nuSlJAAARkdZCAxhplQKAgCM20+1redi4L4UhNMZ5hZJ/pQEAMCofSwLz71ZCGx4htxLsohSEABgCk5rW5di4CEUhNMa8FZJXkkCAGASLpOs0m0WXokDWMPMuJdPheDPEgEAmITbJAfmRh5KQTitYW8/yUV8+QkAMDXX6TYLV7WtF+IAHjgnHiZZJnkhEQCAyXlT23osBh5KQTi94e84yW+SAACYrNv0bxamO0Xq3ULgn3PhIp82BX+QCADAZF2n2x40F/JgCsJpDoNXhkAAgNn4kE9loe1CmOcMuJ9P7wku4qoMAMBc/Lu29UwMPIaCcJrD4WGSPyQBADA710nOY7sQ5jD3LfKpEHQ6FABgfj7Uti7EwGMpCKc7LJ4neSkJAIBZu8ynsvBcHDDqGe8gXRn48ZctQQCAefvRFRmeQkE43eFxP8l/JQEAQO823XbheZwjhbHMdIvPfnlGAgCAj97Wth6JgadQEE57oDxJ8oskAAD4AoUhDGt+249CEACA+81y+56U4KkUhNMeMPeSXMXpGQAA7jdknkdhCNua1/ajEAQA4OFe17auxMBTKQinP3Quk7yTBAAAD/SxMLyINwxhHbPZxzcEP/6nQhAAgIe6rG09EAProCCcxyB6nuSlJAAAeKIP6QvDJBe1rVcigS/OYHv5VAQu+n922QUAgKf6ycebrIuCcB7D6UGS/0gCAIA1u05XGNoyxMz1qQg8SPJCKgAArNlpbetSDKyLgnA+A+tJkl8kAQDAhl3mU2l4oTRkgrPVxxLw4y/XWgAA2LTbJPu1rTeiYF0UhPMZYveSXMVZGwAAtu9jaXiVT+dJDbaMYY5apCsB96MMBABgd36tbT0RA+ukIJzXcLtM8k4SAAAMwHU+FYZX6UrDC7Gwo1lpP3/fCjxI8oNkAAAYgMva1gMxsG4KwvkNvufx1SsAAAMeftMXhv2vK8Uha5yHDpLspXsvcL//ZT4CAGDIfvJ0A5ugIJznQPwfSQAAMDKfbxze5FN5eCUa/jHz7OXTWdD9z/75hXQAABiZ09rWpRjYBAXhPAfmkyS/SAIAgIm4TFcanudTeXhj83DSM81+PpV/e5/9p21AAACm4jbJvvfb2RQF4TyH6b10X18/lwYAADMYqi/yqThMuiIx6d49NGwPc2ZZ9P/4sfjb/+yXtwEBAJiD17WtKzGwKQrC+Q7ch0n+kAQAAPx1vjT5VB5effbfKRLXN4cs+n/8uPWXfCoB9+IMKAAAJMmH2taFGNgkBeG8h/PzOMEDAAAP8fGcafJpMzH5+4ZiMvETp5+d+PzoY8mX/L38i5kDAAAe7EdPJrBpCsIZ64f6/0oCAAC24vNNxc99XjR+zdVX/t37+mdp9zWLr/y7NvsAAGA73ta2HomBTVMQzlxpynGS3yQBAAAAAAA7dZ3kwBMHbIOCkJSmXCX5QRIAAAAAALAz/65tPRMD2/AvEZBkKQIAAAAAANiZ98pBtklBSGpbz5O8lwQAAAAAAGzdbRLvDrJVCkI+WvZ/CAEAAAAAANtzXNt6JQa2SUFIkqR/9PRYEgAAAAAAsDWXta0nYmDbFIT8pf9D6IMkAAAAAABgK5YiYBcUhPyTO8cAAAAAALB5b2tbL8TALigI+Zv+D6M3kgAAAAAAgI25jme/2KFnd3d3UuB/lKZcJflBEgAAAAAAsHb/rm09EwO7YoOQr1mKAAAAAAAA1u69cpBdUxDyRbWt50neSgIAAAAAANbmNhZ0GAAFId9y3P9hBQAAAAAAPN1xbeuNGNg1BSFf1f8htZQEAAAAAAA82Yfa1hMxMAQKQr6pv4P8XhIAAAAAAPBoTosyKApC7mMZp0YBAAAAAOCxTmpbr8TAUCgI+a7+1OixJAAAAAAA4MEua1uPxcCQKAi5l/4u8gdJAAAAAADAgyxFwNAoCHnoH2JOjQIAAAAAwP28qW29EAND8+zu7k4K3FtpylGS3yUBAAAAAADfdF3bui8GhsgGIQ/Snxq9lAQAAAAAAHzTUgQMlYIQf6gBAAAAAMB6va1tPRcDQ6Ug5MH6e8lvJAEAAAAAAP/jOsmxGBgybxDyaKUpF0leSAIAAAAAAP7yk+1Bhs4GIU+xFAEAAAAAAPzFaVFGQUHIozk1CgAAAAAAf3FalNFwYpQnc2oUAAAAAACcFmU8bBCyDksRAAAAAAAwY06LMioKQp7MqVEAAAAAAGbMaVFGx4lR1sapUQAAAAAAZshpUUbHBiHrtBQBAAAAAAAz4rQoo6QgZG2cGgUAAAAAYEacFmW0nBhl7ZwaBQAAAABgBpwWZbRsELIJyyS3YgAAAAAAYKKcFmXUbBCyEaUpR0l+lwQAAAAAABNzWdt6IAbGzAYhG1HbepLkgyQAAAAAAJiYpQgYOwUhm/5D0qlRAAAAAACm4k1t64UYGDsnRtkop0YBAAAAAJgIp0WZDBuEbFR/avS9JAAAAAAAGLHbOC3KhCgI2YZlnBoFAAAAAGC8jp0WZUoUhGxcbetNfFkBAAAAAMA4feiv5cFkKAjZitrWsySnkgAAAAAAYEScFmWSFIRs01GSazEAAAAAADASy9rWKzEwNQpCtsapUQAAAAAARuR9fx0PJkdByFbVtp4neSMJAAAAAAAG7DoWXpiwZ3d3d1Jg60pTLpK8kAQAAAAAAAP0U7/wApNkg5BdWaZ73BUAAAAAAIbkrXKQqbNByM6Uphwl+V0SAAAAAAAMxGVt64EYmDobhOxMbetJkveSAAAAAABgAG7j3UFmQkHIri3j1CgAAAAAALt3XNt6IQbmQEHITtW23iQ5lAQAAAAAADv0vr96B7OgIGTn+sde30oCAAAAAIAdcFqU2Xl2d3cnBQahNOUiyQtJAAAAAACwRT/1iywwGzYIGZJlvEcIAAAAAMD2vFUOMkc2CBmU0pSjJL9LZ0G5KAAAIABJREFUAgAAAACADbusbT0QA3Nkg5BB6R+BfS8JAAAAAAA26DbJoRiYKwUhQ7RMci0GAAAAAAA25Ki29UoMzJWCkMGpbb1JVxICAAAAAMC6nda2rsTAnCkIGaT+Udg3kgAAAAAAYI2ukxyJgbl7dnd3JwUGqzTlPMlLSQAAAAAAsAY/1rZeiIG5s0HI0C3TPRYLAAAAAABP8atyEDoKQgatfyR2KQkAAAAAAJ7gfW3riRigoyBk8Gpbz5K8lQQAAAAAAI9wG4so8DfeIGQ0SlMukryQBAAAAAAAD/BTbeu5GOATG4SMyWG8RwgAAAAAwP29UQ7C/7JByKiUphwm+UMSAAAAAAB8x4fa1oUY4H/ZIGRUvEcIAAAAAMA93Ka7Sgd8gQ1CRsl7hAAAAAAAfIN3B+EbbBAyVt4jBAAAAADgS7w7CN9hg5DR8h4hAAAAAAD/4N1BuAcbhIyW9wgBAAAAAPiMdwfhnmwQMnreIwQAAAAAIN4dhHuzQcgUeI8QAAAAAGDeflUOwv0pCBm92tarJEtJAAAAAADM0vva1hMxwP0pCJkE7xECAAAAAMzSdSyQwIN5g5BJKU05T/JSEgAAAAAAs/BjbeuFGOBhbBAyNd4jBAAAAACYh9fKQXgcBSGTUtt6k64kBAAAAABguk5rW1digMdREDI5ta3nSX6VBAAAAADAJF0mORIDPJ43CJms0pSzJD9LAgAAAABgMm6THNS2XokCHs8GIVO2TPclCQAAAAAA07BUDsLTKQiZrP49wmW6L0oAAAAAABi3N7WtZ2KAp3NilMkrTVkmeScJAAAAAIDR+lDbuhADrIcNQiavtnWV5K0kAAAAAABG6TrJoRhgfWwQMhulKedJXkoCAAAAAGA0bpMsalsvRAHrY4OQOTmM9wgBAAAAAMbkSDkI66cgZDZqW2+SLCQBAAAAADAKp/0TUsCaKQiZlf5Lk9eSAAAAAAAYtMva1qUYYDMUhMxO/8XJqSQAAAAAAAbpNq7BwUY9u7u7kwKzVJpykeSFJAAAAAAABuVH7w7CZtkgZM4W6b5EAQAAAABgGF4rB2HzFITMVm3rTaypAwAAAAAMxWn/RBSwYQpCZq3/EuW1JAAAAAAAduqytnUpBtgOBSGz13+RcioJAAAAAICduI5rb7BVz+7u7qQASUpTzpO8lAQAAAAAwNbcJll4dxC2ywYhfHKY7ksVAAAAAAC240g5CNunIIRebetNupLwVhoAAAAAABv3tn8CCtgyJ0bhH0pTDpP8IQkAAAAAgI15X9t6KAbYDRuE8A+1rWdJ3kgCAAAAAGAjLpMsxQC7Y4MQvqI0ZZXklSQAAAAAANbmNsnCu4OwWzYI4euO0n3JAgAAAADAehwqB2H3FITwFbWtN0kO033RAgAAAADA07yubT0XA+yeghC+obb1KslCEgAAAAAAT3Ja27oSAwyDghC+o193fy0JAAAAAIBH+VDbuhQDDIeCEO6h/7LlrSQAAAAAAB7kMt1TTsCAPLu7u5MC3FNpyirJK0kAAAAAAHzXbZJFf6UNGBAbhPAwR+m+eAEAAAAA4NsOlYMwTApCeIDa1pski3RfvgAAAAAA8GWva1vPxQDDpCCEB1ISAgAAAAB809va1pUYYLgUhPAI/Vr8kSQAAAAAAP7mfW2rvzuFgVMQwiP1X8D8KgkAAAAAgCTJZZKlGGD4nt3d3UkBnqA0ZZXklSQAAAAAgBm7TbLfP9EEDJwNQnii2tZlkg+SAAAAAABm6jbJQjkI46EghPU4TLc+DwAAAAAwN8va1gsxwHgoCGEN+i9jDtN9KQMAAAAAMBeva1vPxADjoiCENaltvUqyiJIQAAAAAJiH09rWlRhgfBSEsEb9Gv2RJAAAAACAiTutbV2KAcZJQQhr1n8x81oSAAAAAMBEXcaiBIzas7u7OynABpSmrJK8kgQAAAAAMCHXSQ5qW29EAeNlgxA2pF+vP5UEAAAAADARt0kOlYMwfgpC2KyjdOv2AAAAAABjt6htvRADjJ+CEDao/5JmESUhAAAAADBur5WDMB0KQtiwviRcplu/BwAAAAAYm9e1rSsxwHQoCGEL+i9rFlESAgAAAADjcqochOlREMKW9CXhkSQAAAAAgJE4rW1digGmR0EIW9R/afNaEgAAAADAwF3GwgNMloIQtqwvCd9KAgAAAAAYqMski9rWG1HAND27u7uTAuxAacoqyStJAAAAAAADcptkXzkI02aDEHakv939XhIAAAAAwEDcxuYgzIKCEHZrmW5dHwAAAABglz6WgxeigOlTEMIO9V/iLKIkBAAAAAB260g5CPPhDUIYgNKU/SQXSZ5LAwAAAADYste1rSsxwHzYIIQBqG29SrdJeCsNAAAAAGCL3igHYX5sEMKAlKYcJDmPTUIAAAAAYPNOa1uXYoD5sUEIA9Lf+D6SBAAAAACwYcpBmDEbhDBApSnLJO8kAQAAAABswIfa1oUYYL5sEMIA9Te/X0sCAAAAAFizyySHYoB5UxDCQPUl4VtJAAAAAABrcplkUdt6IwqYNydGYeBKU1ZJXkkCAAAAAHiC6yQHykEgsUEIg9c/FHwqCQAAAADgkW6THCoHgY9sEMJIlKacJ3kpCQAAAADgAW7TnRW9EAXwkQ1CGI/DdDfCAQAAAADuQzkIfJGCEEaiX/9fREkIAAAAANzPoXIQ+BIFIYyIkhAAAAAAuKfXta3nYgC+xBuEMEKlKXtJrpI8lwYAAAAA8A+va1tXYgC+xgYhjNBnm4S30gAAAAAAPqMcBL5LQQgj1d8OX0RJCAAAAAB0lIPAvSgIYcSUhAAAAABA71Q5CNyXghBGTkkIAAAAALN3Wtu6FANwX8/u7u6kABNQmnKQ5D+SAAAAAIBZUQ4CD2aDECai3yR8LQkAAAAAmA3lIPAoCkKYkP7GuJIQAAAAAKZPOQg8moIQJkZJCAAAAACTpxwEnsQbhDBRpSnLJO8kAQAAAACTclnbeiAG4ClsEMJE2SQEAAAAgMm5TLIQA/BUCkKYMCUhAAAAAEzGZZJFbeuNKICnUhDCxCkJAQAAAGD0lIPAWikIYQaUhAAAAAAwWspBYO0UhDATfUn4RhIAAAAAMBrKQWAjnt3d3UkBZqQ0ZZXklSQAAAAAYNCUg8DG2CCEmaltXSY5lQQAAAAADJZyENgoBSHMkJIQAAAAAAZLOQhsnIIQZkpJCAAAAACDoxwEtkJBCDOmJAQAAACAwVAOAlujIISZUxICAAAAwM4pB4GtUhACSkIAAAAA2B3lILB1CkIgiZIQAAAAAHZAOQjshIIQ+IuSEAAAAAC2RjkI7IyCEPibviR8LQkAAAAA2BjlILBTCkLgf9S2rqIkBAAAAIBNUA4CO6cgBL5ISQgAAAAAa6ccBAZBQQh8lZIQAAAAANZGOQgMhoIQ+CYlIQAAAAA8mXIQGJRnd3d3UgC+qzRlmeSdJAAAAADgQU5rW5diAIbEBiFwLzYJAQAAAODBlIPAICkIgXtTEgIAAADAvSkHgcFSEAIP0peE/05yKw0AAAAA+CLlIDBo3iAEHqU05SDJeZLn0gAAAACAvygHgcGzQQg8Sm3rRZJFbBICAAAAwEfKQWAUFITAoykJAQAAAOAvr5WDwFgoCIEnURICAAAAQF7Xtq7EAIyFghB4ss9KwktpAAAAADAzykFgdJ7d3d1JAViL0pS9JOdJXkgDAAAAgBlQDgKjpCAE1kpJCAAAAMAM3CY5rG09FwUwRgpCYO2UhAAAAABM2G2SRf/sDsAoeYMQWLva1pt0bxKeSgMAAACACVEOApNggxDYqNKUVZJXkgAAAABg5K7TnRVVDgKjpyAENk5JCAAAAMDIXabbHLwRBTAFTowCG1fbukzyqyQAAAAAGCHlIDA5CkJgK2pbT5K8lgQAAAAAI/I+ykFggpwYBbaqNGWZ5J0kAAAAABi40/4yFsDkKAiBrStNWSQ5S/JcGgAAAAAMkHIQmDQnRoGtq209T7JIcisNAAAAAAbmV+UgMHUKQmAnalsv0pWE19IAAAAAYCBe17aeiAGYOgUhsDN9SXiQ5FIaAAAAAOzQbbpycCUKYA68QQjsXGnKXpLzJC+kAQAAAMCW3SZZ9B+zA8yCghAYjNKUVZJXkgAAAABgS5SDwCw5MQoMRv/486kkAAAAANiCyyT7ykFgjhSEwKD0JeGvkgAAAABggy7TbQ7eiAKYIydGgUEqTVkmeScJAAAAANbstP9IHWC2FITAYJWmLJKcJXkuDQAAAADWQDkIEAUhMHClKQdJzqMkBAAAAOBpXte2rsQA4A1CYOD6R6L3092FBwAAAICHuo1yEOBvbBACo1Caspfu3OhLaQAAAABwT7dJFv1H6AD0FITAqJSmrJK8kgQAAAAA33GZZKkcBPhfTowCo9I/Iv1GEgAAAAB8w2VsDgJ8lYIQGJ3a1uMkryUBAAAAwBecpisHb0QB8GVOjAKjVZqySPcu4XNpAAAAAJDkbW3rkRgAvk1BCIxaacpBupLwB2kAAAAAzNrr2taVGAC+T0EIjF5pyl6S8yQvpAEAAAAwO7dJlrWtZ6IAuB9vEAKj19+TX6S7Lw8AAADAfNyme29QOQjwADYIgUkpTTlJ8oskAAAAACbvMl05eCMKgIexQQhMSv8I9WtJAAAAAEzaaZSDAI9mgxCYpNKURZKzJM+lAQAAADApb/uPxAF4JBuEwCTVtp6ne5fwUhoAAAAAk/FaOQjwdDYIgUkrTdlLcp7khTQAAAAARus23UnRC1EAPJ0NQmDSaltvalsP0t2lBwAAAGB8LqMcBFgrBSEwC7WtyyS/SgIAAABgVD5EOQiwdk6MArNSmnKYZJXkuTQAAAAABu20/+gbgDVTEAKzU5pykOQsyQ/SAAAAABik17WtKzEAbIaCEJil0pS9dCXhS2kAAAAADMZtnBQF2DgFITBrpSmrJK8kAQAAALBzl0kOa1uvRAGwWf8SATBn/R3715IAAAAA2Kn36TYHr0QBsHk2CAGSlKYs0p0cfS4NAAAAgK16U9t6LAaA7VEQAvRKU/bTlYQvpAEAAACwcbdJjmpbV6IA2C4nRgF6/QmLRZJTaQAAAABs1HW6k6IrUQBsnw1CgC8oTTlO8pskAAAAANbuQ5LD2tYbUQDshoIQ4CtKUw6TrOJdQgAAAIB1eVvbeiQGgN1yYhTgK2pbz9KdHL2UBgAAAMCT3CZ5rRwEGAYbhADfUZqyl26T8GdpAAAAADzYdbqToheiABgGBSHAPXmXEAAAAODBvDcIMEAKQoAH8C4hAAAAwL15bxBgoLxBCPAA3iUEAAAA+C7vDQIMnA1CgEfo3yU8SfJKGgAAAAB/8d4gwAgoCAGeoDTlKMnvkgAAAADI+yRL7w0CDJ+CEOCJSlMWSc7iXUIAAABgvt7Uth6LAWAcFIQAa9CfHD1P8kIaAAAAwIzcpjspei4KgPFQEAKsUWnKSZJfJAEAAADMwGW6cvBKFADjoiAEWLPSlGWSkzg5CgAAAEzXaW3rUgwA4/QvEQCsV23rKski3Vd0AAAAAFNym+S1chBg3BSEABtQ23qRriQ8lQYAAAAwEZdJFv3H0QCMmBOjABtWmnKU5HdJAAAAACP2PsmytvVGFADjpyAE2ILSlIMkZ0l+kAYAAAAwMr/Wtp6IAWA6FIQAW1KaspdkleRnaQAAAAAjcJ3ksH9KBYAJURACbJmTowAAAMAIOCkKMGEKQoAd6E+Onid5Lg0AAABgYJwUBZg4BSHAjvQnR8+SvJQGAAAAMABOigLMhIIQYMecHAUAAAAGwElRgBlREAIMQH9y9CzJD9IAAAAAtsxJUYCZURACDER/cnSV5GdpAAAAAFvgpCjATCkIAQbGyVEAAABgC5wUBZgxBSHAADk5CgAAAGyQk6IAM/cvEQAMT3/a4yDJqTQAAACANblM8qNyEAAbhAADV5qyTHKS5Lk0AAAAgEc6TXLkpCgAiYIQYBT6k6OrJC+kAQAAADzAbbq3Bs9EAcBHCkKAESlNOUnyiyQAAACAe7hMcljbeiUKAD6nIAQYmdKURZKzODkKAAAAfN2b2tZjMQDwJQpCgBEqTdlLVxK+lAYAAADwmet0J0XPRQHA1ygIAUasNOUoye+SAAAAAJK8T1cO3ogCgG9REAKMXGnKQZJVkhfSAAAAgFm6TXJU27oSBQD3oSAEmIjSlJMkv0gCAAAAZuUyyWFt65UoALgvBSHAhJSmLNK9TfhcGgAAADB5b2pbj8UAwEMpCAEmpjRlL93J0Z+lAQAAAJN0nW5r8EIUADzGv0QAMC21rTe1rYdJXqd7gwAAAACYjrdJDpSDADyFDUKACStN2U+3TfhSGgAAADBqt0mWta1nogDgqRSEADNQmnKc5DdJAAAAwCi9T1cO3ogCgHVQEALMRGnKQbptwhfSAAAAgFG4TXJc23oiCgDWSUEIMDOlKSdJfpEEAAAADNqHdFuDV6IAYN0UhAAzVJqySLdN+IM0AAAAYHB+tTUIwCb9SwQA81Pbep7kIMlbaQAAAMBgXCb5UTkIwKbZIASYudKUw3TbhM+lAQAAADvzprb1WAwAbIOCEICUpuylKwl/lgYAAABs1WW6twYvRAHAtigIAfiLbUIAAADYKluDAOyEghCAv7FNCAAAABt3neTQ1iAAu6IgBOCLbBMCAADARrxNclzbeiMKAHZFQQjAV9kmBAAAgLW5TvfW4LkoANg1BSEA32WbEAAAAJ7E1iAAg6IgBOBebBMCAADAg12m2xr01iAAg6IgBOBBbBMCAADAvbypbT0WAwBDpCAE4MH6bcKTJK+kAQAAAH9jaxCAwVMQAvBopSmLdNuEP0gDAAAAbA0CMA7/EgH/v717OWori/Y4/K+bAEzOnsKNwM4AMjAZNBk0GTSdATcDnAGdgcgAZyBNjyYogzvYRy0Z220eepzH91WphO3Zmrl+rLUB3qtdtrMkn1MfWwcAAICpekzyv+IgAENhgxCAnbBNCAAAwAStkty2y/bOKAAYEoEQgJ0qTblN8pdJAAAAMHKPqW8Nzo0CgKERCAHYudKUz0nuklyYBgAAACOzSg2DD0YBwFAJhADsTWnKTZLbJCemAQAAwAh8TXLTLttnowBgyARCAPaqNOU8dZvwi2kAAAAwUIvUrcGZUQAwBgIhAAdRmnKV5D62CQEAABiWv5Pc2RoEYEwEQgAOpjTlNPXk6J+mAQAAQM89pp4TfTIKAMZGIATg4EpTLlPPjn4yDQAAAHpmleS2XbZ3RgHAWAmEABxNacptkps4OwoAAEA//JP61qBzogCMmkAIwFGVppynbhN+MQ0AAACOZJEaBmdGAcAUCIQA9EJpylVqKDwzDQAAAA7o73bZ3hoDAFMiEALQG6Upp6knR/8yDQAAAPbsMXVrcG4UAEyNQAhA75SmfE7dJrwwDQAAAHZskeSmXbYPRgHAVAmEAPRWacp1aig8MQ0AAAB24P+S3LbL9tkoAJgygRCAXuvOjt4m+dM0AAAAeKfH1K3BJ6MAAIEQgIFwdhQAAIB3WKWGwXujAIANgRCAQXF2FAAAgFdyThQAfkEgBGBwnB0FAADgPzgnCgC/IRACMFjOjgIAALBlkRoGH4wCAP6bQAjA4HVnR2+TnJkGAADAJP2d5M45UQB4HYEQgFHozo7eJPnLNAAAACbjMcl1u2znRgEArycQAjAqpSnnqWdHv5gGAADAaC1Sw+DMKADg7QRCAEapNOUyyX2cHQUAABiTVZLbdtneGQUAvJ9ACMColabcpL5PeGIaAAAAg/Y1yY13BgHg4wRCAEave5/wNsmfpgEAADA4j6lh8MkoAGA3BEIAJqN7n/A+yYVpAAAA9N4iNQw+GAUA7JZACMDkeJ8QAACg11ZJ7tple2sUALAfAiEAk+V9QgAAgN7xziAAHIBACMCkde8T3iT5yzQAAACO5jHJdbts50YBAPsnEAJA/n2f8C7JF9MAAAA4mEVqGJwZBQAcjkAIAFu69wlvk1yYBgAAwN6sUk+J3hsFAByeQAgAP1Gacp0aCs9MAwAAYGdWqddb7rwzCADHIxACwH8oTblJDYUnpgEAAPAhX1O3BoVBADgygRAAfqM05TTJTZK/TAMAAODNHlPfGZwbBQD0g0AIAK9UmnKeuk34h2kAAAD81mOS23bZzowCAPpFIASAN+pC4X2SC9MAAAD4wSL1lOiDUQBAPwmEAPBOpSmXqRuFQiEAAEANg7ftsr03CgDoN4EQAD6oNOUqyV2SM9MAAAAmaNX9n+iuXbbPxgEA/ScQAsCOlKZcp24UCoUAAMAUCIMAMFACIQDsWGnKbZKbJCemAQAAjNTX1HOic6MAgOERCAFgD0pTTlMjoVAIAACMiTAIACMgEALAHgmFAADASDwmuRYGAWAcBEIAOIDSlPPU9wn/MA0AAGBAHlM3BmdGAQDjIRACwAEJhQAAwEAIgwAwYgIhAByBUAgAAPSUMAgAEyAQAsARCYUAAEBPfEtyIwwCwDQIhADQA0IhAABwJIvUjcF7owCA6RAIAaBHSlMuU0PhhWkAAAB7JAwCwIQJhADQQ0IhAACwJ8IgACAQAkCfCYUAAMCOCIMAwL8EQgAYAG8UAgAA7yQMAgA/EAgBYECEQgAA4JUeU8PgzCgAgJcEQgAYIKEQAAD4BWEQAPgtgRAABkwoBAAAOsIgAPBqAiEAjMBWKLxKcmIiAAAwGcIgAPBmAiEAjEhpymmSm+4jFAIAwHh9TQ2Dc6MAAN5KIASAERIKAQBgtIRBAODDBEIAGLEuFF6lnh89MxEAABikVZL7JHfCIACwCwIhAExEacp1hEIAABiSVZK71DD4bBwAwK4IhAAwMaUpV6mnRy9MAwAAemmR+st9D8IgALAPAiEATFRpymVqKPxiGgAA0AvfUrcF740CANgngRAAJq405Tz1t5P/MA0AADiKxyS37bKdGQUAcAgCIQCQ5N9QeJ26VXhiIgAAsHdfUzcGn4wCADgkgRAA+E5pymmSq9StwjMTAQCAnVoluU8Ng3PjAACOQSAEAH6pNOU6davwwjQAAOBDFknukty3y/bZOACAYxIIAYDfKk25TA2F3ikEAIC3eUyNgvdGAQD0hUAIALxa907hTWos9E4hAAD82tfUMDgzCgCgbwRCAODNuncKr1NjoXcKAQCg8r4gADAIAiEA8CGlKVepodA7hQAATNUiyW2SB+8LAgBDIBACADvRnR+9jXcKAQCYjsfUbcEHowAAhkQgBAB2qjs/un6n0PlRAADGZpXkIcmtM6IAwFAJhADA3pSmXKeGQudHAQAYukWSuyT3zogCAEMnEAIAe7d1fvQqyYmJAAAwIP+knhGdGQUAMBYCIQBwMN350evUE6TOjwIA0FerJPepYXBuHADA2AiEAMBRlKZcpobCL6YBAEBPfEuNgvdGAQCMmUAIABxVd370uvvYKgQA4NBWSR5Sw+CTcQAAUyAQAgC9UZpylbpVeGEaAADs2SLJXZL7dtk+GwcAMCUCIQDQO91W4U3qVuGJiQAAsENfU6PgzCgAgKkSCAGAXitNuU4NhbYKAQB4L9uCAABbBEIAYBBsFQIA8A62BQEAfkIgBAAGp9sqvEryxTQAAHjBtiAAwG8IhADAYHVbhdfd58xEAAAma5XkIcldu2yfjAMA4L8JhADAKJSmXKVuFf5hGgAAk/EtdVvwwbYgAMDrCYQAwKiUppxms1X4yUQAAEZnkc224Nw4AADeTiAEAEarNOVzkpvUzcITEwEAGLR/Ut8VfDAKAICPEQgBgEkoTblODYVfTAMAYDC+JblPDYNOiAIA7IhACABMSmnKeWoovI4TpAAAfbTKJgo+GQcAwO4JhADAZHUnSK+7jxOkAADH9TXJgxOiAAD7JxACACQpTblK3Sz8wzQAAA7mMXVb8MEJUQCAwxEIAQC2lKacZnOC9MJEAAB2bpHkLjUKzo0DAODwBEIAgF/wXiEAwM4skjzEu4IAAL0gEAIAvMLWe4VXSc5MBADgt1apUdC7ggAAPSMQAgC80VYsvE5yYiIAAN/5GlEQAKDXBEIAgA8oTblK3Sq8ilgIAEzXP9lsCz4bBwBAvwmEAAA7IhYCABMjCgIADJRACACwB2IhADBSoiAAwAgIhAAAeyYWAgADJwoCAIyMQAgAcEBiIQAwEKIgAMCICYQAAEciFgIAPSMKAgBMhEAIANADYiEAcCSiIADABAmEAAA9U5ryOcl1aiw8MxEAYIdW2QTBB+MAAJgmgRAAoMe6WLjeLPxkIgDAOyxSo+BMFAQAIBEIAQAGozTlPJtYeGEiAMB/+JZkluS+XbZPxgEAwDaBEABggEpTTlND4WW8WwgAVP+kRsGHdtnOjQMAgF8RCAEARqA0ZTsWercQAKZh/Z7gLDUKPhsJAACvIRACAIxM927hZZwiBYAxWp8OfWiX7cw4AAB4D4EQAGDEnCIFgFFwOhQAgJ0SCAEAJqTbLrzqPp9MBAB6aZHudGi7bB+MAwCAXRMIAQAmynYhAPSKLUEAAA5GIAQAIMl324WX8XYhAOybtwQBADgagRAAgB9024WX2WwXnpkKAHzIKt3Z0NTToXMjAQDgWARCAAB+qzTlPJtYeBnnSAHgNR6zeUvwyTgAAOgLgRAAgDfrzpFepgZD50gBoPqWTRCcGQcAAH0lEAIA8GGlKZfZnCQVDAGYivU7grPUKPhsJAAADIFACADAzpWmrE+RXib5ZCIAjMQiNQautwQFQQAABkkgBABgr0pTTrOJhZcRDAEYjnUQnKUGwbmRAAAwBgIhAAAHtRUM1+8YOkkKQF+sT4Y+RRAEAGDEBEIAAI7OG4YAHIk3BAEAmCSBEACA3ilNWW8Xrj8npgLADjxmEwNnxgEAwFQJhAAA9F5pynk2sfBzvGMIwO8t0p0KTQ2CT0YCAACVQAgAwOB07xhubxl+ji1DgKl+m0zcAAADCUlEQVR7zCYIPnk/EAAAfk0gBABgFLqzpOtoaMsQYNy2twOfnAsFAIC3EQgBABit0pTLbILh5yRnpgIwOKtsxcDUc6HPxgIAAO8nEAIAMBndW4YvNw2dJgXol/Wp0KfU7UBvBwIAwI4JhAAATJpoCHBUYiAAAByBQAgAAC+IhgB7IQYCAEBPCIQAAPAKXTQ8jzcNAX7n5ZuBT+2ynRsLAAD0h0AIAAAfUJpymRoLz7vvC1MBJuRbagScpwuC7bJ9NhYAAOg3gRAAAHbsxYnSdTz8ZDLAgC2yFQGTzJ0IBQCA4RIIAQDgQEpTtjcNL7ufnSkF+mQ7BM5TQ+DMWAAAYFwEQgAAOLIX4dDGIXAIQiAAAEyYQAgAAD3VhcPTbLYNz1MD4onpAK/0mOQ59Syo06AAAEASgRAAAAapNOUy30fD0yQXJgOT9C01As6yFQPbZftsNAAAwM8IhAAAMCKlKafZnCk9zyYe2jyEYdveBFx/z9tlOzcaAADgrQRCAACYkG7zMKlnS9ffp/HmIRzb+k3A7QD4HJuAAADAHgiEAABAku+2D9ffySYkOl8KH7M+A/oyANoCBAAADk4gBAAAXq00ZR0Qz7vPdkwUEZmqdfybd591AEy7bGfGAwAA9I1ACAAA7FRpynl+jIfrsJgIiQzHOvwlyaz7nnef53bZPhkRAAAwRAIhAABwFFshMfk+IL78+cS02KHHrZ9nP/lZ+AMAAEZPIAQAAAZh67xpsjlxmny/qbj+tzMTG71VujOenfWbfsnWic/EmU8AAICXBEIAAGDUXoTF5PsNxeTHwLj+u0+mtzeL1DOd2+Y/+bvZ9h+EPgAAgN0QCAEAAF7pJ7Fx7Tybjcaf+VmEfI19vNe4/a7ea83zY7zb9t3G3jZRDwAAoH8EQgAAAAAAAJiQ/zECAAAAAAAAmA6BEAAAAAAAACZEIAQAAAAAAIAJEQgBAAAAAABgQgRCAAAAAAAAmBCBEAAAAAAAACZEIAQAAAAAAIAJEQgBAAAAAABgQgRCAAAAAAAAmJD/B2jFgZd7Z/jHAAAAAElFTkSuQmCC;" vertex="1" parent="110">
                    <mxGeometry width="73.91568627450981" height="73.9607843137255" as="geometry"/>
                </mxCell>
                <mxCell id="64" value="&lt;font style=&quot;font-size: 18px&quot;&gt;CircleCI&lt;/font&gt;" style="text;html=1;strokeColor=none;fillColor=none;align=center;verticalAlign=middle;whiteSpace=wrap;rounded=0;labelBackgroundColor=none;fontColor=#000000;" vertex="1" parent="110">
                    <mxGeometry x="16.960000000000036" y="73.9607843137255" width="39.99999999999998" height="18.03921568627451" as="geometry"/>
                </mxCell>
                <mxCell id="111" value="" style="group" vertex="1" connectable="0" parent="1">
                    <mxGeometry x="594" y="8" width="80" height="102" as="geometry"/>
                </mxCell>
                <mxCell id="18" value="" style="dashed=0;outlineConnect=0;html=1;align=center;labelPosition=center;verticalLabelPosition=bottom;verticalAlign=top;shape=mxgraph.weblogos.github" vertex="1" parent="111">
                    <mxGeometry width="80" height="82" as="geometry"/>
                </mxCell>
                <mxCell id="66" value="&lt;font style=&quot;font-size: 18px&quot;&gt;GitHub&lt;/font&gt;" style="text;html=1;strokeColor=none;fillColor=none;align=center;verticalAlign=middle;whiteSpace=wrap;rounded=0;labelBackgroundColor=none;fontColor=#000000;" vertex="1" parent="111">
                    <mxGeometry x="20" y="82" width="40" height="20" as="geometry"/>
                </mxCell>
                <mxCell id="113" value="" style="group" vertex="1" connectable="0" parent="1">
                    <mxGeometry x="156.75" y="367" width="76.5" height="93" as="geometry"/>
                </mxCell>
                <mxCell id="24" value="" style="outlineConnect=0;dashed=0;verticalLabelPosition=bottom;verticalAlign=top;align=center;html=1;shape=mxgraph.aws3.certificate_manager;fillColor=#759C3E;gradientColor=none;" vertex="1" parent="113">
                    <mxGeometry width="76.5" height="62.5" as="geometry"/>
                </mxCell>
                <mxCell id="59" value="&lt;font style=&quot;font-size: 18px&quot;&gt;ACM&lt;br&gt;&lt;/font&gt;" style="text;html=1;strokeColor=none;fillColor=none;align=center;verticalAlign=middle;whiteSpace=wrap;rounded=0;labelBackgroundColor=none;fontColor=#000000;" vertex="1" parent="113">
                    <mxGeometry x="3.25" y="73" width="70" height="20" as="geometry"/>
                </mxCell>
                <mxCell id="114" value="" style="group" vertex="1" connectable="0" parent="1">
                    <mxGeometry x="150" y="612" width="90" height="92.5" as="geometry"/>
                </mxCell>
                <mxCell id="8" value="" style="outlineConnect=0;dashed=0;verticalLabelPosition=bottom;verticalAlign=top;align=center;html=1;shape=mxgraph.aws3.route_53;fillColor=#F58536;gradientColor=none;" vertex="1" parent="114">
                    <mxGeometry x="15" width="60" height="72.5" as="geometry"/>
                </mxCell>
                <mxCell id="56" value="&lt;span style=&quot;font-size: 18px&quot;&gt;Route 53&lt;/span&gt;" style="text;html=1;strokeColor=none;fillColor=none;align=center;verticalAlign=middle;whiteSpace=wrap;rounded=0;labelBackgroundColor=none;fontColor=#000000;" vertex="1" parent="114">
                    <mxGeometry y="72.5" width="90" height="20" as="geometry"/>
                </mxCell>
                <mxCell id="115" value="" style="group" vertex="1" connectable="0" parent="1">
                    <mxGeometry x="324" y="623.75" width="70" height="100" as="geometry"/>
                </mxCell>
                <mxCell id="10" value="" style="outlineConnect=0;dashed=0;verticalLabelPosition=bottom;verticalAlign=top;align=center;html=1;shape=mxgraph.aws3.application_load_balancer;fillColor=#F58536;gradientColor=none;" vertex="1" parent="115">
                    <mxGeometry width="70" height="72" as="geometry"/>
                </mxCell>
                <mxCell id="52" value="&lt;font style=&quot;font-size: 18px&quot;&gt;ALB&lt;/font&gt;" style="text;html=1;strokeColor=none;fillColor=none;align=center;verticalAlign=middle;whiteSpace=wrap;rounded=0;labelBackgroundColor=none;fontColor=#000000;" vertex="1" parent="115">
                    <mxGeometry x="15" y="80" width="40" height="20" as="geometry"/>
                </mxCell>
                <mxCell id="116" value="" style="group" vertex="1" connectable="0" parent="1">
                    <mxGeometry x="324" y="450.5" width="70" height="102.5" as="geometry"/>
                </mxCell>
                <mxCell id="9" value="" style="outlineConnect=0;dashed=0;verticalLabelPosition=bottom;verticalAlign=top;align=center;html=1;shape=mxgraph.aws3.application_load_balancer;fillColor=#F58536;gradientColor=none;" vertex="1" parent="116">
                    <mxGeometry width="70" height="72" as="geometry"/>
                </mxCell>
                <mxCell id="51" value="&lt;font style=&quot;font-size: 18px&quot;&gt;ALB&lt;/font&gt;" style="text;html=1;strokeColor=none;fillColor=none;align=center;verticalAlign=middle;whiteSpace=wrap;rounded=0;labelBackgroundColor=none;fontColor=#000000;" vertex="1" parent="116">
                    <mxGeometry x="15" y="82.5" width="40" height="20" as="geometry"/>
                </mxCell>
                <mxCell id="117" value="" style="endArrow=classic;html=1;fontColor=#000000;strokeColor=#66B2FF;fillColor=#1ba1e2;strokeWidth=3;" edge="1" parent="1">
                    <mxGeometry width="50" height="50" relative="1" as="geometry">
                        <mxPoint x="680" y="58.28999999999999" as="sourcePoint"/>
                        <mxPoint x="749" y="58.28999999999999" as="targetPoint"/>
                    </mxGeometry>
                </mxCell>
                <mxCell id="119" value="" style="endArrow=classic;html=1;fontColor=#000000;strokeColor=#66B2FF;fillColor=#1ba1e2;strokeWidth=3;" edge="1" parent="1">
                    <mxGeometry width="50" height="50" relative="1" as="geometry">
                        <mxPoint x="501.13" y="58.289999999999964" as="sourcePoint"/>
                        <mxPoint x="570.13" y="58.289999999999964" as="targetPoint"/>
                    </mxGeometry>
                </mxCell>
                <mxCell id="121" value="" style="endArrow=classic;html=1;fontColor=#000000;strokeColor=#66B2FF;fillColor=#1ba1e2;strokeWidth=3;" edge="1" parent="1">
                    <mxGeometry width="50" height="50" relative="1" as="geometry">
                        <mxPoint x="803.29" y="123" as="sourcePoint"/>
                        <mxPoint x="803.29" y="185" as="targetPoint"/>
                    </mxGeometry>
                </mxCell>
                <mxCell id="122" value="" style="endArrow=classic;html=1;fontColor=#000000;strokeColor=#66B2FF;fillColor=#1ba1e2;strokeWidth=3;" edge="1" parent="1">
                    <mxGeometry width="50" height="50" relative="1" as="geometry">
                        <mxPoint x="194.29" y="474" as="sourcePoint"/>
                        <mxPoint x="194.29" y="602" as="targetPoint"/>
                    </mxGeometry>
                </mxCell>
                <mxCell id="123" value="" style="endArrow=classic;html=1;fontColor=#000000;strokeColor=#66B2FF;fillColor=#1ba1e2;strokeWidth=3;" edge="1" parent="1">
                    <mxGeometry width="50" height="50" relative="1" as="geometry">
                        <mxPoint x="237" y="658.04" as="sourcePoint"/>
                        <mxPoint x="320" y="658.47" as="targetPoint"/>
                    </mxGeometry>
                </mxCell>
                <mxCell id="124" value="" style="endArrow=classic;html=1;fontColor=#000000;strokeColor=#66B2FF;exitX=0.55;exitY=1.313;exitDx=0;exitDy=0;exitPerimeter=0;fillColor=#1ba1e2;strokeWidth=3;" edge="1" parent="1" source="63">
                    <mxGeometry width="50" height="50" relative="1" as="geometry">
                        <mxPoint x="803.29" y="354" as="sourcePoint"/>
                        <mxPoint x="803.29" y="555" as="targetPoint"/>
                    </mxGeometry>
                </mxCell>
                <mxCell id="125" value="" style="endArrow=classic;html=1;fontColor=#000000;strokeColor=#66B2FF;fillColor=#1ba1e2;strokeWidth=3;" edge="1" parent="1">
                    <mxGeometry width="50" height="50" relative="1" as="geometry">
                        <mxPoint x="401.47" y="661" as="sourcePoint"/>
                        <mxPoint x="749.47" y="661" as="targetPoint"/>
                    </mxGeometry>
                </mxCell>
                <mxCell id="126" value="" style="endArrow=classic;html=1;fontColor=#000000;strokeColor=#66B2FF;fillColor=#1ba1e2;strokeWidth=3;" edge="1" parent="1">
                    <mxGeometry width="50" height="50" relative="1" as="geometry">
                        <mxPoint x="762" y="238" as="sourcePoint"/>
                        <mxPoint x="584" y="390" as="targetPoint"/>
                        <Array as="points">
                            <mxPoint x="584" y="238"/>
                        </Array>
                    </mxGeometry>
                </mxCell>
                <mxCell id="128" value="" style="endArrow=classic;html=1;strokeColor=#66B2FF;fontColor=#000000;fillColor=#1ba1e2;strokeWidth=3;" edge="1" parent="1">
                    <mxGeometry width="50" height="50" relative="1" as="geometry">
                        <mxPoint x="240" y="650" as="sourcePoint"/>
                        <mxPoint x="319" y="489" as="targetPoint"/>
                        <Array as="points">
                            <mxPoint x="279" y="650"/>
                            <mxPoint x="279" y="489"/>
                        </Array>
                    </mxGeometry>
                </mxCell>
                <mxCell id="130" value="" style="endArrow=classic;startArrow=classic;html=1;strokeColor=#66B2FF;fontColor=#000000;fillColor=#1ba1e2;strokeWidth=3;" edge="1" parent="1">
                    <mxGeometry width="50" height="50" relative="1" as="geometry">
                        <mxPoint x="839" y="658.04" as="sourcePoint"/>
                        <mxPoint x="1003" y="658.04" as="targetPoint"/>
                    </mxGeometry>
                </mxCell>
                <mxCell id="138" value="" style="endArrow=classic;html=1;strokeColor=#66B2FF;fontColor=#000000;fillColor=#1ba1e2;strokeWidth=3;" edge="1" parent="1">
                    <mxGeometry width="50" height="50" relative="1" as="geometry">
                        <mxPoint x="101.07" y="654.61" as="sourcePoint"/>
                        <mxPoint x="164.07" y="655.11" as="targetPoint"/>
                    </mxGeometry>
                </mxCell>
                <mxCell id="139" value="" style="group" vertex="1" connectable="0" parent="1">
                    <mxGeometry x="13" y="609" width="82" height="99.86000000000001" as="geometry"/>
                </mxCell>
                <mxCell id="135" value="" style="shape=image;verticalLabelPosition=bottom;labelBackgroundColor=#ffffff;verticalAlign=top;aspect=fixed;imageAspect=0;image=data:image/png,iVBORw0KGgoAAAANSUhEUgAAAQAAAAEACAYAAABccqhmAAAAGXRFWHRTb2Z0d2FyZQBBZG9iZSBJbWFnZVJlYWR5ccllPAAADm1JREFUeNrsnU9248YRh1uKF8kq9AkGOcHQJxBml52pEwzmBGFOYMwJ5DkB5RNQOgE5JyB1AtI776gss1IADxBBHJISGw2guur73utHv2frmeyu+nVV9T/nAAAAAAAAAAAAAAAAAAAAAAAAAAAAAAAAAAAAAAAAAAAAAAAAAAAAAAAAAAAAAAAAAAAAAAAAAAAAAAAAAAAAAAAAAOB7Lgz/9lHRxkVLj/z7ddG21SfERVKN7fjIv19WY7ulq2xRGsRN0TZFezqjLYo2rQwLZDIp2qxouzPGtfxv50XLqgkBlM70uYfTnxKDlG4VM9Of6/Sn2gyR12ccTx21xYkQE7olrfq/q7GdERHEPePfdGgc+21Kl/eawi16GtcdkV58TAOGg+fOGKBH1Jsto/vjmBlWAxkIItAtk4FEHRGIaNZ/EtIQgbCz/kzQ2CICAg1kLshA6pYzNCoiukONmgAG8qY2YYiiDvlPFQZZHRDg/DvBzo+h+JMJH9d6+RdwfuoBBp2fegDOT85o3PlVRXh/icj5FxF2eikASdH+6zh4csr5Y4uW/lq0fxbtb0X7o2iPDGN3jIQX/Ng63E7YnxQ0tg53yFyJkdTthiH9v7BvFI3rjtpAeCbKnL9uK6IBUZt8QrY50UC4GWKn1EjqGcPqfoFU8bgi8IHIlRuJ5SWlhYFx3SEC/iTKZ3/LdYHM0LhajvLIDx0bhw6xMTi2FAfPnP2fjDbtl4tkRseVdIDZn9nC6OyPCFD5P9tQEoVjOzE+rvXqgCguBYaII0RQZT3gI/PbnxFATjcQIlo7SJQwnjIPEl0KU8cEDXwRCWgK/+F5XLlJ+gBD3frKLrLuWTGuL9oGd8dIrGwIGjGuB5sIkZeWAlilPE/+qWj/Vlr4AtKik6SO9WGiO1tNxN2CPwgxEKvFv/Lp8WvX7W1BSTXbvK/+OT0Qfayrzwf37ensZeDv8KHKezkmS2R0kNxosW/UodP7PIO+f659EtjgmflfNjAqAF05/8SFP2pbikgW6Ptljp2ezUZEZFAAunD+zHW/iSrU8uSQD32y2QsBGHz9N6Tzp67fyzVC3nsn/XUnM0uBCEB81f6hH87MA/4Oy9EAGBKAUAU1KW/nhdy0ZLU2AEYE4EbpbJkFtIGxMRHgjcG9WY0z4KeX9aTmyyHzWC2PwERzBZyUrcBan1Yqf9d1oGKZ1IJRyHvwy/4qNw2tDUx6D8z7L5Wf670OV/ljCItnHdiD9kggxe1foi3/2xlLi1JEgAJgG7Q9FpEbK4h1ccZdqwjMcXfdKwEbY86/X/TMAouAtqviuBFI+UpAxoz35+8IlRZoWyJMcHe9hcA2s7/GXXF5IPvIHMvC6tHwKIjv7J8qLniFOgA1J/zXnQLEHua1ufJZ+7JXiLMQiQIb6fIeCPL/SMPdTLnzh3wtV0OxGBHYy/21FHh8izvWHkTJsBfOAmib/XzXdqfGnD+ECGhZMh58e7eEswBalkTuPf/uX4YLvr4O8Kui1Ne8AGjh1jP6SQz32cLz95eHhu4wOR0CoOHkl68x/kL9x/sg0W+4rw4B2Crox68ef5M6doTV/eBTD7hz8R8j3zL837BY/dew6Wno3ZOxbwyiCKggDXj0VHLehnsmcX7nBr5GbjdrBOAby4gH0mcQU8dGkH0+GrMbEd9digDErOS++T+0j4jWxuyGCEBJIecKf/+OkacwxioCdwjAy3zozpAA8CJMuH6JcSVg7YSsAEjaCHQfqdH6GCD5/2HeGYkAxOxhkCQAsa7rnmuAzP5h++Y/EU4YtwjA4Y75YiTXBbt8kTTRSTsL8KvT+0gIwNYJO8gkTQBK5/+EnYBSrqVNcBJPA94hAmbR/ERcadPiCpY/CO2w2ypcKneHJVUHpkLz59GZhrvFz4/i817ee6Ghfj3O6yrvZ9xbIvXloNTjt3AAKNwtQRLtIo/FqWK6EETTi7EUOsON8RhbtSEAUs8LJMbFbEjHGQlNC5cIgJ1O9REA8sEw4yt19n9EALoJmyXOnD5FqN/x9yARnkQBWMbU6bFdCirxHriRdiPpCZ/DYBJXAKI603IRmZGU4fZG2HcqI5MfPURjh8+36kNX2UKi4HcQAZyRO0tLA754Ggp1gHazvxPYh9EdaY/xXQBpB4ZurRiLwNROmi3cM5T95Nwa3nrX8iBqiNZmKU/KO4FRpnQxRgCSbg/yVfzM+b8lqJFSSH0r+lJsgYiuR1Ihqj+J+LtreTI7c3G/DA2eSHgUIvX43huc/Wi7iVRQc9xxmFrALjLVH+HkneTRMUYu1AAC1AKuB/4O2zP/e8LE1wUyjcwGP7mID3fF/jz40g17eci5xsohIF1cM6ZyioJDpAM+s5WUZStNS4JDhP0qbne+VCIAy4GU2CekZ8Y4HVKfG04PkTLcaxnHS2wOARAEfYMARIXPabQHuu0oPLSKAKiPAJZ0W9C+eUe3IQBD4VMI2jpOAh7L/5c9jQEgAMHwCUHZNx6mT0YIAAIQYxTwG932HT4Hq8j/EYDBufL4GzHvwwth6xkBXNF1CMDQTDz/7gtd17ovJnQdAhCrCNw6HgipZ3+fF3PL1Cuh+6DOBYfcYjtrIRzWt/765vE3bthTi9QfhJA7GcdYfY+Ezgw7f95i3CWcqZjifsNROpykhyGzFr/lxtk799+mvzJBv2XuIr4PIOacW9qpurbvFSRVWJkqjQqmjd/X1mFWAgWNgmQPJE7GVWBdRAH7NQ2O+cbXN0QDHef60s/Sh3q1SNvVYauAdiD9TsUdtYHwFf6YLtKcGjH0ri/7PMQ0MtFjpaAFY2FFvj5WBLQWBkPkx4mL8zaluWO/wtkDHXsRbBGo0En+L7fw57NXBCFQ7vih74rXcH9gCDHUZBcIgXLHD7kqoCENaFsTyZXahnkh0Oz4oURgrOD3J8YF8C2Roqmlw1EkS3pSquAxrwasWtiIpS3SOwtCYNHxQzwhFfMs6BP+J87u+4kqhcC647dNB5KIjdnHkHPsRI8QZDj+d2vCVqrgvqsgK+wk2KGpQR2fZ7DDrYmPIhPSjefvTLCPo/0ZhRCkKHhnqwIxbQzyvamX8P91IUglOn6s23Zj2xhzo1jgYl/x6NuGRFyHbm25hrXx7pyf69H8NhMNViicUuDr/Q7BZo1F24EfIsh2Kwa9hvvk+cPlyXWtRcvlnsz+ER0/pkgjoxagSQBG5P7iDqGpWYvWelBGkwAwqchLMXH+HvM3ywLAuv/AIvCWl4GyWHcjCWdZtJ+M98G26oMl5hCcIH47ptLfyWaOthVzbUXA2mCpBYSPMFvtF6DaL3M7p0YBYHlZWLF5SueJPdmlWQDqlYEcIRiu2Dyi80Uf6dQuAAhBT0ezL0/M/rxw4kf55Pfnov2jMt7HjhxDGqOO+jKv+vKz4zn1NmPz5iiApRnZlzhkgn9/1oMhExF0fEHLDZ3ldeffqAfjn0XSF33MaNhpB7sEyf1lXu08jmyJbOX6Oa6aODapBY0CqPzLcvw65GVfOkLQy4oAGzFeX1NNejLqVMl49PlIZuI4VvyW/SjRLC1Jcvw+jXiuNGoa9SieCMGZS7aEUN1s26XCPdx11xOi2rcfFKL499JQp64/MmP93/ctt2wvfuUUKjey9Luk13T8jfEIK+sxwmLp8MgVboT//d60at3xhxQCbrA+sF9j4wj3cXxbQmA9Ldg0q84s67GkZ3HVxfqyYVLPSuZDIJajTAuB1dpAZjX/z3B8hOBAemZyOXCF81NgolBrUgRK32cfdKBckpUUHWcxrJ2H4ZrklmvLOL6+7cUzBEBhqBPY8XN2l6neXmwlNVZvxLvA4WKG45u4kSgx4hvqn2YKlfenjmvSrR0/1l4PyOtwVusmlQV5vtk2D5QWaF3V2TT7R+uT321D/wnhfvQhbtvj3InSKGl8LL9daApvqATTAqwA5Yoi4jfXSdLqhy8inAV3LcM/nB8R2E8Dd5E6fB6qJjKu1GMWQbrQphrMmXHOf8RYEFxVvjk9Z7fkRYDKePk/e1d9hqq+tmHrvr0k45vzzx1o5rpod55/u3H9XQp7imVl5w9FW7sWz6tfdPDlkqqllTAklTj0dcvOp6Lden7vleNJNO08VhOEzzNjmetmR+kpR39sOPq2+gzGRc+dn1YONm6IQxJQVdsM7tz1dwEoDMtdFQn41AI2ASeJx8qhayffNpy8l3cQLwQNyqiRu9SpxLuGOLwlivjs/Kr/qQuzZwDi4YNn6Fza1y9vnL1dw7ldw7FrRx+ci0gHrykGTeG49exYKbkd9MfW+dWKEvdcZN6fqZd0a3yUg0mF3PCNOJa5wP+Z/YkC7HLJ7I/zGyaxHgVYjwCY/aHM438iArBHivODk7OBDQHomY/YPli3BaspQH24A6DmR9fT5hsigOFhxx9gE4YF4GfsHbAJmykA4T+QBhiOAAj/AdswLABX2DlgG3YFIMXOAduwKQCJY/MPYB9mBYDZH15jjADo5T32DQiAXQEYY9/wClcIAAAgAAp5ZMgBG7ErAPfYN7zCV0s/1tpW4HIbcHn3f4Kdw5HZ3/daeSKASAb4mlQAjmDONiwWAcsroD64wC+sQNRs3bdrwZbWfrj1OwHLZcHyAEi59JPiB6ZYVvn+0hm+z59rwV+SVqJwVX1SK9CT+pVO/mDd4RGA80gqIWiKAo+Hynf2dTW7r93zo5qAAAShfoqsjBbqtwtJH4ahdu56Zt/i7AjAkNFCLQZ/b6QQpBFhZvTSsX93z09mU8RFAKJh3Igcys/31ScC8Txr16/oNp/MxskRADOke5GEcy+fR3cRpRrNV3PrmdvthehLhhwBgDCicSgV6XK23gdnBgAAAAAAAAAAAAAAAAAAAAAAAAAAAAAAAAAAAAAAAAAAAAAAAAAAAAAAAAAAAAAAAAAAAAAAAAAAAAAAAAAAAAAAAABF/E+AAQBS2cqVMqTwrwAAAABJRU5ErkJggg==;" vertex="1" parent="139">
                    <mxGeometry x="1.0700000000000003" width="79.86" height="79.86" as="geometry"/>
                </mxCell>
                <mxCell id="137" value="&lt;span style=&quot;font-size: 18px&quot;&gt;ユーザー&lt;/span&gt;" style="text;html=1;align=center;verticalAlign=middle;resizable=0;points=[];autosize=1;fontColor=#000000;" vertex="1" parent="139">
                    <mxGeometry y="79.86000000000001" width="82" height="20" as="geometry"/>
                </mxCell>
                <mxCell id="140" value="" style="group" vertex="1" connectable="0" parent="1">
                    <mxGeometry x="407" y="13" width="79.86000000000001" height="95" as="geometry"/>
                </mxCell>
                <mxCell id="131" value="" style="shape=image;verticalLabelPosition=bottom;labelBackgroundColor=#ffffff;verticalAlign=top;aspect=fixed;imageAspect=0;image=data:image/png,iVBORw0KGgoAAAANSUhEUgAAAQAAAAEACAYAAABccqhmAAAAGXRFWHRTb2Z0d2FyZQBBZG9iZSBJbWFnZVJlYWR5ccllPAAADm1JREFUeNrsnU9248YRh1uKF8kq9AkGOcHQJxBml52pEwzmBGFOYMwJ5DkB5RNQOgE5JyB1AtI776gss1IADxBBHJISGw2guur73utHv2frmeyu+nVV9T/nAAAAAAAAAAAAAAAAAAAAAAAAAAAAAAAAAAAAAAAAAAAAAAAAAAAAAAAAAAAAAAAAAAAAAAAAAAAAAAAAAAAAAAAAAOB7Lgz/9lHRxkVLj/z7ddG21SfERVKN7fjIv19WY7ulq2xRGsRN0TZFezqjLYo2rQwLZDIp2qxouzPGtfxv50XLqgkBlM70uYfTnxKDlG4VM9Of6/Sn2gyR12ccTx21xYkQE7olrfq/q7GdERHEPePfdGgc+21Kl/eawi16GtcdkV58TAOGg+fOGKBH1Jsto/vjmBlWAxkIItAtk4FEHRGIaNZ/EtIQgbCz/kzQ2CICAg1kLshA6pYzNCoiukONmgAG8qY2YYiiDvlPFQZZHRDg/DvBzo+h+JMJH9d6+RdwfuoBBp2fegDOT85o3PlVRXh/icj5FxF2eikASdH+6zh4csr5Y4uW/lq0fxbtb0X7o2iPDGN3jIQX/Ng63E7YnxQ0tg53yFyJkdTthiH9v7BvFI3rjtpAeCbKnL9uK6IBUZt8QrY50UC4GWKn1EjqGcPqfoFU8bgi8IHIlRuJ5SWlhYFx3SEC/iTKZ3/LdYHM0LhajvLIDx0bhw6xMTi2FAfPnP2fjDbtl4tkRseVdIDZn9nC6OyPCFD5P9tQEoVjOzE+rvXqgCguBYaII0RQZT3gI/PbnxFATjcQIlo7SJQwnjIPEl0KU8cEDXwRCWgK/+F5XLlJ+gBD3frKLrLuWTGuL9oGd8dIrGwIGjGuB5sIkZeWAlilPE/+qWj/Vlr4AtKik6SO9WGiO1tNxN2CPwgxEKvFv/Lp8WvX7W1BSTXbvK/+OT0Qfayrzwf37ensZeDv8KHKezkmS2R0kNxosW/UodP7PIO+f659EtjgmflfNjAqAF05/8SFP2pbikgW6Ptljp2ezUZEZFAAunD+zHW/iSrU8uSQD32y2QsBGHz9N6Tzp67fyzVC3nsn/XUnM0uBCEB81f6hH87MA/4Oy9EAGBKAUAU1KW/nhdy0ZLU2AEYE4EbpbJkFtIGxMRHgjcG9WY0z4KeX9aTmyyHzWC2PwERzBZyUrcBan1Yqf9d1oGKZ1IJRyHvwy/4qNw2tDUx6D8z7L5Wf670OV/ljCItnHdiD9kggxe1foi3/2xlLi1JEgAJgG7Q9FpEbK4h1ccZdqwjMcXfdKwEbY86/X/TMAouAtqviuBFI+UpAxoz35+8IlRZoWyJMcHe9hcA2s7/GXXF5IPvIHMvC6tHwKIjv7J8qLniFOgA1J/zXnQLEHua1ufJZ+7JXiLMQiQIb6fIeCPL/SMPdTLnzh3wtV0OxGBHYy/21FHh8izvWHkTJsBfOAmib/XzXdqfGnD+ECGhZMh58e7eEswBalkTuPf/uX4YLvr4O8Kui1Ne8AGjh1jP6SQz32cLz95eHhu4wOR0CoOHkl68x/kL9x/sg0W+4rw4B2Crox68ef5M6doTV/eBTD7hz8R8j3zL837BY/dew6Wno3ZOxbwyiCKggDXj0VHLehnsmcX7nBr5GbjdrBOAby4gH0mcQU8dGkH0+GrMbEd9digDErOS++T+0j4jWxuyGCEBJIecKf/+OkacwxioCdwjAy3zozpAA8CJMuH6JcSVg7YSsAEjaCHQfqdH6GCD5/2HeGYkAxOxhkCQAsa7rnmuAzP5h++Y/EU4YtwjA4Y75YiTXBbt8kTTRSTsL8KvT+0gIwNYJO8gkTQBK5/+EnYBSrqVNcBJPA94hAmbR/ERcadPiCpY/CO2w2ypcKneHJVUHpkLz59GZhrvFz4/i817ee6Ghfj3O6yrvZ9xbIvXloNTjt3AAKNwtQRLtIo/FqWK6EETTi7EUOsON8RhbtSEAUs8LJMbFbEjHGQlNC5cIgJ1O9REA8sEw4yt19n9EALoJmyXOnD5FqN/x9yARnkQBWMbU6bFdCirxHriRdiPpCZ/DYBJXAKI603IRmZGU4fZG2HcqI5MfPURjh8+36kNX2UKi4HcQAZyRO0tLA754Ggp1gHazvxPYh9EdaY/xXQBpB4ZurRiLwNROmi3cM5T95Nwa3nrX8iBqiNZmKU/KO4FRpnQxRgCSbg/yVfzM+b8lqJFSSH0r+lJsgYiuR1Ihqj+J+LtreTI7c3G/DA2eSHgUIvX43huc/Wi7iVRQc9xxmFrALjLVH+HkneTRMUYu1AAC1AKuB/4O2zP/e8LE1wUyjcwGP7mID3fF/jz40g17eci5xsohIF1cM6ZyioJDpAM+s5WUZStNS4JDhP0qbne+VCIAy4GU2CekZ8Y4HVKfG04PkTLcaxnHS2wOARAEfYMARIXPabQHuu0oPLSKAKiPAJZ0W9C+eUe3IQBD4VMI2jpOAh7L/5c9jQEgAMHwCUHZNx6mT0YIAAIQYxTwG932HT4Hq8j/EYDBufL4GzHvwwth6xkBXNF1CMDQTDz/7gtd17ovJnQdAhCrCNw6HgipZ3+fF3PL1Cuh+6DOBYfcYjtrIRzWt/765vE3bthTi9QfhJA7GcdYfY+Ezgw7f95i3CWcqZjifsNROpykhyGzFr/lxtk799+mvzJBv2XuIr4PIOacW9qpurbvFSRVWJkqjQqmjd/X1mFWAgWNgmQPJE7GVWBdRAH7NQ2O+cbXN0QDHef60s/Sh3q1SNvVYauAdiD9TsUdtYHwFf6YLtKcGjH0ri/7PMQ0MtFjpaAFY2FFvj5WBLQWBkPkx4mL8zaluWO/wtkDHXsRbBGo0En+L7fw57NXBCFQ7vih74rXcH9gCDHUZBcIgXLHD7kqoCENaFsTyZXahnkh0Oz4oURgrOD3J8YF8C2Roqmlw1EkS3pSquAxrwasWtiIpS3SOwtCYNHxQzwhFfMs6BP+J87u+4kqhcC647dNB5KIjdnHkHPsRI8QZDj+d2vCVqrgvqsgK+wk2KGpQR2fZ7DDrYmPIhPSjefvTLCPo/0ZhRCkKHhnqwIxbQzyvamX8P91IUglOn6s23Zj2xhzo1jgYl/x6NuGRFyHbm25hrXx7pyf69H8NhMNViicUuDr/Q7BZo1F24EfIsh2Kwa9hvvk+cPlyXWtRcvlnsz+ER0/pkgjoxagSQBG5P7iDqGpWYvWelBGkwAwqchLMXH+HvM3ywLAuv/AIvCWl4GyWHcjCWdZtJ+M98G26oMl5hCcIH47ptLfyWaOthVzbUXA2mCpBYSPMFvtF6DaL3M7p0YBYHlZWLF5SueJPdmlWQDqlYEcIRiu2Dyi80Uf6dQuAAhBT0ezL0/M/rxw4kf55Pfnov2jMt7HjhxDGqOO+jKv+vKz4zn1NmPz5iiApRnZlzhkgn9/1oMhExF0fEHLDZ3ldeffqAfjn0XSF33MaNhpB7sEyf1lXu08jmyJbOX6Oa6aODapBY0CqPzLcvw65GVfOkLQy4oAGzFeX1NNejLqVMl49PlIZuI4VvyW/SjRLC1Jcvw+jXiuNGoa9SieCMGZS7aEUN1s26XCPdx11xOi2rcfFKL499JQp64/MmP93/ctt2wvfuUUKjey9Luk13T8jfEIK+sxwmLp8MgVboT//d60at3xhxQCbrA+sF9j4wj3cXxbQmA9Ldg0q84s67GkZ3HVxfqyYVLPSuZDIJajTAuB1dpAZjX/z3B8hOBAemZyOXCF81NgolBrUgRK32cfdKBckpUUHWcxrJ2H4ZrklmvLOL6+7cUzBEBhqBPY8XN2l6neXmwlNVZvxLvA4WKG45u4kSgx4hvqn2YKlfenjmvSrR0/1l4PyOtwVusmlQV5vtk2D5QWaF3V2TT7R+uT321D/wnhfvQhbtvj3InSKGl8LL9daApvqATTAqwA5Yoi4jfXSdLqhy8inAV3LcM/nB8R2E8Dd5E6fB6qJjKu1GMWQbrQphrMmXHOf8RYEFxVvjk9Z7fkRYDKePk/e1d9hqq+tmHrvr0k45vzzx1o5rpod55/u3H9XQp7imVl5w9FW7sWz6tfdPDlkqqllTAklTj0dcvOp6Lden7vleNJNO08VhOEzzNjmetmR+kpR39sOPq2+gzGRc+dn1YONm6IQxJQVdsM7tz1dwEoDMtdFQn41AI2ASeJx8qhayffNpy8l3cQLwQNyqiRu9SpxLuGOLwlivjs/Kr/qQuzZwDi4YNn6Fza1y9vnL1dw7ldw7FrRx+ci0gHrykGTeG49exYKbkd9MfW+dWKEvdcZN6fqZd0a3yUg0mF3PCNOJa5wP+Z/YkC7HLJ7I/zGyaxHgVYjwCY/aHM438iArBHivODk7OBDQHomY/YPli3BaspQH24A6DmR9fT5hsigOFhxx9gE4YF4GfsHbAJmykA4T+QBhiOAAj/AdswLABX2DlgG3YFIMXOAduwKQCJY/MPYB9mBYDZH15jjADo5T32DQiAXQEYY9/wClcIAAAgAAp5ZMgBG7ErAPfYN7zCV0s/1tpW4HIbcHn3f4Kdw5HZ3/daeSKASAb4mlQAjmDONiwWAcsroD64wC+sQNRs3bdrwZbWfrj1OwHLZcHyAEi59JPiB6ZYVvn+0hm+z59rwV+SVqJwVX1SK9CT+pVO/mDd4RGA80gqIWiKAo+Hynf2dTW7r93zo5qAAAShfoqsjBbqtwtJH4ahdu56Zt/i7AjAkNFCLQZ/b6QQpBFhZvTSsX93z09mU8RFAKJh3Igcys/31ScC8Txr16/oNp/MxskRADOke5GEcy+fR3cRpRrNV3PrmdvthehLhhwBgDCicSgV6XK23gdnBgAAAAAAAAAAAAAAAAAAAAAAAAAAAAAAAAAAAAAAAAAAAAAAAAAAAAAAAAAAAAAAAAAAAAAAAAAAAAAAAAAAAAAAAABF/E+AAQBS2cqVMqTwrwAAAABJRU5ErkJggg==;" vertex="1" parent="140">
                    <mxGeometry width="79.86" height="79.86" as="geometry"/>
                </mxCell>
                <mxCell id="132" value="&lt;span style=&quot;font-size: 18px&quot;&gt;開発者&lt;/span&gt;" style="text;html=1;align=center;verticalAlign=middle;resizable=0;points=[];autosize=1;fontColor=#000000;" vertex="1" parent="140">
                    <mxGeometry x="10" y="75" width="64" height="20" as="geometry"/>
                </mxCell>
                <mxCell id="141" value="" style="endArrow=classic;startArrow=classic;html=1;strokeColor=#66B2FF;fontColor=#000000;fillColor=#1ba1e2;strokeWidth=3;" edge="1" parent="1">
                    <mxGeometry width="50" height="50" relative="1" as="geometry">
                        <mxPoint x="571" y="563.5" as="sourcePoint"/>
                        <mxPoint x="751" y="643.5" as="targetPoint"/>
                        <Array as="points">
                            <mxPoint x="571" y="644"/>
                        </Array>
                    </mxGeometry>
                </mxCell>
                <mxCell id="129" value="" style="endArrow=classic;startArrow=classic;html=1;strokeColor=#66B2FF;fontColor=#000000;fillColor=#1ba1e2;strokeWidth=3;" edge="1" parent="1">
                    <mxGeometry width="50" height="50" relative="1" as="geometry">
                        <mxPoint x="617" y="493.79" as="sourcePoint"/>
                        <mxPoint x="991" y="493.79" as="targetPoint"/>
                    </mxGeometry>
                </mxCell>
            </root>
        </mxGraphModel>
    </diagram>
</mxfile>
